<?xml version="1.0" standalone="no"?>
<!DOCTYPE svg PUBLIC "-//W3C//DTD SVG 20010904//EN"
 "http://www.w3.org/TR/2001/REC-SVG-20010904/DTD/svg10.dtd">
<svg version="1.0" xmlns="http://www.w3.org/2000/svg"
 width="1440.000000pt" height="878.000000pt" viewBox="0 0 1440.000000 878.000000"
 preserveAspectRatio="xMidYMid meet">

<g transform="translate(0.000000,878.000000) scale(0.100000,-0.100000)"
fill="#000000" stroke="none">
<path d="M1401 8376 c-50 -28 -50 -29 -51 -513 0 -486 1 -492 51 -519 42 -21
12016 -21 12058 0 50 26 51 34 51 516 0 482 -1 490 -51 516 -40 20 -12021 21
-12058 0z m12070 -25 l29 -29 0 -462 0 -462 -29 -29 -29 -29 -6012 0 -6012 0
-29 29 -29 29 0 462 0 462 29 29 29 29 6012 0 6012 0 29 -29z"/>
<path d="M1980 8070 c-25 -25 -17 -46 26 -60 41 -14 50 -26 34 -45 -16 -19
-35 -19 -55 1 -20 20 -33 11 -15 -11 14 -16 57 -20 78 -6 18 11 11 52 -10 62
-10 5 -26 13 -35 18 -10 4 -18 14 -18 22 0 18 45 25 56 8 4 -8 12 -10 16 -5 9
9 -24 36 -44 36 -7 0 -22 -9 -33 -20z"/>
<path d="M2704 8076 c-11 -8 -15 -18 -10 -23 5 -4 11 -2 13 5 6 17 42 15 49
-3 4 -9 -9 -33 -30 -59 -20 -25 -36 -47 -36 -50 0 -3 21 -6 46 -6 27 0 43 4
39 10 -3 6 -18 10 -32 10 l-25 0 26 34 c28 38 33 65 14 84 -16 16 -30 15 -54
-2z"/>
<path d="M2820 8070 c-37 -37 -16 -130 29 -130 45 0 68 81 35 128 -19 27 -38
28 -64 2z m58 -51 c2 -32 -2 -50 -13 -59 -24 -20 -45 5 -45 55 0 48 6 57 35
53 16 -2 21 -12 23 -49z"/>
<path d="M2942 8078 c-7 -7 -12 -16 -12 -22 0 -6 5 -5 12 2 7 7 20 12 29 12
29 0 30 -29 1 -63 -60 -70 -60 -67 -8 -67 25 0 46 5 46 10 0 6 -14 10 -32 10
l-32 0 32 33 c36 37 41 71 13 87 -25 13 -34 13 -49 -2z"/>
<path d="M1611 8008 c1 -53 3 -63 8 -38 5 31 10 35 41 39 l35 4 -35 6 c-26 5
-36 12 -38 28 -3 19 2 22 35 26 l38 4 -42 1 -43 2 1 -72z"/>
<path d="M1833 8010 c0 -41 2 -58 4 -37 2 20 2 54 0 75 -2 20 -4 3 -4 -38z"/>
<path d="M1870 8010 c0 -40 4 -70 10 -70 6 0 10 30 10 70 0 40 -4 70 -10 70
-6 0 -10 -30 -10 -70z"/>
<path d="M3061 8029 c-17 -28 -31 -52 -31 -55 0 -2 16 -4 35 -4 24 0 35 -5 35
-15 0 -8 5 -15 10 -15 6 0 10 6 10 14 0 8 6 17 13 19 10 4 10 6 0 6 -9 1 -13
18 -13 51 0 66 -17 65 -59 -1z m39 -14 c0 -28 -4 -35 -20 -35 -24 0 -25 13 -4
45 21 33 24 32 24 -10z"/>
<path d="M1730 8040 c-8 -5 -11 -12 -7 -16 3 -4 14 -1 22 6 11 9 19 10 27 2
14 -14 2 -32 -21 -32 -10 0 -24 -7 -31 -15 -19 -23 5 -45 46 -43 33 1 34 2 34
43 0 58 -29 81 -70 55z m50 -65 c0 -9 -7 -18 -16 -22 -18 -7 -39 11 -30 26 11
17 46 13 46 -4z"/>
<path d="M2094 8025 c-22 -33 -11 -73 21 -81 29 -7 55 1 55 16 0 6 -7 6 -19
-2 -15 -9 -23 -9 -35 1 -26 22 -19 31 24 31 44 0 52 16 24 44 -23 23 -51 20
-70 -9z m66 -16 c0 -5 -13 -9 -30 -9 -33 0 -39 14 -13 29 18 10 43 -2 43 -20z"/>
<path d="M2210 8040 c-8 -5 -11 -12 -7 -16 3 -4 14 -1 22 6 11 9 19 10 27 2
14 -14 2 -32 -21 -32 -10 0 -24 -7 -31 -15 -19 -23 5 -45 46 -42 33 2 34 4 34
43 0 57 -30 80 -70 54z m50 -70 c-11 -21 -35 -27 -45 -10 -10 16 4 30 31 30
22 0 23 -3 14 -20z"/>
<path d="M2317 8044 c-17 -18 -6 -46 23 -55 17 -6 30 -15 30 -20 0 -17 -30
-22 -47 -8 -14 12 -16 12 -11 -1 6 -21 52 -24 68 -6 10 13 10 19 0 31 -7 8
-18 15 -24 15 -6 0 -18 5 -26 10 -23 15 8 32 33 18 15 -8 18 -7 15 4 -5 14
-49 23 -61 12z"/>
<path d="M2416 8028 c-9 -12 -16 -30 -16 -39 0 -22 32 -49 58 -49 38 0 56 64
26 94 -22 22 -50 20 -68 -6z m64 -40 c0 -32 -23 -47 -45 -28 -20 17 -19 57 2
69 24 13 43 -4 43 -41z"/>
<path d="M2520 7993 c0 -29 5 -53 10 -53 6 0 10 20 10 44 0 43 11 58 38 49 7
-3 12 -22 12 -49 0 -24 5 -44 10 -44 15 0 12 86 -3 98 -7 6 -27 10 -45 10 -32
-1 -32 -1 -32 -55z"/>
<path d="M11126 8019 c-26 -20 -26 -21 -26 -159 0 -138 0 -139 26 -159 27 -21
30 -21 1061 -21 l1034 0 24 25 c24 23 25 29 25 155 0 126 -1 132 -25 155 l-24
25 -1034 0 c-1031 0 -1034 0 -1061 -21z m1289 -109 c3 -5 1 -10 -4 -10 -6 0
-11 5 -11 10 0 6 2 10 4 10 3 0 8 -4 11 -10z m-895 -17 c0 -13 -3 -14 -12 -5
-17 17 -38 15 -38 -3 0 -8 6 -15 14 -15 8 0 22 -7 31 -16 20 -20 4 -44 -31
-44 -24 0 -41 16 -29 28 3 3 10 0 15 -7 8 -15 40 -8 40 8 0 5 -13 14 -30 20
-32 11 -33 12 -24 35 9 23 64 22 64 -1z m120 2 c0 -8 6 -12 13 -10 22 8 39
-11 35 -41 -2 -25 -8 -29 -35 -32 l-33 -3 0 50 c0 28 5 51 10 51 6 0 10 -7 10
-15z m255 -45 c0 -22 -4 -39 -10 -37 -12 4 -25 65 -18 84 10 25 27 -5 28 -47z
m120 20 c0 -19 4 -41 8 -47 5 -8 4 -13 -2 -13 -6 0 -15 9 -21 20 -6 11 -15 20
-20 20 -6 0 -10 -9 -10 -20 0 -11 -4 -20 -10 -20 -5 0 -10 23 -10 51 l0 50 33
-3 c29 -3 32 -6 32 -38z m205 -10 c0 -27 -4 -50 -10 -50 -5 0 -10 23 -10 50 0
28 5 50 10 50 6 0 10 -22 10 -50z m325 25 c16 0 20 -7 22 -40 1 -35 1 -36 -5
-10 -10 43 -40 45 -45 3 -2 -21 -4 -13 -5 22 0 30 2 48 6 40 4 -8 16 -15 27
-15z m360 -35 c0 -22 -4 -39 -10 -37 -12 4 -25 65 -18 84 10 25 27 -5 28 -47z
m-1345 -1 c0 -41 24 -33 28 9 4 42 22 31 22 -13 0 -31 -2 -33 -32 -32 -31 2
-33 5 -36 41 -2 25 0 36 7 31 6 -3 11 -20 11 -36z m246 -4 c1 -32 1 -34 -3 -7
-6 42 -33 44 -33 2 0 -16 -4 -30 -10 -30 -5 0 -10 14 -10 31 0 39 -22 34 -31
-7 -6 -26 -7 -25 -8 12 l-1 41 48 -1 47 -1 1 -40z m44 -1 c0 -19 -4 -34 -10
-34 -5 0 -10 18 -10 41 0 24 4 38 10 34 6 -3 10 -22 10 -41z m234 40 c9 -3 16
-15 16 -25 0 -14 -7 -19 -26 -19 -15 0 -23 -4 -19 -10 4 -6 16 -8 27 -4 14 4
18 2 14 -5 -11 -17 -44 -13 -54 7 -10 19 -5 43 12 54 13 9 11 9 30 2z m97 -11
c20 -20 2 -63 -25 -63 -15 0 -26 -7 -29 -17 -3 -10 -5 7 -6 37 -1 53 0 56 24
55 13 0 29 -5 36 -12z m103 11 c9 -3 16 -15 16 -25 0 -14 -7 -19 -26 -19 -15
0 -23 -4 -19 -10 4 -6 16 -8 27 -4 14 4 18 2 14 -5 -23 -36 -76 11 -56 49 11
21 19 24 44 14z m93 -39 c1 -35 1 -36 -5 -10 -4 17 -14 30 -22 30 -8 0 -18
-13 -21 -30 -6 -28 -7 -27 -8 11 -1 39 1 41 27 40 24 -1 27 -5 29 -41z m43 -1
c0 -19 -4 -34 -10 -34 -5 0 -10 18 -10 41 0 24 4 38 10 34 6 -3 10 -22 10 -41z
m65 37 c3 -5 -5 -12 -17 -14 l-23 -4 23 -8 c14 -5 22 -14 20 -24 -4 -20 -36
-27 -52 -11 -8 9 -6 11 12 5 28 -8 29 6 1 23 -16 11 -18 16 -9 28 14 16 36 19
45 5z m201 -36 c1 -32 1 -34 -3 -7 -6 42 -33 44 -33 2 0 -16 -4 -30 -10 -30
-5 0 -10 14 -10 30 0 17 -4 30 -10 30 -5 0 -10 -13 -10 -30 0 -16 -4 -30 -10
-30 -5 0 -10 17 -10 38 l0 39 48 -1 47 -1 1 -40z m82 33 c20 -20 14 -38 -13
-38 -14 0 -25 -5 -25 -11 0 -7 10 -9 28 -4 20 5 24 4 16 -5 -19 -19 -59 -8
-62 18 -6 41 30 66 56 40z m80 -1 c14 -10 16 -67 2 -67 -5 0 -10 14 -10 30 0
20 -5 30 -15 30 -10 0 -15 -10 -15 -30 0 -16 -4 -30 -10 -30 -5 0 -10 17 -10
38 0 33 3 38 23 37 12 0 28 -4 35 -8z"/>
<path d="M11642 7848 c2 -12 10 -23 18 -23 22 0 19 39 -3 43 -15 3 -18 -1 -15
-20z"/>
<path d="M11970 7880 c0 -15 5 -20 18 -18 9 2 17 10 17 18 0 8 -8 16 -17 18
-13 2 -18 -3 -18 -18z"/>
<path d="M12058 7863 c6 -2 18 -2 25 0 6 3 1 5 -13 5 -14 0 -19 -2 -12 -5z"/>
<path d="M12136 7861 c-9 -14 5 -42 18 -38 18 6 20 47 2 47 -8 0 -17 -4 -20
-9z"/>
<path d="M12258 7863 c7 -3 16 -2 19 1 4 3 -2 6 -13 5 -11 0 -14 -3 -6 -6z"/>
<path d="M12738 7863 c7 -3 16 -2 19 1 4 3 -2 6 -13 5 -11 0 -14 -3 -6 -6z"/>
<path d="M10316 7905 c-9 -14 -25 -25 -34 -24 -33 3 -42 -1 -42 -21 0 -20 10
-25 40 -20 8 1 24 -10 36 -26 15 -18 28 -25 39 -20 27 10 14 41 -18 42 -60 2
-59 46 0 48 21 1 28 6 28 21 0 30 -30 30 -49 0z m35 2 c-1 -12 -15 -9 -19 4
-3 6 1 10 8 8 6 -3 11 -8 11 -12z m-71 -47 c0 -5 -7 -10 -15 -10 -8 0 -15 5
-15 10 0 6 7 10 15 10 8 0 15 -4 15 -10z m77 -56 c-9 -9 -28 6 -21 18 4 6 10
6 17 -1 6 -6 8 -13 4 -17z"/>
<path d="M10742 7896 c-2 -33 -4 -37 -17 -26 -22 18 -19 -4 3 -24 18 -15 20
-15 35 2 21 23 22 39 3 23 -12 -10 -15 -6 -19 26 l-4 38 -1 -39z"/>
<path d="M10683 7825 c2 -30 2 -30 62 -30 60 0 60 0 62 30 1 20 0 23 -4 8 -4
-20 -10 -23 -58 -23 -48 0 -54 3 -58 23 -4 15 -5 12 -4 -8z"/>
<path d="M1612 7718 c-15 -15 -16 -60 0 -76 17 -17 43 -15 59 5 13 15 12 15
-7 3 -33 -20 -56 -6 -52 32 2 26 8 34 27 36 13 2 28 -2 33 -10 8 -10 9 -10 5
2 -5 19 -48 25 -65 8z"/>
<path d="M2043 7680 c0 -30 2 -43 4 -27 2 15 2 39 0 55 -2 15 -4 2 -4 -28z"/>
<path d="M2110 7680 c0 -46 2 -50 24 -50 28 0 56 24 56 46 0 32 -21 54 -50 54
-29 0 -30 -1 -30 -50z m66 15 c7 -29 -10 -55 -37 -55 -15 0 -19 8 -19 40 0 36
3 40 25 40 18 0 26 -7 31 -25z"/>
<path d="M2890 7680 c0 -29 3 -51 6 -48 7 8 8 88 0 95 -3 4 -6 -18 -6 -47z"/>
<path d="M2963 7680 c0 -30 2 -43 4 -27 2 15 2 39 0 55 -2 15 -4 2 -4 -28z"/>
<path d="M3070 7684 c0 -44 3 -50 22 -51 12 -1 28 3 35 9 14 12 18 44 5 52 -4
2 -8 -8 -7 -22 0 -20 -5 -27 -20 -27 -16 0 -20 7 -21 38 -2 57 -14 58 -14 1z"/>
<path d="M1870 7715 c-4 -20 2 -70 9 -77 4 -5 5 9 3 30 -4 42 -9 63 -12 47z"/>
<path d="M2319 7716 c-7 -7 2 -86 10 -86 4 0 5 17 3 38 -4 48 -6 54 -13 48z"/>
<path d="M2610 7686 c0 -20 2 -36 4 -36 8 0 12 61 4 66 -4 3 -8 -11 -8 -30z"/>
<path d="M1741 7693 c7 -10 15 -20 16 -22 2 -2 3 3 3 11 0 9 -7 19 -16 22 -15
6 -15 4 -3 -11z"/>
<path d="M1818 7698 c5 -7 12 -26 15 -43 4 -28 4 -28 6 6 1 26 -4 39 -15 43
-13 5 -14 3 -6 -6z"/>
<path d="M1996 7700 c16 -23 11 -54 -10 -58 -15 -3 -17 0 -12 14 6 15 4 16 -5
7 -16 -16 -2 -33 26 -31 20 2 25 8 25 29 0 15 -8 33 -17 40 -16 12 -17 12 -7
-1z"/>
<path d="M2728 7700 c20 -23 15 -60 -9 -60 -18 0 -21 5 -17 30 3 19 1 27 -5
21 -5 -5 -7 -19 -5 -32 5 -36 52 -34 56 2 2 16 -4 31 -15 39 -15 12 -16 12 -5
0z"/>
<path d="M2808 7698 c5 -7 12 -26 15 -43 4 -28 4 -28 6 6 1 26 -4 39 -15 43
-13 5 -14 3 -6 -6z"/>
<path d="M1704 7686 c-3 -8 -4 -23 -2 -33 3 -11 6 -6 9 15 6 34 2 42 -7 18z"/>
<path d="M1780 7665 c0 -19 2 -35 4 -35 2 0 6 16 8 35 2 19 0 35 -4 35 -4 0
-8 -16 -8 -35z"/>
<path d="M1910 7665 c0 -19 2 -35 4 -35 2 0 6 16 8 35 2 19 0 35 -4 35 -4 0
-8 -16 -8 -35z"/>
<path d="M2213 7665 c0 -22 2 -30 4 -17 2 12 2 30 0 40 -3 9 -5 -1 -4 -23z"/>
<path d="M2240 7688 c0 -9 9 -20 20 -23 27 -9 26 -29 -1 -22 -16 4 -19 3 -11
-5 6 -6 18 -8 26 -5 20 8 21 37 1 37 -7 0 -19 8 -24 18 -9 15 -10 16 -11 0z"/>
<path d="M2360 7665 c0 -19 2 -35 4 -35 2 0 6 16 8 35 2 19 0 35 -4 35 -4 0
-8 -16 -8 -35z"/>
<path d="M2413 7665 c0 -22 2 -30 4 -17 2 12 2 30 0 40 -3 9 -5 -1 -4 -23z"/>
<path d="M2450 7689 c0 -5 5 -7 10 -4 6 3 10 8 10 11 0 2 -4 4 -10 4 -5 0 -10
-5 -10 -11z"/>
<path d="M2497 7676 c6 -30 -23 -48 -39 -25 -8 12 -9 11 -5 -1 2 -8 13 -16 25
-18 16 -3 23 3 28 23 4 15 2 31 -3 36 -7 7 -9 2 -6 -15z"/>
<path d="M2533 7668 c2 -28 6 -33 30 -34 25 -1 27 2 26 35 -1 36 -1 36 -8 6
-9 -42 -38 -45 -45 -6 l-6 31 3 -32z"/>
<path d="M2663 7665 c0 -22 2 -30 4 -17 2 12 2 30 0 40 -3 9 -5 -1 -4 -23z"/>
<path d="M2770 7665 c0 -19 2 -35 4 -35 2 0 6 16 8 35 2 19 0 35 -4 35 -4 0
-8 -16 -8 -35z"/>
<path d="M2991 7680 c-1 -34 11 -49 37 -47 18 1 22 7 21 37 l-1 35 -7 -30 c-3
-17 -13 -30 -21 -30 -8 0 -18 13 -21 30 -6 27 -7 27 -8 5z"/>
<path d="M1735 7640 c-16 -7 -17 -9 -3 -9 9 -1 20 4 23 9 7 11 7 11 -20 0z"/>
<path d="M317 8302 c-29 -30 -36 -79 -15 -100 7 -7 33 -12 58 -12 54 0 70 13
70 54 0 33 -43 86 -70 86 -9 0 -28 -13 -43 -28z m70 -4 c15 -14 23 -33 23 -55
0 -40 -17 -44 -22 -5 -2 21 -8 27 -28 27 -20 0 -26 -6 -28 -27 -5 -39 -22 -35
-22 4 0 19 9 41 22 55 26 28 26 28 55 1z m-17 -68 c0 -11 -4 -20 -10 -20 -5 0
-10 9 -10 20 0 11 5 20 10 20 6 0 10 -9 10 -20z"/>
<path d="M330 7720 c0 -5 5 -10 10 -10 6 0 10 5 10 10 0 6 -4 10 -10 10 -5 0
-10 -4 -10 -10z"/>
<path d="M370 7720 c0 -5 5 -10 10 -10 6 0 10 5 10 10 0 6 -4 10 -10 10 -5 0
-10 -4 -10 -10z"/>
<path d="M330 7680 c0 -5 5 -10 10 -10 6 0 10 5 10 10 0 6 -4 10 -10 10 -5 0
-10 -4 -10 -10z"/>
<path d="M370 7680 c0 -5 5 -10 10 -10 6 0 10 5 10 10 0 6 -4 10 -10 10 -5 0
-10 -4 -10 -10z"/>
<path d="M320 7195 c-19 -23 -8 -50 20 -50 16 0 26 6 28 18 4 18 -14 47 -28
47 -4 0 -13 -7 -20 -15z m38 -22 c-2 -10 -10 -18 -18 -18 -8 0 -16 8 -18 18
-2 12 3 17 18 17 15 0 20 -5 18 -17z"/>
<path d="M390 7191 c13 -9 13 -14 2 -32 -11 -18 -11 -20 0 -17 18 6 17 50 -2
55 -13 4 -13 3 0 -6z"/>
<path d="M300 7115 c-6 -8 -10 -22 -7 -32 4 -14 5 -13 6 5 1 19 7 22 41 22 31
0 40 -4 41 -17 0 -12 2 -13 6 -5 14 35 -61 58 -87 27z"/>
<path d="M406 7113 c6 -4 14 -15 17 -23 5 -11 6 -9 4 4 -1 11 -9 21 -17 23
-10 3 -11 2 -4 -4z"/>
<path d="M2288 6689 c-21 -12 -24 -69 -6 -87 19 -19 45 -14 62 10 21 30 20 44
-4 68 -23 23 -28 24 -52 9z m47 -44 c0 -25 -4 -30 -25 -30 -16 0 -26 6 -28 18
-6 30 6 49 30 45 18 -2 23 -9 23 -33z"/>
<path d="M2589 6679 c-24 -24 -24 -51 -1 -72 23 -21 46 -22 62 -2 14 17 7 19
-20 5 -13 -7 -21 -6 -30 5 -18 22 -8 60 18 63 12 2 22 -1 22 -7 0 -6 4 -11 10
-11 17 0 -1 28 -21 33 -13 3 -28 -2 -40 -14z"/>
<path d="M3286 6687 c-18 -13 -13 -47 8 -47 6 0 18 -5 26 -10 22 -15 -7 -32
-32 -19 -12 6 -18 6 -18 0 0 -13 45 -25 59 -16 20 12 12 45 -14 55 -14 5 -25
15 -25 21 0 7 9 9 25 5 29 -8 33 -1 6 13 -13 7 -23 7 -35 -2z"/>
<path d="M5232 6692 c-7 -2 -18 -15 -23 -29 -18 -49 39 -97 70 -59 10 12 6 14
-21 13 -29 -2 -33 1 -36 26 -4 33 21 46 50 28 16 -10 19 -10 16 0 -5 15 -38
28 -56 21z"/>
<path d="M6247 6689 c-26 -15 -20 -39 13 -51 24 -8 28 -13 19 -24 -8 -10 -16
-11 -30 -3 -12 6 -19 6 -19 0 0 -16 20 -23 46 -17 35 9 31 41 -7 55 -36 12
-30 36 7 27 28 -7 31 -1 6 13 -11 6 -24 6 -35 0z"/>
<path d="M6981 6683 c-27 -18 -27 -55 -1 -78 17 -15 24 -16 46 -6 15 6 24 14
21 17 -3 3 -14 1 -25 -5 -15 -8 -23 -7 -32 4 -18 22 -8 60 18 63 12 2 22 -1
22 -7 0 -6 4 -11 10 -11 16 0 0 28 -20 33 -10 3 -28 -2 -39 -10z"/>
<path d="M7670 6680 c-24 -24 -25 -38 -4 -68 17 -25 46 -29 63 -8 10 12 6 14
-21 13 -29 -2 -33 1 -36 26 -4 33 21 46 50 28 16 -10 19 -10 16 0 -8 25 -47
30 -68 9z"/>
<path d="M7778 6689 c-21 -12 -24 -69 -6 -87 19 -19 45 -14 62 10 21 30 20 44
-4 68 -23 23 -28 24 -52 9z m47 -44 c0 -25 -4 -30 -25 -30 -16 0 -26 6 -28 18
-6 30 6 49 30 45 18 -2 23 -9 23 -33z"/>
<path d="M8242 6689 c-19 -7 -23 -15 -20 -45 4 -44 29 -65 56 -48 24 16 28 44
5 43 -10 0 -13 -3 -5 -6 17 -7 5 -23 -18 -23 -25 0 -33 15 -26 46 7 26 34 32
54 12 9 -9 12 -9 12 0 0 19 -33 30 -58 21z"/>
<path d="M10074 6685 c-18 -15 -18 -16 4 -34 12 -11 28 -22 35 -24 9 -4 8 -8
-3 -16 -10 -7 -18 -6 -27 1 -8 6 -17 8 -20 4 -11 -10 19 -27 42 -24 32 4 32
46 1 58 -34 13 -35 34 -1 26 29 -8 33 -1 6 13 -13 7 -23 6 -37 -4z"/>
<path d="M10780 6692 c-21 -7 -30 -23 -30 -52 0 -47 44 -67 71 -33 13 15 12
15 -7 5 -32 -17 -59 6 -50 41 7 29 33 36 54 15 9 -9 12 -9 12 0 0 15 -31 31
-50 24z"/>
<path d="M10872 6684 c-37 -25 -20 -94 23 -94 43 0 58 71 20 96 -18 12 -24 11
-43 -2z m46 -20 c21 -38 -14 -77 -43 -48 -18 19 -19 36 -3 52 17 17 35 15 46
-4z"/>
<path d="M11332 6684 c-37 -25 -19 -94 23 -94 15 0 45 27 45 41 0 5 -10 9 -22
9 -19 0 -20 -2 -8 -10 13 -9 13 -11 1 -19 -32 -21 -60 23 -36 56 12 15 17 16
34 5 12 -7 21 -8 21 -2 0 21 -36 29 -58 14z"/>
<path d="M2090 6640 c0 -32 4 -49 10 -45 6 3 10 12 10 20 0 7 10 15 23 17 16
2 22 10 22 28 0 21 -5 26 -32 28 l-33 3 0 -51z m55 20 c0 -8 -8 -16 -17 -18
-13 -2 -18 3 -18 18 0 15 5 20 18 18 9 -2 17 -10 17 -18z"/>
<path d="M2181 6638 c1 -29 4 -43 6 -30 6 28 26 28 45 1 13 -20 14 -18 13 27
0 48 -1 49 -32 52 l-33 3 1 -53z m53 33 c8 -12 -21 -34 -34 -26 -17 11 -11 35
9 35 11 0 22 -4 25 -9z"/>
<path d="M2370 6646 c0 -50 10 -61 45 -52 33 8 48 38 35 70 -8 21 -16 26 -45
26 -35 0 -35 0 -35 -44z m65 -1 c0 -23 -5 -31 -22 -33 -20 -3 -23 1 -23 33 0
32 3 36 23 33 17 -2 22 -10 22 -33z"/>
<path d="M2470 6657 c0 -48 20 -72 53 -63 25 6 27 10 25 54 -1 47 -1 47 -5 7
-7 -68 -53 -71 -53 -4 0 21 -4 39 -10 39 -5 0 -10 -15 -10 -33z"/>
<path d="M2683 6683 c12 -3 17 -15 17 -43 0 -21 5 -42 10 -45 6 -4 10 11 10
39 0 34 4 46 18 49 9 3 -3 5 -28 5 -25 0 -37 -2 -27 -5z"/>
<path d="M2800 6641 c0 -47 2 -51 23 -51 39 0 59 22 55 60 -3 32 -6 35 -40 38
l-38 3 0 -50z m66 15 c7 -31 -1 -46 -27 -46 -15 0 -19 7 -19 35 0 28 4 35 20
35 12 0 22 -9 26 -24z"/>
<path d="M2900 6640 c0 -49 1 -50 30 -50 17 0 30 5 30 10 0 6 -9 10 -20 10
-27 0 -25 28 3 33 l22 4 -22 2 c-13 0 -23 7 -23 15 0 8 10 17 23 19 16 3 13 5
-10 6 l-33 1 0 -50z"/>
<path d="M2993 6683 c13 -3 17 -15 17 -49 0 -28 4 -43 10 -39 6 3 10 24 10 45
0 28 5 40 18 43 9 3 -3 5 -28 5 -25 0 -37 -2 -27 -5z"/>
<path d="M3080 6665 c-5 -14 -12 -38 -16 -53 -4 -23 -3 -24 6 -9 6 9 20 17 30
17 10 0 24 -8 30 -17 9 -15 10 -14 6 9 -10 45 -25 78 -36 78 -6 0 -15 -11 -20
-25z m30 -20 c0 -8 -4 -15 -10 -15 -5 0 -10 7 -10 15 0 8 5 15 10 15 6 0 10
-7 10 -15z"/>
<path d="M3163 6640 c0 -30 2 -43 4 -27 2 15 2 39 0 55 -2 15 -4 2 -4 -28z"/>
<path d="M3202 6643 c-2 -50 -1 -53 23 -53 14 0 25 5 25 10 0 6 -9 10 -19 10
-16 0 -21 8 -24 43 -3 40 -4 40 -5 -10z"/>
<path d="M5314 6651 c1 -51 24 -74 54 -55 19 12 30 94 13 94 -6 0 -11 -18 -11
-39 0 -68 -44 -61 -53 9 -4 28 -4 27 -3 -9z"/>
<path d="M5410 6640 c0 -32 4 -49 10 -45 6 3 10 13 10 21 0 21 15 17 32 -7 13
-20 14 -18 13 27 0 48 -1 49 -32 52 l-33 3 0 -51z m56 29 c3 -6 0 -15 -7 -20
-22 -14 -29 -11 -29 11 0 21 24 27 36 9z"/>
<path d="M5501 6638 c1 -29 4 -43 6 -30 6 28 26 28 45 1 13 -20 14 -18 13 27
0 48 -1 49 -32 52 l-33 3 1 -53z m53 33 c8 -12 -21 -34 -34 -26 -17 11 -11 35
9 35 11 0 22 -4 25 -9z"/>
<path d="M5590 6640 c0 -49 1 -50 30 -50 17 0 30 5 30 10 0 6 -12 10 -26 10
-32 0 -27 22 7 31 24 7 24 7 -3 8 -17 1 -28 7 -28 15 0 8 12 17 28 19 25 4 25
4 -5 6 l-33 1 0 -50z"/>
<path d="M5670 6639 c0 -31 4 -48 10 -44 6 3 10 20 10 38 l0 32 25 -38 c14
-20 28 -37 30 -37 3 0 4 24 3 53 -1 45 -2 47 -5 13 l-4 -39 -25 37 c-14 20
-29 36 -34 36 -6 0 -10 -23 -10 -51z"/>
<path d="M5783 6683 c13 -3 17 -15 17 -49 0 -28 4 -43 10 -39 6 3 10 24 10 45
0 28 5 40 18 43 9 3 -3 5 -28 5 -25 0 -37 -2 -27 -5z"/>
<path d="M5904 6651 c1 -30 7 -47 19 -55 29 -19 52 4 54 55 l1 44 -7 -39 c-14
-68 -56 -67 -64 2 -4 32 -4 31 -3 -7z"/>
<path d="M6000 6639 c0 -31 4 -48 10 -44 6 3 10 20 10 38 l0 32 25 -38 c14
-20 28 -37 30 -37 3 0 4 24 3 53 -1 45 -2 47 -5 13 l-4 -39 -25 37 c-14 20
-29 36 -34 36 -6 0 -10 -23 -10 -51z"/>
<path d="M6100 6646 c0 -25 5 -48 10 -51 6 -4 10 13 10 44 0 28 -4 51 -10 51
-5 0 -10 -20 -10 -44z"/>
<path d="M6152 6683 c12 -3 18 -18 21 -51 l3 -47 2 47 c2 35 6 48 20 51 9 3
-1 5 -23 5 -22 0 -32 -2 -23 -5z"/>
<path d="M7072 6648 c-2 -43 0 -48 23 -54 15 -4 32 -1 40 6 17 14 21 90 5 90
-5 0 -10 -18 -10 -39 0 -69 -44 -61 -53 9 -3 30 -4 28 -5 -12z"/>
<path d="M7171 6638 c1 -29 4 -43 6 -30 5 28 24 28 41 1 7 -12 16 -18 19 -15
3 3 0 12 -7 21 -10 12 -10 18 0 30 19 23 4 45 -30 45 -30 0 -30 0 -29 -52z
m47 25 c-2 -10 -10 -18 -18 -18 -8 0 -16 8 -18 18 -2 12 3 17 18 17 15 0 20
-5 18 -17z"/>
<path d="M7261 6638 c1 -29 4 -43 6 -30 5 27 29 29 38 2 3 -11 11 -20 16 -20
6 0 5 8 -1 21 -9 15 -8 24 0 35 19 22 4 44 -30 44 -30 0 -30 0 -29 -52z m47
25 c-2 -10 -10 -18 -18 -18 -8 0 -16 8 -18 18 -2 12 3 17 18 17 15 0 20 -5 18
-17z"/>
<path d="M7350 6640 c0 -49 1 -50 30 -50 17 0 30 5 30 10 0 6 -11 10 -25 10
-34 0 -32 28 3 33 l27 4 -27 2 c-17 0 -28 7 -28 15 0 8 12 17 28 19 25 4 25 4
-5 6 l-33 1 0 -50z"/>
<path d="M7432 6638 c1 -47 2 -49 5 -13 l4 39 34 -39 34 -40 -1 55 c-1 34 -3
43 -5 23 -5 -41 -14 -41 -36 -3 -26 44 -37 37 -35 -22z"/>
<path d="M7542 6683 c12 -3 18 -18 21 -51 l3 -47 2 47 c2 35 6 48 20 51 9 3
-1 5 -23 5 -22 0 -32 -2 -23 -5z"/>
<path d="M7865 6668 c7 -36 23 -78 30 -78 5 0 45 85 45 96 0 2 -4 4 -10 4 -5
0 -10 -4 -10 -9 0 -5 -5 -22 -11 -38 l-11 -28 -19 40 c-15 30 -18 33 -14 13z"/>
<path d="M7960 6640 c0 -49 1 -50 30 -50 17 0 30 5 30 10 0 6 -11 10 -25 10
-34 0 -32 28 3 33 l27 4 -27 2 c-17 0 -28 7 -28 15 0 8 12 17 28 19 25 4 25 4
-5 6 l-33 1 0 -50z"/>
<path d="M8041 6638 c1 -29 4 -43 6 -30 5 28 29 29 43 1 7 -11 14 -18 17 -16
2 3 0 14 -6 25 -7 13 -7 22 1 30 18 18 1 42 -32 42 -30 0 -30 0 -29 -52z m47
25 c-2 -10 -10 -18 -18 -18 -8 0 -16 8 -18 18 -2 12 3 17 18 17 15 0 20 -5 18
-17z"/>
<path d="M8137 6643 c-9 -25 -15 -48 -12 -51 2 -3 7 3 11 12 8 20 54 22 54 1
0 -8 5 -15 11 -15 6 0 8 6 5 13 -2 6 -10 29 -17 50 -7 20 -17 37 -23 37 -7 0
-19 -21 -29 -47z m43 -5 c0 -5 -7 -8 -15 -8 -17 0 -18 2 -9 25 5 13 8 14 15 3
5 -7 9 -16 9 -20z"/>
<path d="M8320 6640 c0 -49 1 -50 30 -50 17 0 30 5 30 10 0 6 -9 10 -20 10
-27 0 -25 28 3 33 l22 4 -22 2 c-33 2 -29 29 5 34 22 3 20 4 -10 6 l-38 1 0
-50z"/>
<path d="M9170 6646 c0 -25 5 -48 10 -51 6 -3 10 3 10 14 0 26 15 27 33 1 12
-18 14 -15 15 30 l1 50 -35 0 c-34 0 -34 0 -34 -44z m55 14 c0 -8 -8 -16 -17
-18 -13 -2 -18 3 -18 18 0 15 5 20 18 18 9 -2 17 -10 17 -18z"/>
<path d="M9260 6640 c0 -49 1 -50 30 -50 17 0 30 5 30 10 0 6 -9 10 -20 10
-27 0 -25 28 3 33 l22 4 -22 2 c-33 2 -29 29 5 34 22 3 20 4 -10 6 l-38 1 0
-50z"/>
<path d="M9351 6638 c1 -29 4 -43 6 -30 3 13 12 22 22 22 24 0 43 23 35 44 -4
10 -18 16 -35 16 -28 0 -29 -1 -28 -52z m47 25 c-5 -26 -38 -29 -38 -4 0 15 6
21 21 21 14 0 19 -5 17 -17z"/>
<path d="M9430 6640 c0 -49 1 -50 30 -50 17 0 30 5 30 10 0 6 -9 10 -20 10
-17 0 -20 7 -20 40 0 22 -4 40 -10 40 -5 0 -10 -22 -10 -50z"/>
<path d="M9510 6640 c0 -49 1 -50 30 -50 17 0 30 5 30 10 0 6 -9 10 -20 10
-27 0 -25 28 3 33 l22 4 -22 2 c-13 0 -23 7 -23 15 0 8 10 17 23 19 16 3 13 5
-10 6 l-33 1 0 -50z"/>
<path d="M9590 6646 c0 -25 5 -48 10 -51 6 -4 10 9 10 31 l0 37 22 -29 c12
-16 25 -33 30 -38 4 -6 7 15 7 45 -1 47 -2 49 -8 19 l-6 -35 -23 33 c-31 43
-42 40 -42 -12z"/>
<path d="M9732 6649 c6 -82 72 -80 74 2 1 36 1 37 -3 9 -9 -70 -53 -77 -53 -9
0 21 -5 39 -11 39 -6 0 -9 -17 -7 -41z"/>
<path d="M9830 6646 c0 -55 18 -70 22 -19 l3 38 23 -38 c13 -20 28 -35 33 -31
12 7 12 94 -1 94 -5 0 -10 -15 -10 -32 l-1 -33 -27 33 c-15 18 -30 32 -34 32
-5 0 -8 -20 -8 -44z"/>
<path d="M9943 6640 c0 -30 2 -43 4 -27 2 15 2 39 0 55 -2 15 -4 2 -4 -28z"/>
<path d="M9982 6683 c12 -3 18 -18 21 -51 l3 -47 2 47 c2 40 5 47 25 51 12 2
2 4 -23 4 -25 1 -37 -1 -28 -4z"/>
<path d="M10950 6687 c0 -15 34 -97 40 -97 10 0 44 90 36 97 -5 5 -10 -5 -28
-57 -4 -10 -11 -3 -22 23 -14 31 -26 47 -26 34z"/>
<path d="M11050 6640 c0 -49 1 -50 30 -50 17 0 30 5 30 10 0 6 -12 10 -26 10
-32 0 -27 22 7 31 24 7 24 7 -3 8 -17 1 -28 7 -28 15 0 8 12 17 28 19 25 4 25
4 -5 6 l-33 1 0 -50z"/>
<path d="M11130 6641 c0 -28 5 -51 10 -51 6 0 10 9 10 20 0 26 14 25 32 -1 13
-20 14 -18 13 27 0 48 -1 49 -32 52 l-33 3 0 -50z m56 28 c3 -6 0 -15 -7 -20
-22 -14 -29 -11 -29 11 0 21 24 27 36 9z"/>
<path d="M11240 6665 c-5 -14 -12 -38 -16 -53 -4 -23 -3 -24 6 -9 14 22 46 22
54 1 4 -9 9 -14 12 -11 8 8 -27 97 -38 97 -4 0 -13 -11 -18 -25z m30 -21 c0
-8 -4 -14 -10 -14 -5 0 -10 9 -10 21 0 11 5 17 10 14 6 -3 10 -13 10 -21z"/>
<path d="M11420 6640 c0 -49 1 -50 30 -50 17 0 30 5 30 10 0 6 -11 10 -25 10
-34 0 -32 28 3 33 l27 4 -27 2 c-17 0 -28 7 -28 15 0 8 12 17 28 19 25 4 25 4
-5 6 l-33 1 0 -50z"/>
<path d="M11545 6644 c-9 -25 -14 -48 -11 -51 3 -3 8 2 12 11 8 21 40 21 53
-1 9 -16 10 -16 11 -2 0 23 -28 89 -39 89 -4 0 -16 -21 -26 -46z m33 -13 c-15
-5 -21 7 -13 26 7 17 8 17 15 -2 4 -11 3 -22 -2 -24z"/>
<path d="M11630 6639 c0 -31 4 -48 10 -44 6 3 10 15 10 25 0 11 9 20 23 23
l22 4 -22 2 c-13 0 -23 7 -23 15 0 8 10 17 23 19 16 3 13 5 -10 6 l-33 1 0
-51z"/>
<path d="M11722 6683 c12 -3 18 -18 21 -51 l3 -47 2 47 c2 35 6 48 20 51 9 3
-1 5 -23 5 -22 0 -32 -2 -23 -5z"/>
<path d="M11800 6640 c0 -49 1 -50 30 -50 17 0 30 5 30 10 0 6 -9 10 -20 10
-27 0 -25 28 3 33 l22 4 -22 2 c-13 0 -23 7 -23 15 0 8 10 17 23 19 16 3 13 5
-10 6 l-33 1 0 -50z"/>
<path d="M11880 6646 c0 -25 5 -48 10 -51 6 -3 10 3 10 14 0 28 24 27 37 -1 8
-18 10 -13 11 30 l1 52 -35 0 c-34 0 -34 0 -34 -44z m58 17 c-5 -26 -38 -29
-38 -4 0 15 6 21 21 21 14 0 19 -5 17 -17z"/>
<path d="M12011 6638 c1 -29 4 -43 6 -30 2 12 9 22 15 22 5 0 18 -10 29 -22
19 -24 26 -15 9 12 -5 9 -5 19 2 27 17 21 1 43 -32 43 -30 0 -30 0 -29 -52z
m47 25 c-2 -10 -10 -18 -18 -18 -8 0 -16 8 -18 18 -2 12 3 17 18 17 15 0 20
-5 18 -17z"/>
<path d="M12100 6640 c0 -49 1 -50 30 -50 17 0 30 5 30 10 0 6 -11 10 -25 10
-34 0 -32 28 3 33 l27 4 -27 2 c-17 0 -28 7 -28 15 0 8 12 17 28 19 25 4 25 4
-5 6 l-33 1 0 -50z"/>
<path d="M12181 6638 c0 -36 3 -47 8 -33 4 11 19 22 32 25 17 4 24 13 24 30 0
21 -6 26 -32 28 l-33 3 1 -53z m54 22 c0 -22 -39 -19 -43 3 -3 15 1 18 20 15
12 -2 23 -10 23 -18z"/>
<path d="M12272 6643 c-2 -53 -2 -53 28 -53 17 0 30 5 30 10 0 6 -11 10 -24
10 -22 0 -25 5 -29 43 -3 40 -4 40 -5 -10z"/>
<path d="M12350 6640 c0 -49 1 -50 30 -50 17 0 30 5 30 10 0 6 -11 10 -25 10
-34 0 -32 28 3 33 l27 4 -27 2 c-17 0 -28 7 -28 15 0 8 12 17 28 19 25 4 25 4
-5 6 l-33 1 0 -50z"/>
<path d="M12432 6638 c1 -47 2 -49 5 -13 l4 39 34 -39 34 -40 -1 55 c-1 34 -3
43 -5 23 -5 -41 -14 -41 -36 -3 -26 44 -37 37 -35 -22z"/>
<path d="M340 6642 c0 -4 -10 -12 -22 -17 -31 -14 -31 -76 0 -90 12 -5 22 -13
22 -17 0 -5 9 -8 20 -8 11 0 20 3 20 8 0 4 10 12 22 17 17 8 22 19 22 45 0 26
-5 37 -22 45 -12 5 -22 13 -22 17 0 5 -9 8 -20 8 -11 0 -20 -3 -20 -8z m34
-17 c3 -8 12 -15 19 -15 9 0 14 -11 14 -30 0 -18 -6 -30 -13 -30 -7 0 -18 -8
-24 -17 -10 -17 -10 -17 -20 0 -6 9 -17 17 -24 17 -7 0 -13 12 -13 30 0 19 5
30 14 30 7 0 16 7 19 15 4 8 10 15 14 15 4 0 10 -7 14 -15z"/>
<path d="M340 6594 c-11 -12 -10 -18 3 -32 16 -15 18 -15 34 0 13 14 14 20 3
32 -7 9 -16 16 -20 16 -4 0 -13 -7 -20 -16z m30 -14 c0 -5 -4 -10 -10 -10 -5
0 -10 5 -10 10 0 6 5 10 10 10 6 0 10 -4 10 -10z"/>
<path d="M2154 6315 c35 -19 37 -19 30 0 -4 8 -18 15 -33 15 l-26 0 29 -15z"/>
<path d="M2217 6324 c-4 -4 -7 -22 -7 -41 0 -18 -4 -33 -10 -33 -5 0 -10 9
-10 20 0 29 -26 25 -72 -12 -38 -30 -40 -33 -34 -77 3 -25 8 -74 12 -108 6
-60 7 -63 30 -57 20 5 26 1 38 -27 8 -19 16 -32 18 -30 6 8 78 -10 78 -19 0
-24 -51 -21 -94 4 -54 31 -56 31 -49 6 7 -25 -5 -26 -23 -2 -12 15 -13 12 -14
-24 0 -22 5 -45 12 -52 15 -15 54 -16 63 -2 3 6 12 10 18 10 7 0 6 -4 -3 -10
-12 -8 -9 -10 13 -10 15 0 27 5 27 11 0 6 9 8 22 3 20 -6 21 -5 9 10 -7 9 -10
16 -5 16 17 0 74 -24 74 -32 0 -13 224 -10 238 4 16 16 16 82 0 72 -8 -5 -9
-2 -3 12 21 51 18 75 -16 111 l-34 36 33 -6 c28 -6 32 -4 32 16 -1 25 -60 69
-152 112 -31 15 -62 33 -69 41 -6 8 -15 11 -20 9 -4 -3 -16 9 -26 27 -14 28
-18 30 -21 13 -3 -12 7 -29 28 -48 32 -28 34 -51 2 -31 -16 11 -48 60 -50 79
-1 12 -25 18 -35 9z m33 -49 c0 -8 -4 -15 -10 -15 -5 0 -7 7 -4 15 4 8 8 15
10 15 2 0 4 -7 4 -15z m-84 -93 c-11 -10 -15 4 -8 28 l7 25 3 -23 c2 -13 1
-26 -2 -30z m196 -54 c-4 -18 -2 -20 16 -16 12 4 20 2 16 -3 -3 -5 2 -9 11 -9
9 0 14 -3 12 -7 -3 -5 8 -9 24 -10 32 -2 66 -24 92 -59 16 -22 16 -25 -4 -59
-25 -41 -46 -55 -87 -55 -41 0 -89 18 -149 56 -29 18 -74 44 -100 58 -64 32
-86 57 -78 88 l6 25 32 -29 c31 -29 147 -107 197 -133 14 -7 51 -18 82 -25 46
-11 60 -11 73 0 18 15 20 31 2 24 -22 -8 -67 14 -67 34 0 9 -9 25 -20 35 -23
20 -34 22 -24 5 4 -7 3 -8 -5 -4 -6 4 -9 11 -6 15 2 5 -4 19 -15 31 -11 13
-20 27 -20 32 0 5 -4 6 -10 3 -5 -3 -10 1 -10 9 0 9 -9 21 -19 28 -15 9 -17
15 -9 25 16 20 68 -31 60 -59z"/>
<path d="M2302 6318 c3 -7 12 -13 20 -13 8 0 30 -12 49 -27 35 -29 39 -31 79
-29 31 2 96 -24 103 -41 3 -7 6 9 6 35 2 85 -2 87 -140 87 -92 0 -120 -3 -117
-12z"/>
<path d="M9335 6230 c-3 -5 1 -10 9 -10 9 0 16 -12 19 -32 3 -29 4 -27 5 10 2
31 -2 42 -12 42 -8 0 -18 -4 -21 -10z"/>
<path d="M9394 6229 c-4 -8 0 -9 15 -4 28 9 28 -12 -1 -42 l-21 -23 34 1 c19
1 26 3 16 6 -17 4 -17 6 -2 29 9 14 13 29 10 34 -8 13 -42 13 -51 -1z"/>
<path d="M9919 6228 c-3 -32 3 -74 12 -83 6 -6 7 3 3 24 -4 19 -3 36 3 40 7 4
6 11 -3 19 -11 10 -14 10 -15 0z"/>
<path d="M2706 6214 c-9 -8 -16 -26 -16 -39 0 -21 23 -55 36 -55 13 0 44 22
44 31 0 6 -7 3 -16 -5 -21 -21 -54 -4 -54 28 0 35 23 50 52 35 21 -11 22 -11
9 4 -17 21 -35 22 -55 1z"/>
<path d="M2793 6180 c0 -30 2 -43 4 -27 2 15 2 39 0 55 -2 15 -4 2 -4 -28z"/>
<path d="M3229 6189 l-12 -44 -13 40 -13 40 5 -40 c10 -68 28 -76 39 -17 l8
37 12 -35 c6 -19 15 -35 20 -35 4 0 13 19 20 43 7 23 9 42 5 42 -4 0 -11 -17
-15 -37 l-8 -38 -11 37 c-16 54 -23 55 -37 7z"/>
<path d="M3322 6180 c0 -41 2 -47 7 -25 9 43 38 45 44 3 l5 -33 -2 35 c-1 28
-5 35 -21 35 -11 0 -23 9 -27 20 -3 11 -6 -4 -6 -35z"/>
<path d="M3610 6215 c-10 -12 -10 -18 0 -30 7 -8 18 -15 26 -15 19 0 29 -21
13 -30 -7 -5 -22 -4 -33 2 -20 10 -20 10 -3 -8 13 -15 21 -16 35 -8 30 19 27
43 -7 55 -17 6 -31 15 -31 20 0 17 30 22 48 8 15 -13 16 -12 3 4 -17 21 -35
22 -51 2z"/>
<path d="M5223 6223 c-7 -2 -13 -9 -13 -15 0 -6 6 -6 15 2 14 12 35 6 35 -10
0 -5 -12 -22 -26 -39 l-26 -31 34 1 c23 1 26 3 11 6 l-23 4 22 29 c17 24 19
32 8 45 -13 16 -17 17 -37 8z"/>
<path d="M5328 6225 c-4 -4 -4 -20 -1 -36 4 -24 2 -29 -13 -29 -14 0 -15 3 -6
12 7 7 12 17 12 23 -1 11 -30 -25 -30 -37 0 -4 9 -8 20 -8 11 0 20 -5 20 -11
0 -8 5 -7 15 1 9 8 12 16 6 19 -5 3 -11 21 -13 40 -2 18 -6 30 -10 26z"/>
<path d="M5387 6223 c-15 -15 -6 -43 13 -43 11 0 23 -7 27 -16 8 -20 -17 -36
-34 -22 -9 7 -13 7 -13 0 0 -16 31 -23 47 -11 21 18 12 53 -14 57 -13 2 -23 8
-23 13 0 5 10 14 23 19 21 8 21 9 1 9 -11 1 -24 -2 -27 -6z"/>
<path d="M3439 6208 c-3 -32 3 -74 12 -83 6 -6 7 3 3 24 -4 19 -3 36 3 40 7 4
6 11 -3 19 -11 10 -14 10 -15 0z"/>
<path d="M3933 6175 c-1 -27 1 -42 4 -32 5 18 5 18 25 0 21 -18 21 -18 9 5
-10 19 -10 27 1 40 10 14 8 13 -9 -1 -21 -19 -22 -18 -26 10 -2 15 -4 6 -4
-22z"/>
<path d="M5690 6205 c-8 -10 -9 -15 -1 -15 6 0 11 -13 11 -29 0 -17 4 -32 8
-35 8 -5 7 82 -1 90 -2 3 -10 -2 -17 -11z"/>
<path d="M9722 6195 c-2 -37 12 -55 39 -48 15 4 19 13 17 42 l-1 36 -4 -32
c-3 -24 -9 -33 -23 -33 -14 0 -20 9 -23 33 l-4 32 -1 -30z"/>
<path d="M9801 6183 c1 -36 2 -37 8 -8 8 40 38 46 44 8 4 -28 4 -28 3 2 -1 25
-6 31 -28 33 -26 3 -28 1 -27 -35z"/>
<path d="M9883 6185 c0 -22 2 -30 4 -17 2 12 2 30 0 40 -3 9 -5 -1 -4 -23z"/>
<path d="M9965 6210 c-8 -14 3 -30 21 -30 8 0 14 -7 14 -16 0 -11 -6 -14 -22
-9 -20 5 -21 5 -5 -5 24 -16 53 6 36 26 -6 8 -18 14 -25 14 -8 0 -14 5 -14 11
0 6 9 9 20 6 11 -3 20 -1 20 4 0 12 -37 11 -45 -1z"/>
<path d="M2826 6192 c-3 -5 6 -7 19 -4 14 2 25 0 25 -6 0 -6 -10 -12 -22 -14
-26 -3 -32 -38 -8 -46 12 -4 13 -3 3 10 -14 16 -8 28 15 28 8 0 12 -6 8 -15
-3 -8 -1 -15 5 -15 6 0 9 15 7 33 -2 24 -8 33 -25 35 -11 2 -24 -1 -27 -6z"/>
<path d="M2905 6190 c-8 -14 3 -30 21 -30 8 0 14 -7 14 -16 0 -11 -6 -14 -22
-9 -19 6 -21 5 -10 -6 9 -9 17 -11 28 -4 22 14 20 28 -5 40 -27 12 -28 29 -1
22 11 -3 20 -1 20 4 0 12 -37 11 -45 -1z"/>
<path d="M2977 6193 c-13 -12 -7 -24 19 -33 30 -12 22 -33 -9 -25 -20 5 -20 5
-4 -5 14 -9 22 -8 34 1 13 12 12 16 -13 37 -26 22 -27 24 -6 19 12 -3 22 -1
22 4 0 10 -33 12 -43 2z"/>
<path d="M3043 6165 c0 -22 2 -30 4 -17 2 12 2 30 0 40 -3 9 -5 -1 -4 -23z"/>
<path d="M3080 6185 c-24 -29 18 -82 44 -54 8 9 7 10 -6 6 -21 -7 -42 17 -34
39 4 10 13 14 26 11 11 -3 20 -1 20 4 0 14 -36 10 -50 -6z"/>
<path d="M3403 6165 c0 -22 2 -30 4 -17 2 12 2 30 0 40 -3 9 -5 -1 -4 -23z"/>
<path d="M3484 6186 c-15 -38 23 -83 48 -57 11 10 10 12 -2 11 -26 -4 -40 0
-40 10 0 6 14 10 30 10 32 0 37 9 18 28 -16 16 -47 15 -54 -2z m46 -6 c0 -5
-9 -10 -21 -10 -11 0 -17 5 -14 10 3 6 13 10 21 10 8 0 14 -4 14 -10z"/>
<path d="M3693 6165 c0 -22 2 -30 4 -17 2 12 2 30 0 40 -3 9 -5 -1 -4 -23z"/>
<path d="M3722 6188 c9 -7 19 -24 21 -38 3 -16 5 -13 4 10 -2 26 -7 36 -22 38
-18 4 -19 3 -3 -10z"/>
<path d="M3777 6194 c-12 -12 -8 -51 7 -64 11 -8 20 -9 33 -1 16 10 15 10 -6
8 -13 -1 -26 4 -28 11 -3 7 5 12 22 12 20 0 26 4 23 18 -3 17 -38 29 -51 16z
m38 -14 c3 -5 -3 -10 -14 -10 -12 0 -21 5 -21 10 0 6 6 10 14 10 8 0 18 -4 21
-10z"/>
<path d="M3856 6191 c-4 -5 3 -7 14 -4 11 3 20 1 20 -5 0 -5 -9 -12 -20 -15
-20 -5 -27 -31 -12 -41 5 -3 18 -2 30 1 22 5 28 27 16 57 -7 17 -39 22 -48 7z
m32 -42 c-2 -6 -8 -10 -13 -10 -5 0 -11 4 -13 10 -2 6 4 11 13 11 9 0 15 -5
13 -11z"/>
<path d="M4001 6181 c-20 -36 13 -72 47 -51 14 8 13 9 -7 7 -13 -1 -26 4 -28
11 -3 7 5 12 22 12 20 0 26 4 23 18 -5 25 -44 28 -57 3z m44 -1 c3 -5 -3 -10
-14 -10 -12 0 -21 5 -21 10 0 6 6 10 14 10 8 0 18 -4 21 -10z"/>
<path d="M4082 6163 c1 -37 1 -37 5 -6 3 19 11 34 21 36 12 3 10 5 -5 6 -20 1
-23 -3 -21 -36z"/>
<path d="M4134 6189 c-4 -7 3 -19 15 -28 24 -18 19 -33 -7 -24 -13 4 -14 3 -6
-6 13 -15 44 -4 44 16 0 8 -9 17 -20 20 -11 3 -20 10 -20 15 0 6 9 8 20 5 11
-3 18 -1 14 4 -7 13 -31 11 -40 -2z"/>
<path d="M5501 6168 c-1 -38 10 -48 42 -40 13 3 17 14 16 41 -2 29 -3 31 -6 9
-2 -14 -11 -32 -18 -38 -16 -13 -20 -7 -28 40 -3 18 -5 15 -6 -12z"/>
<path d="M5582 6163 c1 -38 1 -38 5 -5 5 42 35 40 45 -3 6 -29 6 -29 5 5 -2
30 -6 35 -29 38 -26 3 -28 1 -26 -35z"/>
<path d="M5663 6165 c0 -22 2 -30 4 -17 2 12 2 30 0 40 -3 9 -5 -1 -4 -23z"/>
<path d="M5740 6185 c0 -8 9 -19 20 -25 24 -13 17 -32 -8 -23 -13 4 -14 3 -6
-6 13 -15 44 -4 44 16 0 8 -9 17 -20 20 -11 3 -20 10 -20 15 0 6 9 8 20 5 11
-3 18 -1 14 4 -9 15 -44 10 -44 -6z"/>
<path d="M6977 6143 c-4 -3 -7 -11 -7 -17 0 -6 5 -5 12 2 7 7 16 12 20 12 12
0 10 -38 -2 -45 -5 -3 -15 -15 -20 -26 -10 -17 -7 -19 22 -18 23 1 26 3 11 6
l-23 4 22 29 c17 24 19 32 8 45 -13 16 -32 20 -43 8z"/>
<path d="M7054 6135 c-8 -19 5 -38 22 -31 18 7 18 1 -2 -32 l-16 -27 20 24
c11 14 27 38 37 55 l17 31 -20 -24 c-19 -23 -19 -23 -25 -2 -6 24 -25 28 -33
6z m26 -16 c0 -5 -4 -9 -10 -9 -5 0 -10 7 -10 16 0 8 5 12 10 9 6 -3 10 -10
10 -16z"/>
<path d="M7201 6104 c-1 -44 2 -52 19 -57 22 -6 50 16 50 37 0 19 -27 39 -44
33 -10 -4 -16 2 -19 16 -2 12 -5 -1 -6 -29z m52 -6 c7 -20 -12 -48 -28 -42
-15 6 -20 35 -8 47 11 11 31 8 36 -5z"/>
<path d="M7363 6095 c0 -27 2 -38 4 -22 2 15 2 37 0 50 -2 12 -4 0 -4 -28z"/>
<path d="M7629 6128 c-3 -32 3 -74 12 -83 6 -6 7 3 3 24 -4 19 -3 36 3 40 7 4
6 11 -3 19 -11 10 -14 10 -15 0z"/>
<path d="M7969 6128 c-3 -32 3 -74 12 -83 6 -6 7 3 3 24 -4 19 -3 36 3 40 7 4
6 11 -3 19 -11 10 -14 10 -15 0z"/>
<path d="M10993 6095 c0 -27 2 -38 4 -22 2 15 2 37 0 50 -2 12 -4 0 -4 -28z"/>
<path d="M11153 6095 c0 -27 2 -38 4 -22 2 15 2 37 0 50 -2 12 -4 0 -4 -28z"/>
<path d="M11418 6128 c-2 -7 -1 -29 2 -48 l6 -35 5 38 c5 38 -4 71 -13 45z"/>
<path d="M11758 6128 c-2 -7 -1 -29 2 -48 l6 -35 5 38 c5 38 -4 71 -13 45z"/>
<path d="M7284 6095 c-10 -40 32 -75 52 -43 5 7 2 9 -9 5 -8 -3 -21 1 -27 9
-10 12 -7 14 19 14 33 0 39 8 19 28 -20 20 -47 14 -54 -13z m46 5 c0 -5 -9
-10 -21 -10 -11 0 -17 5 -14 10 3 6 13 10 21 10 8 0 14 -4 14 -10z"/>
<path d="M7400 6105 c-6 -8 -9 -23 -5 -34 15 -48 74 -26 61 23 -7 29 -36 35
-56 11z m46 -10 c4 -8 0 -22 -7 -31 -11 -13 -14 -13 -27 0 -17 17 -9 46 13 46
9 0 18 -7 21 -15z"/>
<path d="M7470 6117 c0 -2 5 -18 11 -36 12 -35 29 -41 29 -11 0 27 16 25 24
-2 7 -28 21 -15 29 27 l6 30 -14 -30 -13 -30 -7 28 c-4 15 -10 27 -14 27 -4 0
-12 -12 -18 -27 -10 -25 -11 -26 -12 -6 -1 12 -5 25 -11 28 -5 3 -10 4 -10 2z"/>
<path d="M7680 6112 c0 -6 9 -8 20 -5 11 3 20 1 20 -5 0 -6 -10 -12 -22 -14
-27 -4 -36 -33 -13 -41 28 -12 46 4 43 37 -2 23 -8 32 -25 34 -13 2 -23 -1
-23 -6z m40 -41 c0 -14 -18 -23 -30 -16 -6 4 -8 11 -5 16 8 12 35 12 35 0z"/>
<path d="M7751 6083 c1 -27 3 -31 6 -13 2 14 12 31 21 38 14 11 13 12 -6 12
-19 0 -22 -5 -21 -37z"/>
<path d="M7804 6106 c-10 -26 1 -51 24 -54 31 -5 28 -20 -5 -25 -26 -4 -26 -4
5 -6 l32 -1 0 50 c0 47 -2 50 -25 50 -14 0 -28 -6 -31 -14z m46 -21 c0 -18 -5
-25 -20 -25 -15 0 -20 7 -20 25 0 18 5 25 20 25 15 0 20 -7 20 -25z"/>
<path d="M7884 6095 c-10 -40 32 -75 52 -43 5 7 2 9 -9 5 -8 -3 -21 1 -27 9
-10 12 -7 14 19 14 33 0 39 8 19 28 -20 20 -47 14 -54 -13z m46 5 c0 -5 -9
-10 -21 -10 -11 0 -17 5 -14 10 3 6 13 10 21 10 8 0 14 -4 14 -10z"/>
<path d="M10752 6095 c0 -16 2 -22 5 -12 2 9 2 23 0 30 -3 6 -5 -1 -5 -18z"/>
<path d="M11010 6116 c0 -2 9 -6 20 -9 11 -3 18 -1 14 4 -5 9 -34 13 -34 5z"/>
<path d="M11090 6116 c0 -2 9 -6 20 -9 11 -3 18 -1 14 4 -5 9 -34 13 -34 5z"/>
<path d="M11192 6108 c-7 -7 -12 -19 -11 -27 0 -10 4 -6 10 8 7 17 15 22 29
18 11 -3 18 -1 14 4 -7 13 -28 11 -42 -3z"/>
<path d="M11300 6110 c0 -5 5 -10 11 -10 5 0 7 5 4 10 -3 6 -8 10 -11 10 -2 0
-4 -4 -4 -10z"/>
<path d="M11543 6085 c0 -22 2 -30 4 -17 2 12 2 30 0 40 -3 9 -5 -1 -4 -23z"/>
<path d="M11596 6111 c-4 -5 3 -7 14 -4 23 6 26 13 6 13 -8 0 -17 -4 -20 -9z"/>
<path d="M11640 6073 c-3 -29 -1 -48 3 -44 5 5 7 28 5 52 l-3 44 -5 -52z"/>
<path d="M11690 6116 c0 -2 9 -6 20 -9 11 -3 18 -1 14 4 -5 9 -34 13 -34 5z"/>
<path d="M11070 6079 c0 -10 4 -21 10 -24 5 -3 7 0 4 9 -4 10 3 16 23 18 l28
3 -32 6 c-27 5 -33 2 -33 -12z"/>
<path d="M11495 6090 c-16 -7 -17 -9 -3 -9 9 -1 19 -9 21 -18 3 -11 5 -7 6 10
0 15 0 27 -1 26 -2 0 -12 -4 -23 -9z"/>
<path d="M11670 6079 c0 -10 4 -21 10 -24 5 -3 7 0 4 9 -4 10 3 16 23 18 l28
3 -32 6 c-27 5 -33 2 -33 -12z"/>
<path d="M7103 6074 c-8 -21 13 -42 28 -27 13 13 5 43 -11 43 -6 0 -13 -7 -17
-16z m27 -3 c0 -6 -4 -13 -10 -16 -5 -3 -10 1 -10 9 0 9 5 16 10 16 6 0 10 -4
10 -9z"/>
<path d="M10895 6080 c-3 -6 1 -7 9 -4 18 7 21 14 7 14 -6 0 -13 -4 -16 -10z"/>
<path d="M11461 6064 c0 -11 3 -14 6 -6 3 7 2 16 -1 19 -3 4 -6 -2 -5 -13z"/>
<path d="M2695 6029 c-4 -6 -5 -12 -2 -15 2 -3 7 2 10 11 7 17 1 20 -8 4z"/>
<path d="M5492 5990 c0 -19 2 -27 5 -17 2 9 2 25 0 35 -3 9 -5 1 -5 -18z"/>
<path d="M9193 5970 c0 -25 2 -35 4 -22 2 12 2 32 0 45 -2 12 -4 2 -4 -23z"/>
<path d="M9266 5997 c3 -10 9 -15 12 -12 3 3 0 11 -7 18 -10 9 -11 8 -5 -6z"/>
<path d="M9506 5993 c-6 -14 -5 -15 5 -6 7 7 10 15 7 18 -3 3 -9 -2 -12 -12z"/>
<path d="M9642 5960 c0 -19 2 -27 5 -17 2 9 2 25 0 35 -3 9 -5 1 -5 -18z"/>
<path d="M9871 5954 c0 -11 3 -14 6 -6 3 7 2 16 -1 19 -3 4 -6 -2 -5 -13z"/>
<path d="M2092 5628 c-17 -17 -17 -429 0 -446 17 -17 439 -17 456 0 16 16 16
130 0 147 -10 11 -10 13 0 7 17 -10 18 274 0 292 -9 9 -73 12 -228 12 -155 0
-219 -3 -228 -12z m346 -95 c-10 -2 -28 -2 -40 0 -13 2 -5 4 17 4 22 1 32 -1
23 -4z m-95 -10 c-7 -2 -21 -2 -30 0 -10 3 -4 5 12 5 17 0 24 -2 18 -5z m-66
-9 c-3 -3 -12 -4 -19 -1 -8 3 -5 6 6 6 11 1 17 -2 13 -5z m198 -18 c-1 -12 -6
-19 -11 -16 -5 2 -8 10 -6 17 1 7 -11 14 -30 16 -28 4 -27 4 8 4 34 -1 40 -4
39 -21z m-325 -5 c0 -6 -4 -13 -10 -16 -5 -3 -10 1 -10 9 0 9 5 16 10 16 6 0
10 -4 10 -9z m46 -28 c-11 -11 -19 6 -11 24 8 17 8 17 12 0 3 -10 2 -21 -1
-24z m173 1 c-13 -16 -11 -17 12 -11 19 5 31 2 40 -10 12 -14 12 -16 0 -8 -11
6 -13 4 -8 -8 5 -13 0 -17 -21 -17 -16 0 -22 -3 -15 -8 8 -5 3 -11 -13 -19
-18 -8 -22 -8 -17 0 12 19 12 38 2 61 -8 18 -9 17 -4 -7 4 -19 2 -26 -5 -22
-19 12 -11 55 13 64 28 11 34 6 16 -15z m62 9 c13 -16 12 -17 -3 -4 -10 7 -18
15 -18 17 0 8 8 3 21 -13z m-191 -13 c0 -5 -4 -10 -10 -10 -5 0 -10 5 -10 10
0 6 5 10 10 10 6 0 10 -4 10 -10z m68 -15 c-10 -23 -28 -34 -28 -18 0 7 31 43
36 43 2 0 -2 -11 -8 -25z m12 -29 c0 -2 -8 -10 -17 -17 -16 -13 -17 -12 -4 4
13 16 21 21 21 13z m5 -36 c-10 -11 -20 -18 -23 -15 -7 6 18 35 31 35 5 0 2
-9 -8 -20z m209 -29 c-6 -6 -11 1 -18 29 l-7 25 15 -25 c8 -14 12 -27 10 -29z
m-154 25 c0 -2 -8 -10 -17 -17 -16 -13 -17 -12 -4 4 13 16 21 21 21 13z"/>
<path d="M2390 5441 c0 -7 -5 -9 -12 -5 -7 5 -8 3 -3 -5 5 -9 10 -10 18 -2 6
6 8 14 4 18 -4 3 -7 1 -7 -6z"/>
<path d="M3234 5515 c-29 -44 12 -99 57 -75 11 7 18 14 16 17 -3 2 -14 0 -25
-6 -25 -13 -42 3 -42 40 0 29 26 47 44 29 16 -16 30 -12 16 5 -19 22 -47 18
-66 -10z"/>
<path d="M3601 5494 c-1 -46 2 -52 21 -58 32 -8 52 15 44 49 -6 22 -11 26 -31
23 -18 -4 -25 0 -28 16 -2 12 -5 -2 -6 -30z m55 -9 c4 -8 0 -22 -7 -31 -11
-13 -14 -13 -27 0 -17 17 -9 46 13 46 9 0 18 -7 21 -15z"/>
<path d="M3820 5521 c0 -14 -5 -18 -19 -14 -39 10 -51 -57 -13 -72 14 -5 15
-4 5 6 -20 20 -17 61 5 57 11 -2 17 -13 17 -31 -1 -15 3 -27 7 -27 4 0 8 23 8
50 0 28 -2 50 -5 50 -3 0 -5 -9 -5 -19z"/>
<path d="M3970 5491 c0 -50 1 -51 30 -51 36 0 42 12 32 60 -6 28 -13 36 -35
38 -26 3 -27 2 -27 -47z m45 19 c0 -8 -8 -16 -17 -18 -13 -2 -18 3 -18 18 0
15 5 20 18 18 9 -2 17 -10 17 -18z m13 -47 c2 -8 -6 -13 -22 -13 -17 0 -26 5
-26 16 0 19 41 16 48 -3z"/>
<path d="M5223 5533 c-7 -2 -13 -9 -13 -14 0 -6 4 -8 9 -4 6 3 12 -14 14 -37
3 -41 4 -41 5 10 1 28 1 52 0 51 -2 0 -9 -3 -15 -6z"/>
<path d="M5280 5531 c0 -5 -3 -16 -6 -25 -5 -12 0 -16 20 -16 19 0 26 -5 26
-18 0 -27 -10 -33 -34 -20 -19 9 -20 9 -5 -6 21 -22 49 -10 49 21 0 16 -7 27
-20 30 -27 7 -25 31 3 36 19 4 18 4 -5 6 -16 0 -28 -3 -28 -8z"/>
<path d="M5366 5524 c-21 -20 -20 -58 0 -79 18 -18 33 -16 47 7 14 22 1 48
-23 48 -21 0 -27 15 -10 25 6 4 17 1 25 -5 9 -7 15 -8 15 -2 0 5 -7 13 -16 16
-21 8 -20 8 -38 -10z m41 -50 c6 -16 -15 -37 -29 -28 -4 3 -8 14 -8 25 0 23
28 26 37 3z"/>
<path d="M2692 5488 l-2 -48 33 1 c29 2 29 2 5 6 -24 4 -27 10 -31 46 l-4 42
-1 -47z"/>
<path d="M2928 5519 c-6 -18 3 -79 12 -79 4 0 5 12 2 26 -2 14 0 29 6 33 6 4
5 10 -3 18 -9 9 -15 9 -17 2z"/>
<path d="M2982 5485 c1 -37 2 -41 5 -17 5 42 35 40 45 -3 6 -29 6 -29 5 5 -2
26 -7 36 -22 39 -11 2 -23 8 -27 15 -4 6 -7 -11 -6 -39z"/>
<path d="M5670 5515 c-8 -10 -9 -15 -1 -15 6 0 11 -13 11 -29 0 -17 4 -32 8
-35 8 -5 7 82 -1 90 -2 3 -10 -2 -17 -11z"/>
<path d="M2777 5504 c-4 -4 -7 -20 -7 -35 0 -30 23 -44 48 -29 14 8 13 9 -7 7
-13 -1 -26 4 -28 11 -3 7 5 12 22 12 20 0 26 4 23 18 -3 17 -38 29 -51 16z
m38 -14 c3 -5 -3 -10 -14 -10 -12 0 -21 5 -21 10 0 6 6 10 14 10 8 0 18 -4 21
-10z"/>
<path d="M2856 5501 c-4 -5 3 -7 14 -4 11 3 20 1 20 -5 0 -5 -9 -12 -20 -15
-20 -5 -27 -31 -11 -41 21 -13 41 7 41 40 0 27 -4 34 -19 34 -11 0 -22 -4 -25
-9z m32 -43 c-6 -18 -28 -21 -28 -4 0 9 7 16 16 16 9 0 14 -5 12 -12z"/>
<path d="M3061 5491 c-20 -36 13 -72 47 -51 14 8 13 9 -7 7 -13 -1 -26 4 -28
11 -3 7 5 12 22 12 20 0 26 4 23 18 -5 25 -44 28 -57 3z m44 -1 c3 -5 -3 -10
-14 -10 -12 0 -21 5 -21 10 0 6 6 10 14 10 8 0 18 -4 21 -10z"/>
<path d="M3142 5473 c1 -37 1 -37 5 -6 3 19 11 34 21 36 12 3 10 5 -5 6 -20 1
-23 -3 -21 -36z"/>
<path d="M3331 5473 c2 -35 2 -35 6 -8 3 16 10 33 16 37 8 5 6 8 -5 8 -14 0
-18 -8 -17 -37z"/>
<path d="M3382 5498 c-19 -19 -14 -46 9 -59 30 -15 54 9 45 45 -7 28 -33 35
-54 14z m44 -13 c4 -8 0 -22 -7 -31 -11 -13 -14 -13 -27 0 -17 17 -9 46 13 46
9 0 18 -7 21 -15z"/>
<path d="M3460 5491 c0 -11 9 -21 21 -24 12 -3 18 -10 14 -17 -4 -6 -14 -9
-24 -5 -11 4 -13 3 -5 -5 14 -14 44 -2 44 17 0 8 -9 17 -20 20 -11 3 -20 10
-20 15 0 6 9 8 20 5 11 -3 18 -1 14 4 -10 17 -44 10 -44 -10z"/>
<path d="M3534 5499 c-4 -7 3 -19 15 -28 24 -18 19 -33 -7 -24 -13 4 -14 3 -6
-6 13 -15 44 -4 44 16 0 8 -9 17 -20 20 -11 3 -20 10 -20 15 0 6 9 8 20 5 11
-3 18 -1 14 4 -7 13 -31 11 -40 -2z"/>
<path d="M3690 5495 c-6 -8 -9 -23 -5 -34 15 -48 74 -26 61 23 -7 29 -36 35
-56 11z m48 -21 c4 -25 -22 -38 -37 -20 -15 18 -3 48 18 44 9 -2 17 -13 19
-24z"/>
<path d="M3857 5490 c4 -14 7 -37 8 -52 0 -40 10 -35 29 15 19 50 20 75 1 33
l-12 -30 -17 30 c-15 25 -16 26 -9 4z"/>
<path d="M4060 5501 c0 -5 9 -7 20 -4 11 3 20 0 20 -6 0 -6 -6 -11 -14 -11
-23 0 -38 -26 -22 -39 23 -19 46 -2 46 35 0 30 -3 34 -25 34 -14 0 -25 -4 -25
-9z m40 -40 c0 -14 -18 -23 -30 -16 -6 4 -8 11 -5 16 8 12 35 12 35 0z"/>
<path d="M4134 5486 c-8 -33 2 -46 33 -46 23 0 24 -2 12 -17 -12 -14 -12 -16
1 -11 10 3 16 20 18 49 3 43 2 45 -27 47 -25 2 -32 -2 -37 -22z m54 -9 c4 -20
-25 -34 -40 -19 -15 15 -1 44 19 40 10 -2 19 -11 21 -21z"/>
<path d="M5481 5478 c-1 -38 10 -48 42 -40 13 3 17 14 16 41 -2 29 -3 31 -6 9
-2 -14 -11 -32 -18 -38 -16 -13 -20 -7 -28 40 -3 18 -5 15 -6 -12z"/>
<path d="M5562 5473 c1 -38 1 -38 5 -5 5 42 35 40 45 -3 6 -29 6 -29 5 5 -2
30 -6 35 -29 38 -26 3 -28 1 -26 -35z"/>
<path d="M5643 5475 c0 -22 2 -30 4 -17 2 12 2 30 0 40 -3 9 -5 -1 -4 -23z"/>
<path d="M5720 5495 c0 -8 9 -19 20 -25 24 -13 17 -32 -8 -23 -13 4 -14 3 -6
-6 13 -15 44 -4 44 16 0 8 -9 17 -20 20 -11 3 -20 10 -20 15 0 6 9 8 20 5 11
-3 18 -1 14 4 -9 15 -44 10 -44 -6z"/>
<path d="M6974 5445 c-4 -8 -4 -22 -1 -30 4 -8 2 -17 -3 -20 -16 -10 -12 -23
11 -35 15 -8 24 -8 34 0 14 12 15 66 2 88 -11 17 -36 15 -43 -3z m36 -15 c0
-11 -4 -20 -9 -20 -14 0 -23 18 -16 30 10 17 25 11 25 -10z m6 -41 c9 -16 -18
-30 -33 -17 -7 6 -10 14 -7 19 7 13 31 11 40 -2z"/>
<path d="M7063 5453 c-7 -2 -13 -9 -13 -15 0 -6 6 -6 15 2 15 13 35 6 35 -13
0 -6 -12 -24 -27 -39 l-27 -28 35 1 c28 1 30 2 11 8 l-24 6 21 19 c25 23 27
51 5 60 -9 3 -16 6 -17 5 -1 0 -8 -3 -14 -6z"/>
<path d="M7136 5451 c-9 -14 5 -42 18 -38 15 5 14 39 -1 44 -6 2 -14 0 -17 -6z
m24 -17 c0 -8 -5 -12 -10 -9 -6 4 -8 11 -5 16 9 14 15 11 15 -7z"/>
<path d="M7453 5410 c0 -30 2 -43 4 -27 2 15 2 39 0 55 -2 15 -4 2 -4 -28z"/>
<path d="M10772 5453 l28 -4 -21 -41 c-11 -22 -18 -42 -15 -45 5 -6 46 70 46
87 0 5 -15 9 -32 9 -31 -2 -31 -2 -6 -6z"/>
<path d="M10843 5453 c-7 -2 -13 -9 -13 -14 0 -6 4 -8 9 -4 6 3 12 -14 14 -37
3 -41 4 -41 5 10 1 28 1 52 0 51 -2 0 -9 -3 -15 -6z"/>
<path d="M10893 5444 c-8 -21 13 -42 28 -27 13 13 5 43 -11 43 -6 0 -13 -7
-17 -16z m27 -10 c0 -8 -5 -12 -10 -9 -6 4 -8 11 -5 16 9 14 15 11 15 -7z"/>
<path d="M11213 5410 c0 -30 2 -43 4 -27 2 15 2 39 0 55 -2 15 -4 2 -4 -28z"/>
<path d="M7171 5403 c-19 -27 -25 -40 -15 -31 19 16 20 16 32 -3 15 -23 32
-17 32 13 0 15 -5 19 -20 15 -24 -6 -25 -3 -4 28 29 44 9 26 -25 -22z m39 -29
c0 -8 -5 -12 -10 -9 -6 4 -8 11 -5 16 9 14 15 11 15 -7z"/>
<path d="M7280 5406 c0 -37 4 -45 22 -49 29 -8 50 11 46 42 -2 18 -10 27 -25
29 -13 2 -23 8 -23 13 0 5 -4 9 -10 9 -5 0 -10 -20 -10 -44z m55 -16 c0 -36
-29 -33 -33 3 -3 23 0 28 15 25 12 -2 18 -12 18 -28z"/>
<path d="M7709 5438 c-3 -32 4 -64 15 -76 12 -12 13 -3 7 81 -1 12 -21 8 -22
-5z"/>
<path d="M8049 5439 c-3 -35 4 -65 17 -77 9 -8 10 -8 4 0 -13 16 -13 55 1 60
7 2 5 9 -5 17 -13 11 -16 11 -17 0z"/>
<path d="M9264 5438 c-4 -6 -3 -8 4 -4 7 4 12 -7 15 -31 l4 -38 1 43 c2 40 -9
55 -24 30z"/>
<path d="M9327 5443 c-2 -5 -4 -22 -5 -39 -2 -36 23 -54 44 -32 18 20 6 78
-17 78 -10 0 -20 -3 -22 -7z m31 -14 c-2 -6 -8 -10 -13 -10 -5 0 -11 4 -13 10
-2 6 4 11 13 11 9 0 15 -5 13 -11z m0 -40 c-2 -6 -8 -10 -13 -10 -5 0 -11 4
-13 10 -2 6 4 11 13 11 9 0 15 -5 13 -11z"/>
<path d="M9394 5438 c-5 -8 -2 -9 10 -5 33 13 38 -5 10 -34 l-28 -29 35 1 c19
1 26 3 17 6 -16 4 -16 6 -2 28 9 13 13 29 9 35 -8 14 -42 13 -51 -2z"/>
<path d="M9471 5432 c-12 -23 -4 -59 15 -66 16 -6 44 19 44 39 0 44 -40 62
-59 27z m43 -8 c7 -19 -11 -57 -25 -49 -15 10 -11 65 5 65 8 0 17 -7 20 -16z"/>
<path d="M9919 5438 c-3 -32 3 -74 12 -83 6 -6 7 3 3 24 -4 19 -3 36 3 40 7 4
6 11 -3 19 -11 10 -14 10 -15 0z"/>
<path d="M10931 5403 c-25 -36 -26 -41 -6 -18 26 30 49 65 42 65 -2 0 -18 -21
-36 -47z"/>
<path d="M11040 5409 c0 -40 3 -48 22 -52 29 -8 50 11 46 42 -2 19 -10 27 -28
30 -14 1 -28 8 -32 15 -4 6 -8 -10 -8 -35z m58 -15 c4 -27 -24 -39 -36 -16 -5
9 -7 23 -5 30 8 20 38 9 41 -14z"/>
<path d="M11469 5438 c-3 -31 4 -64 14 -75 11 -11 13 16 8 80 -1 12 -21 8 -22
-5z"/>
<path d="M11809 5439 c-3 -35 4 -65 17 -77 9 -8 10 -8 4 0 -13 16 -13 55 1 60
7 2 5 9 -5 17 -13 11 -16 11 -17 0z"/>
<path d="M7372 5414 c-20 -36 12 -75 46 -54 14 8 13 9 -7 7 -13 -1 -26 4 -28
11 -3 7 5 12 22 12 20 0 26 4 23 18 -4 23 -44 28 -56 6z m43 -4 c3 -5 -3 -10
-14 -10 -12 0 -21 5 -21 10 0 6 6 10 14 10 8 0 18 -4 21 -10z"/>
<path d="M7487 5424 c-12 -12 -8 -51 7 -63 24 -20 47 -2 44 33 -2 22 -9 32
-23 34 -12 2 -24 0 -28 -4z m41 -31 c-2 -17 -9 -28 -18 -28 -9 0 -16 11 -18
28 -3 22 1 27 18 27 17 0 21 -5 18 -27z"/>
<path d="M7561 5420 c-1 -25 11 -60 20 -60 5 0 12 12 16 27 l6 28 10 -28 c12
-36 21 -34 34 8 6 19 8 35 3 35 -4 0 -11 -12 -15 -27 -8 -27 -8 -28 -14 -5 -3
13 -10 23 -16 23 -5 0 -13 -10 -16 -23 -5 -22 -6 -22 -16 7 -6 17 -12 23 -12
15z"/>
<path d="M7766 5421 c-4 -5 3 -7 14 -4 11 3 20 1 20 -5 0 -5 -9 -12 -20 -15
-20 -5 -27 -31 -12 -41 5 -3 18 -2 30 1 22 5 28 27 16 57 -7 17 -39 22 -48 7z
m32 -42 c-2 -6 -8 -10 -13 -10 -5 0 -11 4 -13 10 -2 6 4 11 13 11 9 0 15 -5
13 -11z"/>
<path d="M7841 5393 c2 -35 2 -35 6 -8 3 16 10 33 16 37 8 5 6 8 -5 8 -14 0
-18 -8 -17 -37z"/>
<path d="M7884 5406 c-8 -33 2 -46 33 -46 23 0 24 -2 12 -17 -12 -14 -12 -16
1 -11 10 3 16 20 18 49 3 43 2 45 -27 47 -25 2 -32 -2 -37 -22z m54 -9 c4 -20
-25 -34 -40 -19 -15 15 -1 44 19 40 10 -2 19 -11 21 -21z"/>
<path d="M7977 5424 c-4 -4 -7 -20 -7 -35 0 -30 23 -44 48 -29 14 8 13 9 -7 7
-13 -1 -26 4 -28 11 -3 7 5 12 22 12 20 0 26 4 23 18 -3 17 -38 29 -51 16z
m38 -14 c3 -5 -3 -10 -14 -10 -12 0 -21 5 -21 10 0 6 6 10 14 10 8 0 18 -4 21
-10z"/>
<path d="M9722 5405 c-2 -37 12 -55 39 -48 15 4 19 13 17 42 l-1 36 -4 -32
c-3 -24 -9 -33 -23 -33 -14 0 -20 9 -23 33 l-4 32 -1 -30z"/>
<path d="M9801 5393 c1 -36 2 -37 8 -8 8 40 38 46 44 8 4 -28 4 -28 3 2 -1 25
-6 31 -28 33 -26 3 -28 1 -27 -35z"/>
<path d="M9883 5395 c0 -22 2 -30 4 -17 2 12 2 30 0 40 -3 9 -5 -1 -4 -23z"/>
<path d="M9965 5420 c-8 -14 3 -30 21 -30 8 0 14 -7 14 -16 0 -11 -6 -14 -22
-9 -20 5 -21 5 -5 -5 24 -16 53 6 36 26 -6 8 -18 14 -25 14 -8 0 -14 5 -14 11
0 6 9 9 20 6 11 -3 20 -1 20 4 0 12 -37 11 -45 -1z"/>
<path d="M11131 5411 c-20 -36 13 -72 47 -51 14 8 13 9 -7 7 -13 -1 -26 4 -28
11 -3 7 5 12 22 12 20 0 26 4 23 18 -5 25 -44 28 -57 3z m44 -1 c3 -5 -3 -10
-14 -10 -12 0 -21 5 -21 10 0 6 6 10 14 10 8 0 18 -4 21 -10z"/>
<path d="M11247 5424 c-12 -13 -8 -51 8 -64 21 -18 47 5 43 39 -3 26 -35 41
-51 25z m41 -31 c-2 -17 -9 -28 -18 -28 -9 0 -16 11 -18 28 -3 22 1 27 18 27
17 0 21 -5 18 -27z"/>
<path d="M11321 5420 c-1 -25 11 -60 20 -60 5 0 12 12 16 27 l6 28 10 -28 c12
-36 24 -34 32 4 9 39 0 49 -10 12 -8 -27 -8 -27 -14 -5 -3 13 -10 23 -16 23
-5 0 -13 -10 -16 -23 -5 -22 -6 -22 -16 7 -6 17 -12 23 -12 15z"/>
<path d="M11526 5421 c-4 -5 3 -7 14 -4 11 3 20 1 20 -5 0 -5 -9 -12 -20 -15
-20 -5 -27 -31 -12 -41 5 -3 18 -2 30 1 22 5 28 27 16 57 -7 17 -39 22 -48 7z
m32 -43 c-6 -18 -28 -21 -28 -4 0 9 7 16 16 16 9 0 14 -5 12 -12z"/>
<path d="M11601 5393 c2 -35 2 -35 6 -8 3 16 10 33 16 37 8 5 6 8 -5 8 -14 0
-18 -8 -17 -37z"/>
<path d="M11644 5406 c-8 -33 3 -49 32 -43 27 5 30 -2 12 -22 -11 -11 -10 -13
2 -9 10 3 16 20 18 49 3 43 2 45 -27 47 -25 2 -32 -2 -37 -22z m50 -2 c7 -19
-1 -34 -19 -34 -18 0 -28 17 -21 35 7 20 32 19 40 -1z"/>
<path d="M11731 5411 c-20 -36 13 -72 47 -51 14 8 13 9 -7 7 -13 -1 -26 4 -28
11 -3 7 5 12 22 12 20 0 26 4 23 18 -5 25 -44 28 -57 3z m44 -1 c3 -5 -3 -10
-14 -10 -12 0 -21 5 -21 10 0 6 6 10 14 10 8 0 18 -4 21 -10z"/>
<path d="M10945 5390 c-8 -13 14 -42 26 -34 5 3 9 14 9 25 0 20 -24 26 -35 9z
m25 -16 c0 -8 -4 -12 -10 -9 -5 3 -10 10 -10 16 0 5 5 9 10 9 6 0 10 -7 10
-16z"/>
<path d="M2693 5310 c0 -25 2 -35 4 -22 2 12 2 32 0 45 -2 12 -4 2 -4 -23z"/>
<path d="M3553 5310 c0 -25 2 -35 4 -22 2 12 2 32 0 45 -2 12 -4 2 -4 -23z"/>
<path d="M3753 5310 c0 -25 2 -35 4 -22 2 12 2 32 0 45 -2 12 -4 2 -4 -23z"/>
<path d="M5492 5300 c0 -19 2 -27 5 -17 2 9 2 25 0 35 -3 9 -5 1 -5 -18z"/>
<path d="M2810 5301 c0 -6 4 -13 10 -16 6 -3 7 1 4 9 -7 18 -14 21 -14 7z"/>
<path d="M2761 4808 l-19 -43 -16 38 c-22 51 -36 47 -35 -10 2 -47 2 -47 9
-13 l7 35 14 -32 c7 -18 17 -33 22 -33 4 0 13 15 20 33 l12 32 6 -35 c6 -31 7
-29 8 18 0 28 -1 52 -4 52 -3 0 -14 -19 -24 -42z"/>
<path d="M3376 4823 c20 -80 35 -90 49 -31 l8 33 10 -37 c6 -21 14 -38 18 -38
9 0 29 57 28 79 -1 9 -7 -2 -14 -24 l-12 -40 -12 44 c-14 48 -21 47 -37 -7
l-11 -37 -8 38 c-4 20 -11 40 -17 43 -5 3 -6 -6 -2 -23z"/>
<path d="M5224 4842 c-16 -11 -15 -89 2 -96 29 -11 43 4 41 47 -1 37 -10 57
-27 57 -3 0 -10 -4 -16 -8z m32 -13 c10 -17 -13 -36 -27 -22 -12 12 -4 33 11
33 5 0 12 -5 16 -11z m4 -53 c0 -15 -24 -28 -34 -19 -13 14 -5 33 14 33 11 0
20 -6 20 -14z"/>
<path d="M5299 4834 c-17 -21 1 -49 30 -48 24 1 27 -6 9 -24 -8 -8 -17 -8 -32
0 -19 9 -20 9 -5 -6 34 -36 74 19 50 70 -12 28 -33 31 -52 8z m40 -8 c9 -10 8
-16 -4 -26 -19 -16 -41 1 -32 24 8 20 21 20 36 2z"/>
<path d="M3163 4795 c0 -27 2 -38 4 -22 2 15 2 37 0 50 -2 12 -4 0 -4 -28z"/>
<path d="M3290 4825 c-8 -10 -9 -15 -1 -15 6 0 11 -13 11 -29 0 -17 4 -32 8
-35 8 -5 7 82 -1 90 -2 3 -10 -2 -17 -11z"/>
<path d="M3579 4828 c-3 -32 4 -64 15 -76 12 -12 13 -3 7 81 -1 12 -21 8 -22
-5z"/>
<path d="M3700 4795 c0 -25 5 -45 10 -45 6 0 10 14 10 30 0 42 27 40 33 -2 4
-32 4 -32 5 5 2 31 -1 37 -18 37 -11 0 -20 5 -20 10 0 6 -4 10 -10 10 -5 0
-10 -20 -10 -45z"/>
<path d="M5609 4828 c-3 -33 4 -64 17 -78 10 -10 14 -10 14 -2 0 7 -4 12 -10
12 -12 0 -13 47 -1 52 5 2 3 9 -5 16 -11 10 -14 10 -15 0z"/>
<path d="M2813 4785 c0 -22 2 -30 4 -17 2 12 2 30 0 40 -3 9 -5 -1 -4 -23z"/>
<path d="M2852 4783 c1 -37 1 -37 5 -5 6 42 33 44 33 2 0 -16 5 -30 10 -30 11
0 13 30 4 54 -3 9 -17 16 -30 16 -21 0 -24 -4 -22 -37z"/>
<path d="M2933 4785 c0 -22 2 -30 4 -17 2 12 2 30 0 40 -3 9 -5 -1 -4 -23z"/>
<path d="M2962 4783 c1 -37 1 -37 5 -5 3 19 10 32 19 32 9 0 14 -11 15 -32 l1
-33 7 30 c3 17 13 30 21 30 8 0 18 -13 22 -30 6 -29 6 -29 5 5 -2 34 -3 35
-49 38 l-48 2 2 -37z"/>
<path d="M3086 4811 c-4 -5 3 -7 14 -4 11 3 20 0 20 -6 0 -6 -6 -11 -14 -11
-23 0 -38 -26 -22 -39 23 -19 46 -2 46 35 0 27 -4 34 -19 34 -11 0 -22 -4 -25
-9z m32 -43 c-6 -18 -28 -21 -28 -4 0 9 7 16 16 16 9 0 14 -5 12 -12z"/>
<path d="M3193 4785 c0 -22 2 -30 4 -17 2 12 2 30 0 40 -3 9 -5 -1 -4 -23z"/>
<path d="M3224 4809 c-4 -7 3 -19 15 -28 24 -18 19 -33 -7 -24 -13 4 -14 3 -6
-6 13 -15 44 -4 44 16 0 8 -9 17 -20 20 -11 3 -20 10 -20 15 0 6 9 8 20 5 11
-3 18 -1 14 4 -7 13 -31 11 -40 -2z"/>
<path d="M3505 4811 c-3 -7 0 -8 9 -5 8 3 21 2 28 -2 9 -6 5 -10 -12 -14 -28
-7 -35 -40 -10 -48 12 -4 13 -3 3 10 -14 16 -8 28 15 28 8 0 12 -6 8 -15 -3
-8 -1 -15 5 -15 6 0 9 15 7 33 -2 24 -8 33 -25 35 -11 2 -24 -2 -28 -7z"/>
<path d="M3630 4801 c-21 -40 20 -76 49 -44 15 16 15 16 -1 4 -22 -17 -38 -6
-38 26 0 22 3 24 26 19 17 -5 23 -3 19 4 -10 17 -44 11 -55 -9z"/>
<path d="M5422 4788 c-2 -40 7 -52 32 -42 11 4 16 17 14 43 l-1 36 -4 -32 c-3
-19 -10 -33 -18 -33 -8 0 -15 14 -18 33 l-4 32 -1 -37z"/>
<path d="M5502 4783 c1 -37 1 -37 5 -5 3 18 10 32 18 32 8 0 15 -14 18 -32 4
-32 4 -32 5 5 2 33 0 37 -23 37 -23 0 -25 -4 -23 -37z"/>
<path d="M5583 4785 c0 -22 2 -30 4 -17 2 12 2 30 0 40 -3 9 -5 -1 -4 -23z"/>
<path d="M5660 4801 c0 -11 9 -21 21 -24 12 -3 18 -10 14 -17 -4 -6 -14 -9
-24 -5 -11 4 -13 3 -5 -5 14 -14 44 -2 44 17 0 8 -9 17 -20 20 -11 3 -20 10
-20 15 0 6 9 8 20 5 11 -3 18 -1 14 4 -10 17 -44 10 -44 -10z"/>
<path d="M2321 4790 c-13 -3 -29 -13 -35 -23 -24 -37 36 -73 82 -48 20 11 37
51 21 51 -5 0 -10 -10 -10 -22 -1 -21 -2 -21 -6 -3 -10 37 -27 52 -52 45z"/>
<path d="M6983 4763 c32 -5 32 -4 7 -53 -25 -49 -19 -52 9 -6 31 49 28 66 -11
65 -31 -2 -31 -2 -5 -6z"/>
<path d="M7054 4758 c-14 -22 -13 -76 1 -88 23 -19 69 13 48 34 -4 4 -7 19 -8
34 0 29 -27 42 -41 20z m32 -9 c10 -17 -13 -36 -27 -22 -12 12 -4 33 11 33 5
0 12 -5 16 -11z m7 -46 c11 -10 -13 -32 -29 -26 -20 8 -17 33 4 33 10 0 22 -3
25 -7z"/>
<path d="M7133 4754 c-8 -22 15 -44 26 -25 10 16 4 41 -10 41 -5 0 -12 -7 -16
-16z m22 -3 c3 -5 1 -12 -5 -16 -5 -3 -10 1 -10 9 0 18 6 21 15 7z"/>
<path d="M7282 4724 c-2 -54 10 -70 44 -57 22 8 15 67 -9 69 -13 2 -14 1 -2
-3 21 -6 16 -58 -5 -58 -11 0 -17 15 -21 50 l-6 50 -1 -51z"/>
<path d="M7443 4720 c0 -30 2 -43 4 -27 2 15 2 39 0 55 -2 15 -4 2 -4 -28z"/>
<path d="M10762 4758 c-17 -17 -15 -73 2 -87 18 -15 56 2 56 23 0 20 -27 39
-45 32 -19 -7 -20 8 -2 23 10 8 17 7 26 -2 11 -10 13 -9 9 3 -6 20 -30 24 -46
8z m41 -52 c9 -22 -18 -40 -33 -22 -6 9 -9 20 -5 26 9 15 32 12 38 -4z"/>
<path d="M10853 4762 c-23 -14 -25 -57 -5 -82 17 -21 22 -22 36 -11 19 16 21
72 4 89 -14 14 -19 14 -35 4z m35 -45 c2 -21 -1 -37 -7 -37 -6 0 -14 -1 -17
-2 -13 -5 -21 37 -13 60 13 34 33 22 37 -21z"/>
<path d="M10923 4754 c-8 -21 13 -42 28 -27 13 13 5 43 -11 43 -6 0 -13 -7
-17 -16z m27 -10 c0 -8 -5 -12 -10 -9 -6 4 -8 11 -5 16 9 14 15 11 15 -7z"/>
<path d="M11243 4720 c0 -30 2 -43 4 -27 2 15 2 39 0 55 -2 15 -4 2 -4 -28z"/>
<path d="M7170 4722 c-37 -55 -37 -63 0 -14 18 24 31 45 29 47 -3 2 -15 -13
-29 -33z"/>
<path d="M7709 4749 c-2 -31 3 -74 10 -82 4 -4 6 13 5 39 -3 44 -13 73 -15 43z"/>
<path d="M8049 4749 c-2 -31 3 -74 10 -82 4 -4 6 13 5 39 -3 44 -13 73 -15 43z"/>
<path d="M9264 4748 c-4 -6 -3 -8 4 -4 7 4 12 -7 15 -31 l4 -38 1 43 c2 40 -9
55 -24 30z"/>
<path d="M9327 4753 c-2 -5 -4 -22 -5 -39 -2 -36 23 -54 44 -32 18 20 6 78
-17 78 -10 0 -20 -3 -22 -7z m31 -14 c-2 -6 -8 -10 -13 -10 -5 0 -11 4 -13 10
-2 6 4 11 13 11 9 0 15 -5 13 -11z m0 -40 c-2 -6 -8 -10 -13 -10 -5 0 -11 4
-13 10 -2 6 4 11 13 11 9 0 15 -5 13 -11z"/>
<path d="M9394 4748 c-5 -8 -2 -9 10 -5 33 13 38 -5 10 -34 l-28 -29 35 1 c19
1 26 3 17 6 -16 4 -16 6 -2 28 9 13 13 29 9 35 -8 14 -42 13 -51 -2z"/>
<path d="M9471 4742 c-12 -23 -4 -59 15 -66 16 -6 44 19 44 39 0 44 -40 62
-59 27z m43 -8 c7 -19 -11 -57 -25 -49 -15 10 -11 65 5 65 8 0 17 -7 20 -16z"/>
<path d="M9919 4748 c-3 -32 3 -74 12 -83 6 -6 7 3 3 24 -4 19 -3 36 3 40 7 4
6 11 -3 19 -11 10 -14 10 -15 0z"/>
<path d="M10961 4713 c-25 -36 -26 -41 -6 -18 26 30 49 65 42 65 -2 0 -18 -21
-36 -47z"/>
<path d="M11070 4719 c0 -40 3 -48 22 -52 29 -8 50 11 46 42 -2 19 -10 27 -28
30 -14 1 -28 8 -32 15 -4 6 -8 -10 -8 -35z m58 -15 c4 -27 -24 -39 -36 -16 -5
9 -7 23 -5 30 8 20 38 9 41 -14z"/>
<path d="M11499 4749 c-3 -34 4 -65 17 -79 12 -12 12 -10 2 18 -10 26 -10 34
0 41 10 6 10 10 -3 21 -12 10 -15 10 -16 -1z"/>
<path d="M11839 4748 c-3 -33 4 -64 17 -78 10 -10 14 -10 14 -2 0 7 -4 12 -10
12 -12 0 -13 47 -1 52 5 2 3 9 -5 16 -11 10 -14 10 -15 0z"/>
<path d="M7367 4734 c-12 -12 -8 -51 7 -64 11 -8 20 -9 33 -1 13 9 14 11 3 10
-27 -3 -40 1 -40 11 0 6 12 10 26 10 19 0 25 5 22 18 -3 17 -38 29 -51 16z
m43 -14 c0 -5 -9 -10 -21 -10 -11 0 -17 5 -14 10 3 6 13 10 21 10 8 0 14 -4
14 -10z"/>
<path d="M7477 4733 c-12 -11 -7 -50 7 -62 19 -16 56 2 56 27 0 32 -43 56 -63
35z m49 -18 c8 -20 -13 -45 -32 -38 -14 5 -19 34 -7 46 11 12 33 7 39 -8z"/>
<path d="M7556 4715 c8 -43 22 -53 33 -24 l10 24 7 -22 c9 -32 20 -29 33 8 13
39 14 42 1 34 -5 -3 -10 -15 -10 -26 0 -11 -4 -17 -10 -14 -5 3 -10 15 -10 26
0 28 -19 23 -26 -7 l-7 -27 -13 29 -14 29 6 -30z"/>
<path d="M7755 4731 c-3 -7 0 -8 9 -5 8 3 21 2 28 -2 9 -6 5 -10 -12 -14 -28
-7 -35 -40 -10 -48 12 -4 13 -3 3 10 -14 16 -8 28 15 28 8 0 12 -6 8 -15 -3
-8 -1 -15 5 -15 6 0 9 15 7 33 -2 24 -8 33 -25 35 -11 2 -24 -2 -28 -7z"/>
<path d="M7833 4705 c0 -22 2 -30 4 -17 2 12 2 30 0 40 -3 9 -5 -1 -4 -23z"/>
<path d="M7880 4719 c-13 -24 2 -50 29 -48 14 1 14 2 -1 6 -9 2 -19 10 -21 17
-8 20 9 40 27 33 18 -7 23 -72 6 -80 -6 -3 -5 -4 2 -3 8 2 14 21 16 47 3 41 1
45 -22 47 -17 1 -29 -5 -36 -19z"/>
<path d="M7967 4734 c-12 -12 -8 -51 7 -63 15 -13 46 -5 46 12 0 8 -3 8 -11 0
-12 -12 -39 -7 -39 8 0 5 12 9 26 9 19 0 25 5 22 18 -3 17 -38 29 -51 16z m43
-14 c0 -5 -9 -10 -21 -10 -11 0 -17 5 -14 10 3 6 13 10 21 10 8 0 14 -4 14
-10z"/>
<path d="M9722 4715 c-2 -37 12 -55 39 -48 15 4 19 13 17 42 l-1 36 -4 -32
c-3 -24 -9 -33 -23 -33 -14 0 -20 9 -23 33 l-4 32 -1 -30z"/>
<path d="M9801 4703 c1 -36 2 -37 8 -8 8 40 38 46 44 8 4 -28 4 -28 3 2 -1 25
-6 31 -28 33 -26 3 -28 1 -27 -35z"/>
<path d="M9883 4705 c0 -22 2 -30 4 -17 2 12 2 30 0 40 -3 9 -5 -1 -4 -23z"/>
<path d="M9965 4730 c-8 -14 3 -30 21 -30 8 0 14 -7 14 -16 0 -11 -6 -14 -22
-9 -20 5 -21 5 -5 -5 24 -16 53 6 36 26 -6 8 -18 14 -25 14 -8 0 -14 5 -14 11
0 6 9 9 20 6 11 -3 20 -1 20 4 0 12 -37 11 -45 -1z"/>
<path d="M11161 4721 c-6 -11 -8 -26 -5 -35 7 -19 35 -29 47 -17 6 6 3 9 -8 8
-10 -1 -20 4 -22 11 -3 7 5 12 22 12 20 0 26 4 23 18 -5 25 -44 28 -57 3z m44
-1 c3 -5 -3 -10 -14 -10 -12 0 -21 5 -21 10 0 6 6 10 14 10 8 0 18 -4 21 -10z"/>
<path d="M11277 4734 c-12 -13 -8 -51 8 -64 21 -18 47 5 43 39 -3 26 -35 41
-51 25z m41 -31 c-2 -17 -9 -28 -18 -28 -9 0 -16 11 -18 28 -3 22 1 27 18 27
17 0 21 -5 18 -27z"/>
<path d="M11353 4705 c13 -42 22 -44 34 -8 l10 28 6 -28 c10 -36 24 -34 32 4
9 39 0 49 -10 12 -8 -27 -8 -27 -14 -5 -7 29 -25 30 -29 2 -4 -25 -22 -16 -22
11 0 10 -4 19 -9 19 -5 0 -4 -15 2 -35z"/>
<path d="M11556 4731 c-4 -5 3 -7 14 -4 11 3 20 1 20 -5 0 -5 -9 -12 -20 -15
-20 -5 -27 -31 -11 -41 21 -13 41 7 41 40 0 27 -4 34 -19 34 -11 0 -22 -4 -25
-9z m32 -43 c-6 -18 -28 -21 -28 -4 0 9 7 16 16 16 9 0 14 -5 12 -12z"/>
<path d="M11631 4703 c2 -35 2 -35 6 -8 3 16 10 33 16 37 8 5 6 8 -5 8 -14 0
-18 -8 -17 -37z"/>
<path d="M11674 4716 c-8 -33 3 -49 32 -43 27 5 30 -2 12 -22 -11 -11 -10 -13
2 -9 10 3 16 20 18 49 3 43 2 45 -27 47 -25 2 -32 -2 -37 -22z m50 -2 c7 -19
-1 -34 -19 -34 -18 0 -28 17 -21 35 7 20 32 19 40 -1z"/>
<path d="M11761 4721 c-20 -36 13 -72 47 -51 14 8 13 9 -7 7 -13 -1 -26 4 -28
11 -3 7 5 12 22 12 20 0 26 4 23 18 -5 25 -44 28 -57 3z m44 -1 c3 -5 -3 -10
-14 -10 -12 0 -21 5 -21 10 0 6 6 10 14 10 8 0 18 -4 21 -10z"/>
<path d="M7183 4694 c-9 -23 11 -38 26 -20 13 16 7 36 -10 36 -5 0 -12 -7 -16
-16z m27 -3 c0 -6 -4 -13 -10 -16 -5 -3 -10 1 -10 9 0 9 5 16 10 16 6 0 10 -4
10 -9z"/>
<path d="M10975 4700 c-8 -13 14 -42 26 -34 5 3 9 14 9 25 0 20 -24 26 -35 9z
m25 -16 c0 -8 -4 -12 -10 -9 -5 3 -10 10 -10 16 0 5 5 9 10 9 6 0 10 -7 10
-16z"/>
<path d="M5492 4610 c0 -19 2 -27 5 -17 2 9 2 25 0 35 -3 9 -5 1 -5 -18z"/>
<path d="M2210 4194 c-8 -8 -26 -23 -39 -33 -21 -16 -25 -29 -34 -124 -8 -85
-7 -113 3 -135 7 -15 13 -30 12 -34 -2 -10 123 -10 168 -1 19 3 35 13 37 24 3
11 17 19 37 22 l31 4 -31 1 -31 2 -10 105 c-10 105 -26 145 -59 145 -7 0 -18
9 -24 20 -12 23 -38 25 -60 4z m45 -4 c3 -5 -1 -10 -9 -10 -9 0 -16 5 -16 10
0 6 4 10 9 10 6 0 13 -4 16 -10z"/>
<path d="M2706 4144 c-9 -8 -16 -26 -16 -39 0 -21 23 -55 36 -55 13 0 44 22
44 31 0 6 -7 3 -16 -5 -21 -21 -54 -4 -54 28 0 35 23 50 52 35 21 -11 22 -11
9 4 -17 21 -35 22 -55 1z"/>
<path d="M3210 4111 c0 -50 1 -51 30 -51 36 0 42 12 32 60 -6 28 -13 36 -35
38 -26 3 -27 2 -27 -47z m45 19 c0 -8 -8 -16 -17 -18 -13 -2 -18 3 -18 18 0
15 5 20 18 18 9 -2 17 -10 17 -18z m13 -47 c2 -8 -6 -13 -22 -13 -17 0 -26 5
-26 16 0 19 41 16 48 -3z"/>
<path d="M3453 4110 c0 -30 1 -47 4 -37 6 21 19 22 27 2 3 -8 11 -15 17 -15 7
0 5 8 -6 20 -15 17 -16 22 -4 37 12 16 11 16 -8 0 -21 -19 -22 -19 -26 15 -2
20 -4 11 -4 -22z"/>
<path d="M5223 4153 c-7 -2 -13 -9 -13 -14 0 -6 4 -8 9 -4 6 3 12 -14 14 -37
3 -41 4 -41 5 10 1 28 1 52 0 51 -2 0 -9 -3 -15 -6z"/>
<path d="M5279 4143 c-13 -16 -12 -17 4 -4 23 18 47 0 28 -22 -9 -12 -8 -16 5
-21 13 -5 14 -9 4 -21 -9 -11 -17 -12 -34 -4 -20 11 -20 10 -5 -6 13 -14 21
-15 38 -6 20 11 21 36 5 89 -5 18 -29 15 -45 -5z"/>
<path d="M5398 4155 c-4 -4 -4 -20 -1 -36 4 -24 2 -29 -13 -29 -14 0 -15 3 -6
12 7 7 12 17 12 23 -1 11 -30 -25 -30 -37 0 -4 9 -8 20 -8 11 0 20 -5 20 -11
0 -8 5 -7 15 1 9 8 12 16 6 19 -5 3 -11 21 -13 40 -2 18 -6 30 -10 26z"/>
<path d="M3761 4106 c-1 -45 0 -48 13 -30 14 18 15 18 21 2 4 -10 11 -18 16
-18 5 0 4 9 -3 19 -9 15 -9 23 1 35 9 11 10 16 2 16 -6 0 -14 -7 -17 -15 -9
-24 -22 -18 -27 13 -2 16 -5 7 -6 -22z"/>
<path d="M5678 4139 c-8 -25 5 -78 21 -84 13 -5 14 -4 4 6 -15 15 -17 56 -4
61 5 2 3 8 -4 15 -9 9 -15 9 -17 2z"/>
<path d="M2796 4122 c-3 -6 2 -8 13 -5 10 3 22 0 25 -6 4 -7 -1 -11 -14 -11
-23 0 -38 -26 -24 -40 5 -5 20 -7 32 -3 32 8 28 66 -5 71 -11 2 -24 -1 -27 -6z
m34 -47 c-7 -8 -16 -12 -21 -9 -13 8 -1 24 18 24 13 0 13 -3 3 -15z"/>
<path d="M2873 4095 c0 -22 2 -30 4 -17 2 12 2 30 0 40 -3 9 -5 -1 -4 -23z"/>
<path d="M2902 4118 c9 -7 19 -24 21 -38 3 -16 5 -13 4 10 -2 26 -7 36 -22 38
-18 4 -19 3 -3 -10z"/>
<path d="M2952 4099 c17 -40 29 -41 45 -1 7 17 9 32 4 32 -5 0 -12 -12 -16
-27 l-7 -28 -14 28 c-20 37 -27 34 -12 -4z"/>
<path d="M3026 4122 c-3 -6 2 -8 13 -5 10 3 22 0 25 -6 4 -7 -1 -11 -14 -11
-23 0 -38 -26 -24 -40 5 -5 20 -7 32 -3 32 8 28 66 -5 71 -11 2 -24 -1 -27 -6z
m34 -47 c-12 -15 -30 -12 -30 6 0 5 10 9 21 9 18 0 19 -2 9 -15z"/>
<path d="M3100 4111 c0 -11 9 -21 21 -24 12 -3 18 -10 15 -16 -4 -6 -14 -7
-24 -4 -13 4 -14 3 -6 -6 13 -15 44 -4 44 16 0 8 -9 17 -20 20 -11 3 -20 10
-20 15 0 6 9 8 20 5 11 -3 18 -1 14 4 -10 17 -44 10 -44 -10z"/>
<path d="M3300 4121 c0 -5 9 -7 20 -4 11 3 20 0 20 -6 0 -6 -6 -11 -14 -11
-23 0 -38 -26 -22 -39 23 -19 46 -2 46 35 0 30 -3 34 -25 34 -14 0 -25 -4 -25
-9z m40 -40 c0 -14 -18 -23 -30 -16 -6 4 -8 11 -5 16 8 12 35 12 35 0z"/>
<path d="M3374 4104 c-4 -17 -1 -31 8 -40 15 -15 48 -9 48 8 0 7 -5 6 -14 -1
-10 -9 -16 -8 -26 4 -17 21 -5 49 20 42 11 -3 20 -1 20 4 0 5 -11 9 -25 9 -18
0 -26 -7 -31 -26z"/>
<path d="M3531 4078 c1 -29 3 -45 6 -36 2 9 10 15 17 12 18 -7 38 21 34 48 -2
17 -11 24 -30 26 -28 3 -28 2 -27 -50z m44 12 c0 -36 -29 -33 -33 3 -3 23 0
28 15 25 12 -2 18 -12 18 -28z"/>
<path d="M3616 4122 c-3 -6 3 -8 14 -5 11 3 20 1 20 -5 0 -5 -9 -12 -20 -15
-20 -5 -27 -31 -12 -41 5 -3 19 -2 31 1 31 8 27 66 -6 71 -11 2 -24 -1 -27 -6z
m34 -47 c-12 -15 -30 -12 -30 6 0 5 10 9 21 9 18 0 19 -2 9 -15z"/>
<path d="M3690 4115 c-28 -33 20 -81 49 -48 15 16 15 16 -3 3 -16 -13 -20 -12
-31 4 -20 26 -8 49 22 41 16 -4 22 -2 18 5 -9 15 -41 12 -55 -5z"/>
<path d="M5480 4107 c0 -33 22 -59 43 -51 12 4 17 16 15 43 l-1 36 -4 -32 c-6
-43 -33 -45 -33 -3 0 17 -4 30 -10 30 -5 0 -10 -10 -10 -23z"/>
<path d="M5560 4095 c0 -19 5 -35 10 -35 6 0 10 14 10 30 0 42 27 40 33 -2 4
-32 4 -32 5 5 2 35 0 37 -28 37 -28 0 -30 -3 -30 -35z"/>
<path d="M5653 4095 c0 -22 2 -30 4 -17 2 12 2 30 0 40 -3 9 -5 -1 -4 -23z"/>
<path d="M5727 4123 c-13 -12 -7 -24 19 -33 14 -6 22 -15 19 -21 -4 -6 -14 -8
-24 -4 -11 4 -13 3 -5 -5 14 -14 44 -2 44 17 0 8 -9 17 -20 20 -25 7 -26 20
-2 26 14 4 13 5 -4 6 -11 0 -24 -2 -27 -6z"/>
<path d="M6977 4073 c-4 -3 -7 -11 -7 -17 0 -6 5 -5 12 2 7 7 16 12 20 12 12
0 10 -38 -2 -45 -5 -3 -15 -15 -20 -26 -10 -17 -7 -19 22 -18 23 1 26 3 11 6
l-23 4 22 29 c17 24 19 32 8 45 -13 16 -32 20 -43 8z"/>
<path d="M7063 4073 c-7 -2 -13 -9 -13 -15 0 -6 6 -5 15 2 13 10 18 11 28 1 9
-10 8 -15 -7 -27 -17 -12 -18 -14 -3 -14 9 0 17 -6 17 -13 0 -21 -11 -27 -31
-16 -11 6 -19 6 -19 0 0 -7 22 -21 35 -21 12 0 34 34 28 43 -4 6 -7 23 -7 37
-1 24 -18 34 -43 23z"/>
<path d="M7143 4064 c-8 -22 15 -44 26 -25 10 16 4 41 -10 41 -5 0 -12 -7 -16
-16z m22 -3 c3 -5 1 -12 -5 -16 -5 -3 -10 1 -10 9 0 18 6 21 15 7z"/>
<path d="M7292 4034 c-2 -54 10 -70 44 -57 22 8 15 67 -9 69 -13 2 -14 1 -2
-3 21 -6 16 -58 -5 -58 -11 0 -17 15 -21 50 l-6 50 -1 -51z"/>
<path d="M7453 4030 c0 -30 2 -43 4 -27 2 15 2 39 0 55 -2 15 -4 2 -4 -28z"/>
<path d="M9333 4072 c-5 -4 -10 -24 -11 -44 -1 -34 1 -38 23 -38 30 0 34 7 28
47 -5 32 -22 47 -40 35z m27 -23 c0 -5 -7 -9 -15 -9 -15 0 -20 12 -9 23 8 8
24 -1 24 -14z m0 -40 c0 -5 -7 -9 -15 -9 -15 0 -20 12 -9 23 8 8 24 -1 24 -14z"/>
<path d="M9399 4064 c-12 -15 -11 -16 9 -10 29 10 29 -10 0 -41 l-21 -23 34 1
c25 1 28 3 11 6 l-24 5 22 24 c19 19 21 26 10 39 -16 19 -24 19 -41 -1z"/>
<path d="M9483 4072 c-17 -12 -23 -43 -13 -63 14 -25 47 -24 55 1 12 38 -16
79 -42 62z m31 -27 c8 -21 -3 -45 -20 -45 -9 0 -14 11 -14 30 0 32 23 42 34
15z"/>
<path d="M10757 4074 c-4 -4 -7 -12 -7 -18 0 -6 5 -5 12 2 16 16 38 15 38 -2
0 -8 -12 -28 -26 -45 l-26 -31 34 1 c25 1 27 3 10 6 l-24 5 22 23 c12 13 20
31 18 42 -3 18 -38 30 -51 17z"/>
<path d="M10841 4066 c-16 -20 -10 -66 10 -79 27 -17 49 -1 49 36 0 50 -33 74
-59 43z m44 -36 c0 -24 -5 -36 -17 -38 -19 -4 -32 29 -23 59 11 34 40 19 40
-21z"/>
<path d="M10923 4065 c-3 -9 -3 -19 1 -22 3 -4 6 1 6 10 0 10 5 17 11 17 6 0
9 -6 6 -14 -3 -8 -1 -16 5 -18 7 -3 5 -14 -7 -34 l-17 -29 20 24 c11 14 27 38
37 55 l17 31 -20 -24 c-19 -23 -19 -23 -25 -2 -6 25 -25 28 -34 6z"/>
<path d="M11071 4033 c-1 -52 0 -53 28 -53 31 0 45 20 36 51 -4 12 -16 19 -30
19 -14 0 -25 7 -28 18 -3 9 -5 -7 -6 -35z m57 -16 c4 -20 -25 -34 -40 -19 -15
15 -1 44 19 40 10 -2 19 -11 21 -21z"/>
<path d="M11243 4030 c0 -30 2 -43 4 -27 2 15 2 39 0 55 -2 15 -4 2 -4 -28z"/>
<path d="M7180 4032 c-33 -48 -38 -63 -12 -32 21 25 21 25 22 3 0 -28 14 -37
30 -18 14 16 5 35 -16 35 -17 0 -18 12 -2 28 6 6 10 14 7 16 -2 3 -15 -12 -29
-32z m40 -31 c0 -6 -4 -13 -10 -16 -5 -3 -10 1 -10 9 0 9 5 16 10 16 6 0 10
-4 10 -9z"/>
<path d="M7719 4059 c-2 -31 3 -74 10 -82 4 -4 6 13 5 39 -3 44 -13 73 -15 43z"/>
<path d="M8059 4059 c-2 -31 3 -74 10 -82 4 -4 6 13 5 39 -3 44 -13 73 -15 43z"/>
<path d="M9264 4058 c-4 -6 -3 -8 4 -4 7 4 12 -7 15 -31 l4 -38 1 43 c2 40 -9
55 -24 30z"/>
<path d="M9918 4060 c-5 -17 3 -80 11 -80 7 0 6 79 -2 86 -3 3 -7 0 -9 -6z"/>
<path d="M11498 4058 c-7 -22 6 -71 20 -74 7 -1 8 0 2 3 -14 6 -13 50 1 55 7
2 6 8 -4 16 -12 10 -16 10 -19 0z"/>
<path d="M11838 4060 c-9 -28 4 -80 21 -80 13 0 13 2 2 9 -8 5 -12 19 -9 34 5
28 -6 59 -14 37z"/>
<path d="M7377 4044 c-12 -12 -8 -51 7 -64 11 -8 20 -9 33 -1 13 9 14 11 3 10
-27 -3 -40 1 -40 11 0 6 12 10 26 10 19 0 25 5 22 18 -3 17 -38 29 -51 16z
m43 -14 c0 -5 -9 -10 -20 -10 -11 0 -20 5 -20 10 0 6 9 10 20 10 11 0 20 -4
20 -10z"/>
<path d="M7487 4043 c-12 -11 -8 -50 7 -62 30 -25 71 24 46 54 -13 16 -42 20
-53 8z m47 -19 c8 -21 -11 -45 -30 -37 -14 5 -19 34 -7 46 12 12 31 7 37 -9z"/>
<path d="M7561 4043 c-1 -6 3 -24 9 -38 11 -30 29 -25 31 8 1 20 2 19 12 -5 6
-16 14 -28 18 -28 9 0 31 62 24 69 -3 3 -8 -5 -12 -17 -7 -27 -23 -29 -23 -2
0 29 -18 25 -26 -6 l-7 -27 -13 29 c-7 16 -13 24 -13 17z"/>
<path d="M7766 4042 c-3 -6 2 -8 13 -5 10 3 22 0 25 -6 4 -7 -1 -11 -14 -11
-23 0 -38 -26 -24 -40 5 -5 20 -7 32 -3 32 8 28 66 -5 71 -11 2 -24 -1 -27 -6z
m44 -41 c0 -12 -28 -22 -34 -12 -3 5 -3 11 1 15 9 9 33 7 33 -3z"/>
<path d="M7843 4015 c0 -22 2 -30 4 -17 2 12 2 30 0 40 -3 9 -5 -1 -4 -23z"/>
<path d="M7890 4035 c-18 -22 -3 -55 26 -55 24 0 33 -14 14 -23 -6 -3 -5 -4 2
-3 8 2 14 21 16 47 3 41 1 45 -21 47 -14 1 -30 -5 -37 -13z m48 -18 c4 -21
-27 -35 -38 -17 -12 19 0 42 19 38 9 -2 17 -11 19 -21z"/>
<path d="M7977 4044 c-12 -12 -8 -51 7 -64 11 -8 20 -9 33 -1 13 9 14 11 3 10
-27 -3 -40 1 -40 11 0 6 12 10 26 10 19 0 25 5 22 18 -3 17 -38 29 -51 16z
m43 -14 c0 -5 -9 -10 -20 -10 -11 0 -20 5 -20 10 0 6 9 10 20 10 11 0 20 -4
20 -10z"/>
<path d="M9723 4020 c2 -30 6 -35 30 -38 25 -3 27 -1 25 35 -1 38 -1 38 -5 5
-5 -42 -35 -40 -45 3 -6 29 -6 29 -5 -5z"/>
<path d="M9801 4013 c1 -37 2 -37 8 -8 9 43 39 45 44 3 l4 -33 1 38 c2 35 0
37 -28 37 -28 0 -30 -2 -29 -37z"/>
<path d="M9883 4015 c0 -22 2 -30 4 -17 2 12 2 30 0 40 -3 9 -5 -1 -4 -23z"/>
<path d="M9965 4040 c-8 -14 3 -30 21 -30 8 0 14 -5 14 -11 0 -6 -9 -9 -20 -6
-11 3 -20 1 -20 -4 0 -11 47 -12 54 -1 7 11 -6 27 -29 37 -19 7 -19 8 5 15 23
7 23 8 3 9 -12 1 -25 -3 -28 -9z"/>
<path d="M11155 4031 c-9 -30 5 -51 34 -50 20 1 22 2 6 6 -37 9 -40 23 -6 23
26 0 32 3 27 16 -3 9 -6 18 -6 20 0 2 -11 4 -24 4 -15 0 -27 -7 -31 -19z m50
-1 c4 -6 -5 -10 -20 -10 -15 0 -24 4 -20 10 3 6 12 10 20 10 8 0 17 -4 20 -10z"/>
<path d="M11265 4030 c-8 -27 12 -52 39 -48 16 2 21 10 21 33 0 25 -4 31 -27
33 -19 2 -28 -2 -33 -18z m53 -18 c3 -16 -2 -22 -16 -22 -22 0 -32 17 -24 38
7 20 37 9 40 -16z"/>
<path d="M11353 4015 c13 -42 20 -44 34 -7 10 24 11 25 12 5 2 -33 20 -38 31
-8 14 38 11 55 -4 21 l-13 -29 -7 27 c-8 31 -26 35 -26 6 0 -11 -4 -20 -10
-20 -5 0 -10 6 -10 14 0 8 -4 17 -9 20 -5 4 -4 -10 2 -29z"/>
<path d="M11568 4043 c12 -2 22 -8 22 -13 0 -5 -10 -10 -22 -12 -33 -4 -29
-32 5 -36 25 -3 27 -1 27 32 0 33 -2 36 -27 35 -24 -2 -25 -2 -5 -6z m22 -43
c0 -5 -9 -10 -21 -10 -11 0 -17 5 -14 10 3 6 13 10 21 10 8 0 14 -4 14 -10z"/>
<path d="M11621 4013 c1 -27 3 -31 6 -13 2 14 12 31 21 38 14 11 13 12 -6 12
-19 0 -22 -5 -21 -37z"/>
<path d="M11674 4036 c-10 -26 1 -51 24 -54 29 -4 28 -19 0 -25 -20 -4 -19 -4
5 -6 26 -1 27 1 27 49 0 47 -2 50 -25 50 -14 0 -28 -6 -31 -14z m46 -22 c0
-33 -33 -30 -38 4 -3 17 2 22 17 22 16 0 21 -6 21 -26z"/>
<path d="M11755 4031 c-9 -30 5 -51 34 -50 20 1 22 2 6 6 -37 9 -40 23 -6 23
26 0 32 3 27 16 -3 9 -6 18 -6 20 0 2 -11 4 -24 4 -15 0 -27 -7 -31 -19z m50
-1 c4 -6 -5 -10 -20 -10 -15 0 -24 4 -20 10 3 6 12 10 20 10 8 0 17 -4 20 -10z"/>
<path d="M10975 4010 c-8 -14 3 -30 21 -30 8 0 14 9 14 20 0 21 -24 28 -35 10z
m25 -10 c0 -5 -4 -10 -10 -10 -5 0 -10 5 -10 10 0 6 5 10 10 10 6 0 10 -4 10
-10z"/>
<path d="M2693 3930 c0 -25 2 -35 4 -22 2 12 2 32 0 45 -2 12 -4 2 -4 -23z"/>
<path d="M3323 3930 c0 -25 2 -35 4 -22 2 12 2 32 0 45 -2 12 -4 2 -4 -23z"/>
<path d="M5492 3920 c0 -19 2 -27 5 -17 2 9 2 25 0 35 -3 9 -5 1 -5 -18z"/>
<path d="M3691 3914 c0 -11 3 -14 6 -6 3 7 2 16 -1 19 -3 4 -6 -2 -5 -13z"/>
<path d="M2130 3831 c0 -17 6 -21 33 -21 17 0 69 -3 115 -7 79 -6 82 -5 82 16
0 17 -6 21 -32 21 -18 0 -70 3 -115 7 -80 6 -83 5 -83 -16z"/>
<path d="M2825 3456 c-21 -15 -17 -77 5 -84 12 -4 13 -2 3 9 -17 17 -16 54 0
68 28 23 52 -40 25 -67 -9 -9 -9 -12 0 -12 15 0 26 42 18 68 -9 26 -30 34 -51
18z"/>
<path d="M12092 3453 c-4 -10 -5 -34 -1 -53 l6 -35 2 33 c0 18 6 32 14 32 8 0
7 4 -3 10 -13 9 -13 11 0 20 9 6 11 10 3 10 -7 0 -16 -8 -21 -17z"/>
<path d="M12200 3466 c0 -2 7 -7 16 -10 8 -3 12 -2 9 4 -6 10 -25 14 -25 6z"/>
<path d="M12269 3453 c-13 -17 -12 -17 5 -3 16 13 20 12 32 -5 8 -10 14 -14
14 -9 0 11 -21 34 -31 34 -4 0 -13 -8 -20 -17z"/>
<path d="M1531 3415 c0 -38 2 -45 9 -28 5 12 5 34 0 50 -7 24 -8 21 -9 -22z"/>
<path d="M1587 3441 c3 -12 1 -21 -6 -21 -15 0 -14 -13 5 -36 15 -19 15 -19 6
0 -7 13 -6 26 1 38 9 13 8 21 0 29 -9 9 -11 7 -6 -10z"/>
<path d="M2730 3440 c0 -13 7 -20 20 -20 25 0 38 -28 19 -42 -12 -8 -11 -9 1
-5 8 2 15 15 15 28 0 18 -6 25 -23 27 -16 2 -22 8 -18 18 3 8 1 14 -4 14 -6 0
-10 -9 -10 -20z"/>
<path d="M11755 3450 c-3 -6 1 -7 9 -4 18 7 21 14 7 14 -6 0 -13 -4 -16 -10z"/>
<path d="M11906 3444 c-3 -8 -2 -12 4 -9 6 4 10 -9 10 -32 0 -22 4 -33 8 -26
10 15 3 83 -8 83 -4 0 -11 -7 -14 -16z"/>
<path d="M12174 3436 c-7 -29 3 -66 18 -66 6 0 5 6 -2 15 -16 20 1 41 25 31
12 -4 15 -13 12 -28 -5 -16 -3 -18 6 -9 16 16 -4 46 -32 45 -16 0 -20 4 -15
18 3 10 3 18 0 18 -3 0 -8 -11 -12 -24z"/>
<path d="M12397 3433 c3 -20 0 -39 -7 -48 -8 -10 -9 -15 -1 -15 16 0 25 48 13
73 -9 19 -10 18 -5 -10z"/>
<path d="M1625 3430 c-4 -6 -4 -14 -1 -17 3 -4 6 -1 6 5 0 7 10 12 21 12 18 0
21 -5 17 -30 -3 -19 -1 -27 5 -21 16 16 3 56 -20 59 -11 2 -24 -2 -28 -8z"/>
<path d="M1737 3434 c-4 -4 -7 -14 -7 -23 0 -13 2 -13 9 -3 6 10 10 7 15 -12
6 -25 26 -28 26 -4 0 6 -3 8 -7 4 -4 -3 -12 5 -17 20 -6 14 -14 22 -19 18z"/>
<path d="M1781 3424 c0 -11 3 -14 6 -6 3 7 2 16 -1 19 -3 4 -6 -2 -5 -13z"/>
<path d="M1815 3430 c-8 -13 3 -30 18 -29 9 0 9 2 0 6 -21 8 -15 26 7 20 11
-3 18 -1 14 4 -7 12 -31 11 -39 -1z"/>
<path d="M1920 3390 c0 -29 3 -50 7 -47 7 8 6 88 -2 95 -3 3 -5 -19 -5 -48z"/>
<path d="M1950 3433 c8 -3 19 -11 23 -17 6 -7 7 -6 4 4 -2 8 -12 16 -23 17
-13 2 -15 1 -4 -4z"/>
<path d="M2012 3428 c-15 -15 -16 -45 -2 -53 6 -3 7 1 4 9 -5 12 1 16 22 17
l29 1 -30 8 c-24 5 -27 8 -13 14 9 4 22 4 29 0 8 -4 9 -3 5 4 -9 15 -29 15
-44 0z"/>
<path d="M2081 3400 c1 -27 3 -29 6 -10 2 14 11 30 20 37 13 10 13 12 -6 10
-17 -1 -21 -7 -20 -37z"/>
<path d="M2170 3386 c0 -57 12 -56 14 1 1 45 30 59 45 21 7 -15 10 -17 10 -7
1 22 -20 38 -47 36 -19 -1 -22 -7 -22 -51z"/>
<path d="M2260 3432 c0 -6 9 -8 20 -5 11 3 20 0 20 -6 0 -6 -6 -11 -14 -11
-20 0 -40 -26 -26 -35 6 -4 9 -1 8 6 -2 7 6 15 16 17 14 3 17 0 13 -12 -4 -9
-2 -16 4 -16 6 0 9 15 7 33 -2 24 -8 33 -25 35 -13 2 -23 -1 -23 -6z"/>
<path d="M2340 3436 c0 -2 11 -6 25 -8 13 -3 22 -1 19 3 -5 9 -44 13 -44 5z"/>
<path d="M2425 3430 c-3 -5 0 -7 9 -4 8 3 21 2 28 -3 9 -5 2 -10 -22 -14 l-35
-6 38 -2 c38 -1 46 6 25 27 -15 15 -35 16 -43 2z"/>
<path d="M12012 3428 c-14 -14 -16 -44 -4 -52 4 -2 8 7 7 22 0 35 31 42 44 10
6 -14 10 -17 10 -7 1 17 -18 39 -34 39 -6 0 -16 -5 -23 -12z"/>
<path d="M12340 3419 c0 -13 5 -31 10 -39 7 -11 8 -5 4 20 -8 43 -14 51 -14
19z"/>
<path d="M13148 3424 c8 -15 8 -24 0 -32 -8 -8 -9 -12 -1 -12 20 0 24 33 7 49
-15 15 -15 14 -6 -5z"/>
<path d="M1701 3414 c0 -11 3 -14 6 -6 3 7 2 16 -1 19 -3 4 -6 -2 -5 -13z"/>
<path d="M2333 3401 c1 -14 9 -26 17 -28 10 -3 11 -2 4 4 -7 4 -14 17 -17 28
-5 16 -5 15 -4 -4z"/>
<path d="M11828 3413 c6 -2 18 -2 25 0 6 3 1 5 -13 5 -14 0 -19 -2 -12 -5z"/>
<path d="M11885 3409 c-4 -6 -5 -12 -2 -15 2 -3 7 2 10 11 7 17 1 20 -8 4z"/>
<path d="M12280 3395 c-13 -14 -19 -25 -14 -25 8 1 50 50 41 50 -2 0 -14 -11
-27 -25z"/>
<path d="M1851 3384 c0 -11 3 -14 6 -6 3 7 2 16 -1 19 -3 4 -6 -2 -5 -13z"/>
<path d="M1710 3380 c0 -5 5 -10 10 -10 6 0 10 5 10 10 0 6 -4 10 -10 10 -5 0
-10 -4 -10 -10z"/>
<path d="M1965 3380 c-3 -5 -1 -10 4 -10 6 0 11 5 11 10 0 6 -2 10 -4 10 -3 0
-8 -4 -11 -10z"/>
<path d="M2420 3380 c0 -5 5 -10 11 -10 5 0 7 5 4 10 -3 6 -8 10 -11 10 -2 0
-4 -4 -4 -10z"/>
<path d="M2730 3380 c0 -5 5 -10 11 -10 5 0 7 5 4 10 -3 6 -8 10 -11 10 -2 0
-4 -4 -4 -10z"/>
<path d="M322 533 c-2 -56 -14 -72 -39 -51 -14 11 -16 11 -11 -2 6 -20 47 -25
54 -7 3 8 3 36 1 63 l-3 49 -2 -52z"/>
<path d="M360 520 c0 -60 0 -60 29 -60 37 0 61 23 61 60 0 33 -31 60 -67 60
-21 0 -23 -4 -23 -60z m68 7 c4 -33 -13 -57 -39 -57 -16 0 -19 8 -19 46 0 44
1 45 28 42 21 -2 28 -9 30 -31z"/>
</g>
</svg>
