<?xml version="1.0" standalone="no"?>
<!DOCTYPE svg PUBLIC "-//W3C//DTD SVG 20010904//EN"
 "http://www.w3.org/TR/2001/REC-SVG-20010904/DTD/svg10.dtd">
<svg version="1.0" xmlns="http://www.w3.org/2000/svg"
 width="1440.000000pt" height="1183.000000pt" viewBox="0 0 1440.000000 1183.000000"
 preserveAspectRatio="xMidYMid meet">

<g transform="translate(0.000000,1183.000000) scale(0.100000,-0.100000)"
fill="#000000" stroke="none">
<path d="M317 11332 c-29 -30 -36 -79 -15 -100 7 -7 33 -12 58 -12 54 0 70 13
70 54 0 33 -43 86 -70 86 -9 0 -28 -13 -43 -28z m70 -4 c15 -14 23 -33 23 -55
0 -40 -17 -44 -22 -5 -2 21 -8 27 -28 27 -20 0 -26 -6 -28 -27 -5 -39 -22 -35
-22 4 0 19 9 41 22 55 26 28 26 28 55 1z m-17 -68 c0 -11 -4 -20 -10 -20 -5 0
-10 9 -10 20 0 11 5 20 10 20 6 0 10 -9 10 -20z"/>
<path d="M3540 10760 c0 -27 5 -50 10 -50 6 0 10 7 10 15 0 8 5 15 10 15 6 0
13 -7 16 -15 11 -27 19 -16 21 27 3 45 -7 58 -44 58 -21 0 -23 -5 -23 -50z
m53 15 c1 -5 -6 -11 -15 -13 -11 -2 -18 3 -18 13 0 17 30 18 33 0z"/>
<path d="M3342 10777 l-22 -23 27 -25 c23 -20 25 -20 9 -2 l-18 22 44 4 43 4
-44 1 c-43 2 -44 2 -26 22 25 28 13 25 -13 -3z"/>
<path d="M3709 10788 c-3 -32 4 -64 15 -76 12 -12 13 -3 7 81 -1 12 -21 8 -22
-5z"/>
<path d="M3632 10764 c-19 -34 8 -71 43 -58 24 10 17 22 -10 16 -15 -2 -25 0
-25 7 0 6 12 11 26 11 19 0 25 5 22 18 -4 23 -44 28 -56 6z m43 -4 c3 -5 -3
-10 -15 -10 -12 0 -18 5 -15 10 3 6 10 10 15 10 5 0 12 -4 15 -10z"/>
<path d="M3761 10748 c-1 -37 10 -48 42 -40 12 3 17 14 16 41 -1 36 -1 36 -8
6 -3 -17 -13 -30 -21 -30 -8 0 -18 13 -21 30 -7 29 -7 29 -8 -7z"/>
<path d="M3840 10745 c0 -19 5 -35 10 -35 6 0 10 13 10 29 0 16 6 32 13 34 6
3 2 6 -10 6 -20 1 -23 -4 -23 -34z"/>
<path d="M3890 10745 c0 -19 5 -35 10 -35 6 0 10 14 10 30 0 20 5 30 15 30 10
0 15 -10 15 -30 0 -16 5 -30 10 -30 6 0 10 9 10 19 0 37 -12 51 -41 51 -26 0
-29 -3 -29 -35z"/>
<path d="M330 10750 c0 -5 5 -10 10 -10 6 0 10 5 10 10 0 6 -4 10 -10 10 -5 0
-10 -4 -10 -10z"/>
<path d="M370 10750 c0 -5 5 -10 10 -10 6 0 10 5 10 10 0 6 -4 10 -10 10 -5 0
-10 -4 -10 -10z"/>
<path d="M330 10710 c0 -5 5 -10 10 -10 6 0 10 5 10 10 0 6 -4 10 -10 10 -5 0
-10 -4 -10 -10z"/>
<path d="M370 10710 c0 -5 5 -10 10 -10 6 0 10 5 10 10 0 6 -4 10 -10 10 -5 0
-10 -4 -10 -10z"/>
<path d="M320 10225 c-19 -23 -8 -50 20 -50 16 0 26 6 28 18 4 18 -14 47 -28
47 -4 0 -13 -7 -20 -15z m38 -22 c-2 -10 -10 -18 -18 -18 -8 0 -16 8 -18 18
-2 12 3 17 18 17 15 0 20 -5 18 -17z"/>
<path d="M390 10221 c13 -9 13 -14 2 -32 -11 -18 -11 -20 0 -17 18 6 17 50 -2
55 -13 4 -13 3 0 -6z"/>
<path d="M3775 10173 c-6 -10 -8 -38 -4 -63 6 -42 6 -43 7 -9 1 19 7 40 14 47
9 9 9 12 -2 12 -11 1 -10 5 4 15 14 11 16 15 5 15 -8 0 -19 -8 -24 -17z"/>
<path d="M3883 10183 c-7 -2 -13 -9 -13 -15 0 -6 6 -6 15 2 16 13 35 6 35 -15
0 -7 -11 -27 -25 -43 -32 -39 -32 -42 8 -41 l32 1 -28 7 -29 6 26 24 c29 27
34 66 10 75 -9 3 -16 6 -17 5 -1 0 -8 -3 -14 -6z"/>
<path d="M3186 10165 c-4 -11 6 -22 29 -36 19 -12 35 -25 35 -30 0 -17 -32
-22 -54 -9 -19 12 -20 12 -7 -4 20 -24 65 -17 69 11 3 17 -5 26 -34 38 -31 13
-34 17 -24 30 7 9 8 15 2 15 -5 0 -13 -7 -16 -15z"/>
<path d="M3288 10169 c-8 -25 7 -92 22 -96 12 -4 12 -2 2 5 -8 5 -12 25 -11
50 3 41 -5 65 -13 41z"/>
<path d="M3565 10170 c-3 -5 0 -7 9 -4 12 5 16 -5 19 -48 l3 -53 2 58 c2 44
-1 57 -12 57 -8 0 -18 -4 -21 -10z"/>
<path d="M300 10145 c-6 -8 -10 -22 -7 -32 4 -14 5 -13 6 5 1 19 7 22 41 22
31 0 40 -4 41 -17 0 -12 2 -13 6 -5 14 35 -61 58 -87 27z"/>
<path d="M3346 10144 c-19 -18 -20 -28 -6 -55 11 -19 44 -26 54 -10 3 4 -5 6
-18 4 -15 -3 -25 1 -29 11 -5 13 1 16 31 17 l37 2 -39 6 c-35 5 -38 7 -23 20
14 11 20 11 32 1 9 -7 15 -8 15 -2 0 5 -7 13 -16 16 -21 8 -20 8 -38 -10z"/>
<path d="M3474 10147 c24 -18 18 -62 -9 -62 -16 0 -20 7 -20 33 0 17 -3 32 -7
32 -5 0 -7 -26 -7 -57 1 -32 4 -48 6 -36 3 14 9 20 19 16 20 -7 44 15 44 41 0
23 -17 46 -34 46 -5 0 -2 -6 8 -13z"/>
<path d="M3686 10144 c-19 -18 -20 -28 -6 -55 19 -35 70 -14 70 30 0 12 -28
41 -40 41 -5 0 -16 -7 -24 -16z m44 -9 c16 -19 3 -55 -20 -55 -23 0 -36 36
-20 55 7 8 16 15 20 15 4 0 13 -7 20 -15z"/>
<path d="M406 10143 c6 -4 14 -15 17 -23 5 -11 6 -9 4 4 -1 11 -9 21 -17 23
-10 3 -11 2 -4 -4z"/>
<path d="M340 9672 c0 -4 -10 -12 -22 -17 -31 -14 -31 -76 0 -90 12 -5 22 -13
22 -17 0 -5 9 -8 20 -8 11 0 20 3 20 8 0 4 10 12 22 17 17 8 22 19 22 45 0 26
-5 37 -22 45 -12 5 -22 13 -22 17 0 5 -9 8 -20 8 -11 0 -20 -3 -20 -8z m34
-17 c3 -8 12 -15 19 -15 9 0 14 -11 14 -30 0 -18 -6 -30 -13 -30 -7 0 -18 -8
-24 -17 -10 -17 -10 -17 -20 0 -6 9 -17 17 -24 17 -7 0 -13 12 -13 30 0 19 5
30 14 30 7 0 16 7 19 15 4 8 10 15 14 15 4 0 10 -7 14 -15z"/>
<path d="M340 9624 c-11 -12 -10 -18 3 -32 16 -15 18 -15 34 0 13 14 14 20 3
32 -7 9 -16 16 -20 16 -4 0 -13 -7 -20 -16z m30 -14 c0 -5 -4 -10 -10 -10 -5
0 -10 5 -10 10 0 6 5 10 10 10 6 0 10 -4 10 -10z"/>
<path d="M9091 9464 c-19 -24 -21 -40 -21 -149 0 -109 2 -125 21 -149 l20 -26
1039 0 1039 0 20 26 c19 24 21 40 21 149 0 109 -2 125 -21 149 l-20 26 -1039
0 -1039 0 -20 -26z m217 -106 c7 -7 12 -16 12 -22 0 -6 -5 -5 -12 2 -29 29
-66 2 -53 -39 7 -21 35 -25 53 -7 7 7 12 8 12 2 0 -14 -21 -34 -36 -34 -20 0
-44 30 -44 55 0 42 42 69 68 43z m1329 -70 c-2 -18 -4 -6 -4 27 0 33 2 48 4
33 2 -15 2 -42 0 -60z m253 78 c0 -3 -4 -8 -10 -11 -5 -3 -10 -1 -10 4 0 6 5
11 10 11 6 0 10 -2 10 -4z m-1359 -13 c5 -78 4 -91 -7 -86 -12 4 -23 61 -16
82 4 12 22 15 23 4z m366 -24 c-5 -4 -7 -21 -4 -38 4 -20 3 -30 -3 -26 -6 3
-10 19 -10 36 0 16 -5 29 -10 29 -7 0 -6 5 2 13 9 10 15 11 24 3 8 -7 8 -13 1
-17z m950 0 c-5 -4 -7 -21 -4 -38 4 -20 3 -30 -3 -26 -6 3 -10 19 -10 36 0 16
-5 29 -10 29 -7 0 -6 5 2 13 9 10 15 11 24 3 8 -7 8 -13 1 -17z m-1447 -4 c26
-31 -13 -82 -44 -56 -16 14 -22 52 -9 64 11 12 40 8 53 -8z m88 -22 c2 -19 -1
-33 -7 -33 -6 0 -11 14 -11 31 0 41 -24 33 -28 -9 -4 -42 -22 -31 -22 13 0 31
2 33 33 32 28 -2 32 -6 35 -34z m79 -25 c-2 -13 -4 -3 -4 22 0 25 2 35 4 23 2
-13 2 -33 0 -45z m88 32 c4 -16 3 -35 -2 -42 -5 -9 -10 -1 -13 21 -7 45 -30
54 -30 12 0 -17 -4 -31 -10 -31 -5 0 -10 16 -10 35 0 32 2 35 29 35 24 0 31
-5 36 -30z m35 0 c0 -20 5 -30 15 -30 10 0 15 10 15 30 0 17 5 30 10 30 6 0
10 -15 10 -34 0 -26 -5 -35 -22 -39 -12 -4 -28 -1 -35 5 -15 12 -18 68 -3 68
6 0 10 -13 10 -30z m128 8 c3 -13 -3 -18 -22 -18 -14 0 -26 -4 -26 -10 0 -5
12 -10 28 -10 23 -1 24 -2 10 -11 -38 -22 -77 28 -46 59 17 17 52 11 56 -10z
m160 10 c30 -30 -11 -85 -44 -57 -14 12 -19 51 -7 62 10 11 38 8 51 -5z m112
2 c0 -5 -7 -7 -15 -4 -8 4 -15 1 -15 -4 0 -6 9 -14 20 -17 11 -3 20 -10 20
-14 0 -15 -30 -33 -45 -27 -23 9 -18 25 7 18 14 -3 19 -2 14 6 -4 7 -14 12
-22 12 -14 0 -19 21 -7 33 10 11 43 8 43 -3z m80 0 c0 -5 -7 -7 -16 -3 -19 7
-35 -14 -27 -34 4 -10 14 -12 32 -8 25 6 25 6 8 -12 -29 -30 -69 10 -53 53 6
16 56 20 56 4z m80 -5 c25 -30 -16 -79 -46 -54 -15 12 -19 51 -7 62 11 12 40
8 53 -8z m88 -19 c4 -30 -13 -49 -35 -41 -7 2 -13 -2 -13 -10 0 -8 -4 -15 -10
-15 -5 0 -10 23 -10 51 l0 50 33 -3 c27 -3 33 -7 35 -32z m80 12 c3 -13 -3
-18 -22 -18 -14 0 -26 -5 -26 -11 0 -7 10 -9 25 -7 27 6 34 -6 10 -16 -35 -13
-62 24 -43 58 12 22 52 17 56 -6z m108 11 c4 -8 0 -9 -15 -4 -11 3 -21 2 -21
-3 0 -5 9 -12 20 -15 11 -3 20 -12 20 -20 0 -18 -27 -30 -43 -20 -7 4 -2 10
13 14 l25 6 -27 11 c-28 11 -34 22 -21 35 10 11 41 8 49 -4z m82 -11 c3 -13
-3 -18 -22 -18 -14 0 -26 -5 -26 -11 0 -7 10 -9 25 -7 27 6 34 -6 10 -16 -35
-13 -63 21 -44 55 13 25 52 22 57 -3z m110 10 c20 -20 14 -28 -19 -28 -19 0
-28 -4 -23 -11 3 -6 15 -9 25 -6 23 6 26 -11 4 -19 -30 -12 -62 46 -38 69 10
11 38 8 51 -5z m82 2 c0 -5 -7 -7 -16 -3 -19 7 -35 -14 -27 -34 4 -10 14 -12
32 -8 25 6 25 6 8 -12 -29 -30 -69 10 -53 53 6 16 56 20 56 4z m90 -25 c0 -19
-4 -35 -10 -35 -5 0 -10 16 -10 35 0 19 5 35 10 35 6 0 10 -16 10 -35z m78 4
c4 -34 -20 -54 -47 -39 -38 20 -18 74 24 68 13 -2 21 -12 23 -29z m79 -14 l1
-40 -6 35 c-4 22 -13 35 -22 35 -9 0 -17 -13 -21 -35 l-6 -35 -2 41 c-1 39 1
41 27 40 24 -1 27 -5 29 -41z"/>
<path d="M9356 9314 c-8 -20 1 -34 20 -34 8 0 14 10 14 25 0 28 -24 34 -34 9z"/>
<path d="M9770 9320 c0 -5 7 -10 15 -10 8 0 15 5 15 10 0 6 -7 10 -15 10 -8 0
-15 -4 -15 -10z"/>
<path d="M9934 9316 c-7 -19 3 -36 22 -36 10 0 14 8 12 22 -4 26 -26 36 -34
14z"/>
<path d="M10204 9316 c-7 -19 3 -36 22 -36 10 0 14 8 12 22 -4 26 -26 36 -34
14z"/>
<path d="M10297 9324 c-15 -15 -7 -45 11 -42 9 2 17 12 17 22 0 20 -16 31 -28
20z"/>
<path d="M10375 9320 c-3 -5 3 -10 15 -10 12 0 18 5 15 10 -3 6 -10 10 -15 10
-5 0 -12 -4 -15 -10z"/>
<path d="M10565 9320 c-3 -5 3 -10 15 -10 12 0 18 5 15 10 -3 6 -10 10 -15 10
-5 0 -12 -4 -15 -10z"/>
<path d="M10675 9320 c-3 -5 3 -10 14 -10 12 0 21 5 21 10 0 6 -6 10 -14 10
-8 0 -18 -4 -21 -10z"/>
<path d="M10927 9323 c-13 -12 -7 -43 7 -43 19 0 28 14 20 34 -7 17 -16 20
-27 9z"/>
<path d="M4566 9423 c-11 -11 -6 -23 9 -23 8 0 15 4 15 9 0 13 -16 22 -24 14z"/>
<path d="M3190 9335 c0 -98 18 -116 22 -22 l3 62 44 -62 c61 -87 71 -83 71 22
0 69 -3 85 -15 85 -12 0 -15 -14 -15 -62 l0 -62 -42 62 c-24 34 -49 62 -55 62
-10 0 -13 -24 -13 -85z"/>
<path d="M3770 9335 c0 -69 3 -85 15 -85 10 0 15 10 15 30 0 23 4 30 20 30 12
0 26 -12 35 -30 9 -16 22 -30 31 -30 13 0 13 4 -2 29 -16 27 -16 30 0 52 21
31 20 45 -4 69 -14 14 -33 20 -65 20 l-45 0 0 -85z m91 49 c18 -21 0 -48 -35
-52 -24 -3 -26 0 -26 32 0 31 3 36 24 36 13 0 29 -7 37 -16z"/>
<path d="M4220 9335 c0 -50 4 -85 10 -85 6 0 10 35 10 85 0 50 -4 85 -10 85
-6 0 -10 -35 -10 -85z"/>
<path d="M4750 9335 c0 -69 3 -85 15 -85 11 0 15 12 15 49 0 36 4 51 16 55 27
10 44 -13 44 -60 0 -24 5 -44 10 -44 6 0 10 25 10 55 0 49 -3 57 -25 67 -19 8
-28 8 -40 -2 -13 -11 -15 -8 -15 19 0 21 -5 31 -15 31 -12 0 -15 -16 -15 -85z"/>
<path d="M5402 9393 c-22 -42 8 -152 40 -153 15 0 18 21 4 26 -24 9 -22 94 2
94 16 1 16 1 0 14 -10 7 -18 18 -18 25 0 17 -18 13 -28 -6z"/>
<path d="M3382 9357 c-28 -30 -28 -71 0 -97 27 -25 49 -25 79 0 26 21 11 27
-20 8 -15 -9 -23 -9 -35 1 -27 22 -18 31 29 31 38 0 45 3 45 20 0 25 -34 60
-58 60 -10 0 -28 -10 -40 -23z m52 -3 c28 -11 18 -34 -14 -34 -32 0 -37 9 -18
28 14 14 12 14 32 6z"/>
<path d="M3502 9364 c3 -11 12 -40 19 -66 9 -35 18 -48 31 -48 10 0 18 6 18
14 0 8 5 27 11 43 l11 28 12 -40 c18 -62 40 -57 60 16 9 34 15 64 12 66 -10
11 -24 -9 -30 -42 -9 -45 -22 -45 -33 3 -12 51 -34 48 -49 -8 -11 -45 -14 -44
-31 14 -5 17 -15 32 -23 34 -9 3 -11 -1 -8 -14z"/>
<path d="M3940 9360 c-38 -38 -13 -120 38 -120 22 0 59 26 50 35 -3 4 -15 2
-26 -4 -24 -13 -52 -5 -52 15 0 10 13 14 46 14 45 0 46 1 40 28 -13 52 -60 68
-96 32z m54 -6 c28 -11 18 -34 -14 -34 -30 0 -43 23 -17 33 6 3 13 6 14 6 1 1
8 -2 17 -5z"/>
<path d="M4070 9290 c0 -53 4 -90 10 -90 6 0 10 13 10 30 0 28 1 29 25 18 22
-10 29 -9 45 8 32 33 35 67 7 100 -22 25 -27 27 -51 16 -15 -7 -26 -8 -26 -2
0 6 -4 10 -10 10 -6 0 -10 -37 -10 -90z m90 20 c0 -38 -31 -57 -54 -34 -33 33
-4 94 35 74 12 -7 19 -21 19 -40z"/>
<path d="M4290 9360 c-38 -38 -13 -120 38 -120 23 0 59 26 50 36 -4 4 -14 1
-22 -5 -18 -15 -56 -5 -56 15 0 10 13 14 45 14 38 0 45 3 45 20 0 26 -34 60
-60 60 -11 0 -29 -9 -40 -20z m54 -6 c28 -11 18 -34 -14 -34 -30 0 -43 23 -17
33 6 3 13 6 14 6 1 1 8 -2 17 -5z"/>
<path d="M4420 9315 c0 -37 4 -65 10 -65 6 0 10 20 10 45 0 32 5 47 18 53 30
16 42 3 42 -49 0 -37 4 -49 15 -49 23 0 20 82 -4 111 -16 21 -22 22 -45 11
-15 -7 -26 -8 -26 -2 0 6 -4 10 -10 10 -6 0 -10 -28 -10 -65z"/>
<path d="M4560 9316 c0 -53 3 -66 15 -66 13 0 15 11 13 62 -2 38 -8 63 -15 66
-10 3 -13 -14 -13 -62z"/>
<path d="M4638 9369 c-10 -5 -18 -19 -18 -30 0 -18 14 -27 64 -44 18 -5 18 -7
4 -21 -13 -13 -20 -14 -38 -4 -28 15 -41 3 -16 -16 23 -17 40 -18 67 -4 34 19
18 70 -22 70 -23 0 -34 19 -21 32 8 8 16 8 26 -1 23 -20 42 -9 22 12 -20 19
-43 21 -68 6z"/>
<path d="M4900 9315 c0 -37 4 -65 10 -65 6 0 10 20 10 44 0 44 19 74 40 61 5
-3 10 -28 10 -56 0 -37 4 -49 15 -49 11 0 15 12 15 49 0 48 10 63 38 54 7 -3
12 -23 12 -54 0 -27 5 -49 10 -49 6 0 10 24 10 54 0 63 -17 85 -53 69 -16 -8
-29 -8 -42 -1 -13 8 -24 7 -37 -1 -11 -7 -18 -7 -18 -1 0 5 -4 10 -10 10 -6 0
-10 -28 -10 -65z"/>
<path d="M5132 9363 c-35 -30 -38 -68 -8 -97 30 -31 57 -33 81 -6 20 22 6 27
-24 8 -15 -9 -23 -9 -35 1 -27 22 -18 31 29 31 41 0 45 2 45 24 0 24 -32 56
-56 56 -7 0 -21 -8 -32 -17z m49 -13 c30 -16 23 -30 -16 -30 -37 0 -43 8 -23
28 15 15 15 15 39 2z"/>
<path d="M5250 9315 c0 -51 3 -65 15 -65 11 0 15 12 15 49 0 34 5 51 15 55 23
9 45 -22 45 -65 0 -21 5 -39 10 -39 6 0 10 22 10 49 0 67 -34 101 -69 69 -11
-10 -14 -10 -18 0 -12 32 -23 6 -23 -53z"/>
<path d="M3196 8934 c-28 -28 -13 -94 22 -94 13 0 12 3 -6 16 -45 31 -8 105
38 76 11 -7 20 -8 20 -3 0 23 -53 27 -74 5z"/>
<path d="M3482 8930 c-7 -11 -8 -20 -3 -20 6 0 11 -17 13 -37 l3 -38 5 42 c7
57 -1 80 -18 53z"/>
<path d="M6480 8931 c0 -14 -6 -17 -23 -14 -30 6 -51 -19 -43 -52 4 -14 11
-25 16 -25 6 0 5 8 -1 19 -16 24 -5 51 20 51 23 0 37 -35 22 -54 -8 -9 -7 -13
4 -13 11 0 15 13 15 54 0 29 -2 53 -5 53 -3 0 -5 -8 -5 -19z"/>
<path d="M6722 8895 c1 -47 2 -52 7 -25 4 26 11 35 26 35 15 0 22 -9 27 -35
l6 -35 -1 40 c-2 36 -5 40 -27 40 -16 0 -27 7 -32 20 -3 11 -6 -7 -6 -40z"/>
<path d="M6960 8931 c0 -14 -6 -17 -25 -14 -19 4 -25 0 -31 -21 -7 -29 0 -56
16 -56 7 0 6 7 -1 19 -16 24 -4 53 18 49 12 -2 20 -16 24 -38 5 -29 7 -25 8
23 0 31 -1 57 -4 57 -3 0 -5 -8 -5 -19z"/>
<path d="M7093 8895 c0 -33 2 -45 4 -27 2 18 2 45 0 60 -2 15 -4 0 -4 -33z"/>
<path d="M4688 8927 c-7 -22 7 -80 20 -83 7 -1 8 0 2 3 -12 6 -13 60 -1 65 5
2 3 8 -4 15 -10 9 -14 9 -17 0z"/>
<path d="M5520 8925 c-8 -10 -9 -15 -1 -15 6 0 11 -16 11 -35 0 -19 3 -35 8
-35 7 0 7 88 -1 96 -2 2 -10 -2 -17 -11z"/>
<path d="M5789 8928 c-2 -29 3 -74 10 -81 4 -4 6 7 3 24 -3 17 0 34 6 38 6 4
5 11 -4 19 -11 10 -14 10 -15 0z"/>
<path d="M5848 8929 c-6 -17 4 -89 11 -89 4 0 5 14 3 31 -3 17 0 34 6 38 6 4
5 10 -3 18 -9 8 -15 9 -17 2z"/>
<path d="M3300 8899 c-7 -11 -9 -23 -7 -26 3 -2 8 5 12 16 8 25 43 28 52 5 3
-9 1 -25 -6 -35 -6 -11 -7 -19 -1 -19 5 0 12 11 16 25 12 48 -44 77 -66 34z"/>
<path d="M3393 8880 c0 -25 2 -35 4 -22 2 12 2 32 0 45 -2 12 -4 2 -4 -23z"/>
<path d="M3410 8916 c0 -2 9 -6 20 -9 11 -3 20 -1 20 4 0 5 -9 9 -20 9 -11 0
-20 -2 -20 -4z"/>
<path d="M3533 8880 c0 -25 2 -35 4 -22 2 12 2 32 0 45 -2 12 -4 2 -4 -23z"/>
<path d="M3574 8906 c-3 -8 -4 -25 -2 -38 2 -18 9 -23 31 -23 20 1 27 -4 24
-15 -2 -10 -13 -14 -32 -13 -28 1 -29 1 -8 -9 34 -16 53 5 53 61 0 45 -1 47
-30 49 -19 1 -33 -3 -36 -12z m51 -26 c0 -18 -6 -26 -22 -28 -20 -3 -23 1 -23
28 0 27 3 31 23 28 16 -2 22 -10 22 -28z"/>
<path d="M3661 8898 c-1 -32 8 -58 21 -58 7 0 7 4 0 13 -6 6 -12 26 -15 42 -4
29 -4 29 -6 3z"/>
<path d="M3720 8892 c0 -15 -5 -33 -10 -38 -7 -7 -6 -11 5 -11 11 0 15 11 15
39 0 21 -2 38 -5 38 -3 0 -5 -13 -5 -28z"/>
<path d="M3751 8875 c2 -33 3 -35 6 -10 2 17 11 35 20 42 13 10 13 12 -6 10
-18 -1 -21 -7 -20 -42z"/>
<path d="M3810 8901 c-13 -25 -13 -31 0 -31 6 0 10 10 10 21 0 17 5 20 25 17
13 -3 22 -1 19 3 -10 16 -43 9 -54 -10z"/>
<path d="M3941 8916 c-1 -5 4 -26 10 -47 10 -30 9 -42 -1 -54 -11 -13 -10 -15
2 -10 15 6 54 102 45 111 -3 3 -8 -8 -12 -25 -9 -40 -19 -39 -33 2 -5 17 -10
28 -11 23z"/>
<path d="M4024 8896 c-7 -31 1 -56 18 -56 10 0 10 2 0 9 -21 13 -11 56 13 56
24 0 34 -43 13 -57 -10 -8 -10 -9 2 -5 10 2 15 16 15 38 0 30 -4 34 -27 37
-22 3 -29 -2 -34 -22z"/>
<path d="M4111 8898 c-1 -32 8 -58 21 -58 7 0 7 4 0 13 -6 6 -12 26 -15 42 -4
29 -4 29 -6 3z"/>
<path d="M4170 8892 c0 -15 -5 -33 -10 -38 -7 -7 -6 -11 5 -11 11 0 15 11 15
39 0 21 -2 38 -5 38 -3 0 -5 -13 -5 -28z"/>
<path d="M4201 8875 c2 -33 3 -35 6 -10 2 17 11 35 20 42 13 10 13 12 -6 10
-18 -1 -21 -7 -20 -42z"/>
<path d="M4303 8880 c0 -25 2 -35 4 -22 2 12 2 32 0 45 -2 12 -4 2 -4 -23z"/>
<path d="M4343 8880 c0 -25 2 -35 4 -22 2 12 2 32 0 45 -2 12 -4 2 -4 -23z"/>
<path d="M4372 8914 c11 -3 18 -19 21 -42 l4 -37 -1 40 c-1 32 -5 40 -21 42
-15 1 -15 0 -3 -3z"/>
<path d="M4420 8916 c0 -2 7 -20 15 -40 14 -33 35 -42 35 -15 0 6 -4 8 -9 5
-5 -3 -14 8 -20 24 -8 25 -21 41 -21 26z"/>
<path d="M4476 8905 c-9 -26 -7 -32 5 -12 6 10 9 21 6 23 -2 3 -7 -2 -11 -11z"/>
<path d="M4510 8901 c-13 -25 -13 -31 0 -31 6 0 10 10 10 21 0 17 5 20 25 17
13 -3 22 -1 19 3 -10 16 -43 9 -54 -10z"/>
<path d="M4603 8880 c0 -25 2 -35 4 -22 2 12 2 32 0 45 -2 12 -4 2 -4 -23z"/>
<path d="M4632 8914 c11 -3 18 -19 21 -42 l4 -37 -1 40 c-1 32 -5 40 -21 42
-15 1 -15 0 -3 -3z"/>
<path d="M4744 8896 c-7 -31 1 -56 18 -56 10 0 10 2 0 9 -21 13 -11 56 13 56
24 0 34 -43 13 -57 -10 -8 -10 -9 2 -5 10 2 15 16 15 38 0 30 -4 34 -27 37
-22 3 -29 -2 -34 -22z"/>
<path d="M4831 8878 c2 -34 3 -37 6 -13 2 17 12 36 21 43 14 11 13 12 -6 12
-19 0 -22 -5 -21 -42z"/>
<path d="M4891 8917 c-1 -4 6 -24 14 -44 9 -20 13 -44 10 -52 -4 -10 -3 -12 3
-6 13 14 43 107 32 100 -5 -3 -12 -20 -16 -38 l-7 -32 -18 40 c-10 22 -18 36
-18 32z"/>
<path d="M5021 8875 c2 -33 3 -35 6 -10 2 17 11 35 20 42 13 10 13 12 -6 10
-18 -1 -21 -7 -20 -42z"/>
<path d="M5081 8906 c-15 -18 -7 -66 10 -66 8 0 8 4 1 13 -6 7 -10 22 -8 32 4
26 43 32 50 8 4 -15 5 -15 3 2 -3 25 -39 32 -56 11z"/>
<path d="M5170 8905 c-14 -17 -5 -65 12 -65 9 0 9 3 0 12 -19 19 -14 48 11 58
15 6 17 9 6 9 -9 1 -22 -6 -29 -14z"/>
<path d="M5264 8880 c1 -30 5 -35 29 -38 26 -3 27 -2 25 40 l-1 43 -4 -37 c-3
-29 -9 -38 -23 -38 -14 0 -20 9 -23 33 -4 32 -4 32 -3 -3z"/>
<path d="M5357 8913 c-10 -9 -9 -61 1 -67 4 -2 6 11 4 31 -4 32 -2 34 19 31
13 -2 23 -9 22 -16 -2 -6 2 -12 7 -12 14 0 13 13 -2 28 -13 13 -41 16 -51 5z"/>
<path d="M5447 8913 c-10 -10 -8 -33 3 -33 5 0 7 6 4 14 -4 9 3 16 18 19 20 4
21 4 2 6 -11 0 -24 -2 -27 -6z"/>
<path d="M5620 8902 c0 -11 12 -24 27 -31 22 -10 24 -14 12 -22 -12 -9 -12
-10 0 -7 25 7 24 28 -3 38 -31 11 -36 35 -6 27 11 -3 20 -1 20 4 0 5 -11 9
-25 9 -18 0 -25 -5 -25 -18z"/>
<path d="M5706 8911 c-3 -4 6 -6 19 -3 18 3 25 0 25 -12 0 -9 5 -16 10 -16 7
0 7 6 0 20 -11 20 -44 27 -54 11z"/>
<path d="M5903 8880 c0 -25 2 -35 4 -22 2 12 2 32 0 45 -2 12 -4 2 -4 -23z"/>
<path d="M5931 8876 l2 -41 6 35 c4 26 11 35 26 35 15 0 22 -9 27 -35 l6 -35
-1 40 c-2 38 -4 40 -34 41 -32 1 -33 0 -32 -40z"/>
<path d="M6024 8895 c-9 -35 2 -55 28 -54 l23 0 -23 10 c-30 11 -27 54 3 54
17 0 20 -7 20 -45 0 -40 -2 -45 -23 -44 -14 0 -19 -3 -13 -9 5 -5 18 -6 30 -2
18 5 21 14 21 59 0 50 -1 52 -30 54 -24 2 -31 -2 -36 -23z"/>
<path d="M6120 8902 c0 -11 12 -24 27 -31 22 -10 24 -14 12 -22 -12 -9 -12
-10 0 -7 25 7 24 28 -3 38 -31 11 -36 35 -6 27 11 -3 20 -1 20 4 0 5 -11 9
-25 9 -18 0 -25 -5 -25 -18z"/>
<path d="M6246 8912 c-3 -5 6 -7 19 -4 23 4 24 2 21 -32 -1 -20 2 -36 6 -36 5
0 8 17 6 38 -2 29 -8 38 -25 40 -11 2 -24 -1 -27 -6z"/>
<path d="M6333 8880 c0 -25 2 -35 4 -22 2 12 2 32 0 45 -2 12 -4 2 -4 -23z"/>
<path d="M6362 8914 c11 -3 18 -19 21 -42 l4 -37 -1 40 c-1 32 -5 40 -21 42
-15 1 -15 0 -3 -3z"/>
<path d="M6557 8913 c-13 -12 -7 -23 18 -35 15 -7 24 -17 21 -25 -3 -7 -1 -13
4 -13 22 0 9 38 -15 44 -15 4 -23 11 -19 17 3 6 15 9 25 6 11 -3 17 -1 13 4
-6 10 -38 12 -47 2z"/>
<path d="M6640 8905 c-13 -16 -6 -65 10 -65 6 0 5 8 -1 19 -18 28 -4 54 26 49
13 -3 22 -1 19 3 -8 14 -40 10 -54 -6z"/>
<path d="M6814 8896 c-7 -31 1 -56 18 -56 10 0 10 2 0 9 -21 13 -11 55 15 59
13 2 23 -3 26 -13 4 -12 5 -11 3 2 -1 12 -11 19 -28 21 -22 3 -29 -2 -34 -22z"/>
<path d="M7004 8880 c1 -30 5 -35 29 -38 26 -3 27 -2 25 40 l-1 43 -4 -37 c-3
-29 -9 -38 -23 -38 -14 0 -20 9 -23 33 -4 32 -4 32 -3 -3z"/>
<path d="M7131 8906 c-16 -19 -10 -58 9 -64 12 -4 13 -2 3 9 -6 8 -11 24 -9
34 4 26 43 32 50 8 4 -15 5 -15 3 2 -3 25 -39 32 -56 11z"/>
<path d="M5218 8876 c-2 -19 -1 -43 3 -53 5 -11 8 2 8 35 1 59 -5 69 -11 18z"/>
<path d="M3452 8865 c0 -16 2 -22 5 -12 2 9 2 23 0 30 -3 6 -5 -1 -5 -18z"/>
<path d="M5690 8876 c0 -7 8 -20 18 -27 14 -11 15 -11 5 0 -6 7 -9 20 -6 27 3
8 0 14 -6 14 -6 0 -11 -6 -11 -14z"/>
<path d="M5479 8871 c8 -5 10 -14 6 -22 -6 -11 -5 -11 5 -2 14 12 6 33 -13 33
-8 0 -7 -3 2 -9z"/>
<path d="M6240 8860 c0 -11 2 -20 4 -20 2 0 6 9 9 20 3 11 1 20 -4 20 -5 0 -9
-9 -9 -20z"/>
<path d="M3252 8854 c-7 -8 -8 -14 -3 -14 10 0 25 19 20 25 -2 1 -10 -3 -17
-11z"/>
<path d="M3855 8850 c-3 -5 -1 -10 4 -10 6 0 11 5 11 10 0 6 -2 10 -4 10 -3 0
-8 -4 -11 -10z"/>
<path d="M5125 8850 c-3 -5 -1 -10 4 -10 6 0 11 5 11 10 0 6 -2 10 -4 10 -3 0
-8 -4 -11 -10z"/>
<path d="M5745 8850 c-3 -5 -1 -10 4 -10 6 0 11 5 11 10 0 6 -2 10 -4 10 -3 0
-8 -4 -11 -10z"/>
<path d="M7175 8850 c-3 -5 -1 -10 4 -10 6 0 11 5 11 10 0 6 -2 10 -4 10 -3 0
-8 -4 -11 -10z"/>
<path d="M3180 8393 c0 -29 5 -53 10 -53 6 0 10 15 10 32 l0 33 23 -32 c12
-18 25 -33 30 -33 4 0 6 24 5 53 -1 46 -2 48 -5 12 l-4 -39 -34 39 -34 40 -1
-52z"/>
<path d="M3688 8423 c-2 -10 -1 -34 3 -53 l6 -35 2 33 c0 18 6 32 14 32 8 0 7
4 -3 10 -13 9 -13 11 0 20 13 8 13 10 -1 10 -9 0 -18 -8 -21 -17z"/>
<path d="M4220 8415 c-8 -10 -9 -15 -1 -15 6 0 11 -13 11 -29 0 -17 4 -32 8
-35 8 -5 7 82 -1 90 -2 3 -10 -2 -17 -11z"/>
<path d="M3285 8400 c-5 -9 -1 -10 13 -6 11 4 23 2 27 -4 3 -6 -3 -10 -15 -10
-23 0 -38 -26 -24 -40 5 -5 20 -7 32 -3 32 8 28 66 -5 71 -11 2 -24 -2 -28 -8z
m45 -40 c0 -5 -9 -10 -21 -10 -11 0 -17 5 -14 10 3 6 13 10 21 10 8 0 14 -4
14 -10z"/>
<path d="M3360 8374 c0 -19 5 -34 10 -34 6 0 10 14 10 31 0 39 22 34 31 -7 l7
-29 1 33 c1 21 6 32 15 32 9 0 16 -13 19 -32 l4 -33 1 37 2 36 -50 0 -50 1 0
-35z"/>
<path d="M3486 8394 c-11 -28 -6 -43 15 -55 15 -8 24 -8 32 0 8 8 5 11 -11 11
-12 0 -22 5 -22 10 0 6 12 10 26 10 20 0 25 4 20 16 -3 9 -6 18 -6 20 0 12
-49 2 -54 -12z m44 -4 c0 -5 -7 -10 -15 -10 -8 0 -15 5 -15 10 0 6 7 10 15 10
8 0 15 -4 15 -10z"/>
<path d="M3607 8403 c-12 -11 -8 -50 7 -62 30 -25 71 24 46 54 -13 16 -42 20
-53 8z m43 -28 c0 -25 -23 -35 -35 -15 -10 16 2 40 20 40 9 0 15 -9 15 -25z"/>
<path d="M3771 8373 c1 -27 3 -31 6 -13 2 14 12 31 21 38 14 11 13 12 -6 12
-19 0 -22 -5 -21 -37z"/>
<path d="M3822 8394 c-19 -34 8 -71 43 -58 24 10 17 22 -10 16 -15 -2 -25 0
-25 7 0 6 12 11 26 11 19 0 25 5 22 18 -4 23 -44 28 -56 6z m43 -4 c3 -5 -3
-10 -15 -10 -12 0 -18 5 -15 10 3 6 10 10 15 10 5 0 12 -4 15 -10z"/>
<path d="M3906 8403 c-3 -3 -6 -19 -6 -35 0 -26 8 -32 37 -29 6 1 14 -6 16
-16 3 -10 5 5 6 32 1 46 -1 51 -23 53 -13 1 -26 -1 -30 -5z m42 -31 c3 -17 -2
-22 -17 -22 -14 0 -21 6 -21 18 0 38 33 41 38 4z"/>
<path d="M3980 8381 c0 -35 19 -52 48 -44 17 4 22 13 22 39 0 19 -4 34 -10 34
-5 0 -10 -13 -10 -30 0 -20 -5 -30 -15 -30 -10 0 -15 10 -15 30 0 17 -4 30
-10 30 -5 0 -10 -13 -10 -29z"/>
<path d="M4071 8396 c-24 -29 16 -83 43 -56 7 7 3 10 -12 10 -12 0 -22 5 -22
10 0 6 12 10 26 10 19 0 25 5 22 18 -4 22 -41 27 -57 8z m44 -6 c3 -5 -3 -10
-14 -10 -12 0 -21 5 -21 10 0 6 6 10 14 10 8 0 18 -4 21 -10z"/>
<path d="M4150 8391 c0 -11 10 -22 23 -26 l22 -7 -25 -7 c-15 -4 -20 -10 -13
-14 16 -10 43 2 43 20 0 8 -9 17 -20 20 -11 3 -20 10 -20 15 0 6 9 8 20 5 11
-3 18 -1 14 4 -10 17 -44 10 -44 -10z"/>
<path d="M3683 8050 c0 -30 2 -43 4 -27 2 15 2 39 0 55 -2 15 -4 2 -4 -28z"/>
<path d="M3760 8050 c0 -29 3 -51 6 -47 8 7 7 87 0 95 -3 3 -6 -19 -6 -48z"/>
<path d="M4033 8050 c0 -30 2 -43 4 -27 2 15 2 39 0 55 -2 15 -4 2 -4 -28z"/>
<path d="M4313 8050 c0 -30 2 -44 4 -32 3 17 10 23 23 19 10 -3 21 1 23 8 4 8
-2 10 -18 7 -20 -3 -24 1 -28 24 -2 16 -4 4 -4 -26z"/>
<path d="M4340 8096 c0 -2 7 -7 16 -10 8 -3 12 -2 9 4 -6 10 -25 14 -25 6z"/>
<path d="M4551 8053 c-1 -23 3 -44 7 -47 4 -2 6 12 4 32 -5 56 -10 62 -11 15z"/>
<path d="M4113 8035 c0 -22 2 -30 4 -17 2 12 2 30 0 40 -3 9 -5 -1 -4 -23z"/>
<path d="M4779 8053 c-13 -16 -12 -17 4 -4 9 7 17 15 17 17 0 8 -8 3 -21 -13z"/>
<path d="M4903 8035 c0 -22 2 -30 4 -17 2 12 2 30 0 40 -3 9 -5 -1 -4 -23z"/>
<path d="M4983 8035 c0 -22 2 -30 4 -17 2 12 2 30 0 40 -3 9 -5 -1 -4 -23z"/>
<path d="M5223 8035 c0 -22 2 -30 4 -17 2 12 2 30 0 40 -3 9 -5 -1 -4 -23z"/>
<path d="M4952 8030 c0 -19 2 -27 5 -17 2 9 2 25 0 35 -3 9 -5 1 -5 -18z"/>
<path d="M5142 8030 c0 -19 2 -27 5 -17 2 9 2 25 0 35 -3 9 -5 1 -5 -18z"/>
<path d="M3301 8034 c0 -11 3 -14 6 -6 3 7 2 16 -1 19 -3 4 -6 -2 -5 -13z"/>
<path d="M4141 8034 c0 -11 3 -14 6 -6 3 7 2 16 -1 19 -3 4 -6 -2 -5 -13z"/>
<path d="M4391 8034 c0 -11 3 -14 6 -6 3 7 2 16 -1 19 -3 4 -6 -2 -5 -13z"/>
<path d="M3530 8031 c0 -6 4 -13 10 -16 6 -3 7 1 4 9 -7 18 -14 21 -14 7z"/>
<path d="M5095 8029 c-4 -6 -5 -12 -2 -15 2 -3 7 2 10 11 7 17 1 20 -8 4z"/>
<path d="M3580 8015 c-24 -14 -24 -14 -4 -15 12 0 24 7 28 15 6 18 7 18 -24 0z"/>
<path d="M3180 7160 c0 -27 5 -50 10 -50 6 0 10 7 10 15 0 8 5 15 10 15 6 0
13 -7 16 -15 11 -27 19 -16 21 27 3 45 -7 58 -44 58 -21 0 -23 -5 -23 -50z
m53 15 c1 -5 -6 -11 -15 -13 -11 -2 -18 3 -18 13 0 17 30 18 33 0z"/>
<path d="M3919 7188 c-3 -32 4 -64 15 -76 12 -12 13 -3 7 81 -1 12 -21 8 -22
-5z"/>
<path d="M3271 7148 c-1 -37 10 -48 42 -40 12 3 17 14 16 41 -1 36 -1 36 -8 6
-3 -17 -13 -30 -21 -30 -8 0 -18 13 -21 30 -7 29 -7 29 -8 -7z"/>
<path d="M3351 7143 l1 -38 9 33 c12 39 31 37 40 -4 6 -27 7 -27 8 9 1 35 -1
37 -29 37 -28 0 -30 -2 -29 -37z"/>
<path d="M3471 7143 c1 -27 3 -31 6 -13 2 14 12 31 21 38 14 11 13 12 -6 12
-19 0 -22 -5 -21 -37z"/>
<path d="M3522 7164 c-19 -34 8 -71 43 -58 24 10 17 22 -10 16 -15 -2 -25 0
-25 7 0 6 12 11 26 11 19 0 25 5 22 18 -4 23 -44 28 -56 6z m43 -4 c3 -5 -3
-10 -15 -10 -12 0 -18 5 -15 10 3 6 10 10 15 10 5 0 12 -4 15 -10z"/>
<path d="M3606 7173 c-3 -3 -6 -19 -6 -35 0 -26 8 -32 37 -29 6 1 14 -6 16
-16 3 -10 5 5 6 32 1 46 -1 51 -23 53 -13 1 -26 -1 -30 -5z m42 -31 c3 -17 -2
-22 -17 -22 -14 0 -21 6 -21 18 0 38 33 41 38 4z"/>
<path d="M3680 7152 c0 -36 15 -50 46 -44 20 4 24 10 24 38 0 19 -4 34 -10 34
-5 0 -10 -13 -10 -30 0 -20 -5 -30 -15 -30 -10 0 -15 10 -15 30 0 17 -4 30
-10 30 -5 0 -10 -13 -10 -28z"/>
<path d="M3771 7166 c-24 -29 16 -83 43 -56 7 7 3 10 -12 10 -12 0 -22 5 -22
10 0 6 12 10 26 10 19 0 25 5 22 18 -4 22 -41 27 -57 8z m44 -6 c3 -5 -3 -10
-14 -10 -12 0 -21 5 -21 10 0 6 6 10 14 10 8 0 18 -4 21 -10z"/>
<path d="M3850 7161 c0 -11 10 -22 23 -26 l22 -7 -25 -7 c-15 -4 -20 -10 -13
-14 16 -10 43 2 43 20 0 8 -9 17 -20 20 -11 3 -20 10 -20 15 0 6 9 8 20 5 11
-3 18 -1 14 4 -10 17 -44 10 -44 -10z"/>
<path d="M3670 6683 c0 -29 5 -53 10 -53 6 0 10 15 10 32 l0 33 23 -32 c12
-18 25 -33 30 -33 4 0 6 24 5 53 -1 46 -2 48 -5 12 l-4 -39 -34 39 -34 40 -1
-52z"/>
<path d="M7760 6680 c0 -27 5 -50 10 -50 6 0 10 9 10 19 0 12 8 21 23 24 l22
4 -22 2 c-28 1 -31 31 -3 31 11 0 20 5 20 10 0 6 -13 10 -30 10 -29 0 -30 -1
-30 -50z"/>
<path d="M7919 6708 c-3 -32 4 -64 15 -76 12 -12 13 -3 7 81 -1 12 -21 8 -22
-5z"/>
<path d="M3391 6696 c-16 -19 3 -56 28 -56 29 0 45 25 31 49 -12 24 -42 27
-59 7z"/>
<path d="M3774 6675 c-7 -27 9 -55 31 -55 22 0 38 28 31 55 -5 18 -13 25 -31
25 -18 0 -26 -7 -31 -25z m50 -1 c3 -9 4 -20 0 -25 -8 -13 -32 -11 -37 4 -11
32 25 53 37 21z"/>
<path d="M3856 6673 c12 -50 27 -58 39 -20 l8 22 4 -22 c5 -24 33 -32 33 -10
0 6 3 23 5 37 5 23 4 22 -8 -4 l-14 -29 -7 27 c-8 32 -21 34 -30 4 l-7 -23 -9
23 c-13 31 -22 28 -14 -5z"/>
<path d="M7842 6668 c-2 -41 5 -50 36 -41 17 4 22 13 22 39 0 19 -4 34 -10 34
-5 0 -10 -13 -10 -30 0 -42 -27 -40 -33 3 l-4 32 -1 -37z"/>
<path d="M7971 6668 c-1 -37 10 -48 42 -40 12 3 17 14 16 41 -1 36 -1 36 -8 6
-3 -17 -13 -30 -21 -30 -8 0 -18 13 -21 30 -7 29 -7 29 -8 -7z"/>
<path d="M8051 6660 c1 -27 3 -29 6 -10 2 14 11 30 20 37 13 10 13 12 -6 10
-17 -1 -21 -7 -20 -37z"/>
<path d="M8107 6694 c-12 -12 -8 -51 7 -63 7 -6 21 -9 30 -5 25 10 19 22 -9
16 -15 -2 -25 0 -25 7 0 6 12 11 26 11 19 0 25 5 22 18 -3 17 -38 29 -51 16z
m38 -14 c3 -5 -3 -10 -15 -10 -12 0 -18 5 -15 10 3 6 10 10 15 10 5 0 12 -4
15 -10z"/>
<path d="M3180 6040 c0 -27 5 -50 10 -50 6 0 10 7 10 15 0 8 5 15 10 15 6 0
13 -7 16 -15 11 -27 19 -16 21 27 3 45 -7 58 -44 58 -21 0 -23 -5 -23 -50z
m53 15 c1 -5 -6 -11 -15 -13 -11 -2 -18 3 -18 13 0 17 30 18 33 0z"/>
<path d="M3599 6068 c-4 -54 11 -102 25 -79 4 6 2 11 -3 11 -13 0 -15 47 -2
52 5 2 3 9 -5 16 -11 10 -14 10 -15 0z"/>
<path d="M3272 6044 c-19 -34 8 -71 43 -58 24 10 17 22 -10 16 -15 -2 -25 0
-25 7 0 6 12 11 26 11 19 0 25 5 22 18 -4 23 -44 28 -56 6z m43 -4 c3 -5 -3
-10 -15 -10 -12 0 -18 5 -15 10 3 6 10 10 15 10 5 0 12 -4 15 -10z"/>
<path d="M3351 6005 c1 -27 3 -42 6 -32 3 10 10 16 16 14 19 -7 47 12 47 32 0
24 -20 40 -48 38 -20 -1 -22 -6 -21 -52z m49 20 c0 -25 -23 -35 -35 -15 -10
16 2 40 20 40 9 0 15 -9 15 -25z"/>
<path d="M3436 6044 c-11 -28 -6 -43 15 -55 15 -8 24 -8 32 0 8 8 5 11 -11 11
-12 0 -22 5 -22 10 0 6 12 10 26 10 20 0 25 4 20 16 -3 9 -6 18 -6 20 0 12
-49 2 -54 -12z m44 -4 c0 -5 -7 -10 -15 -10 -8 0 -15 5 -15 10 0 6 7 10 15 10
8 0 15 -4 15 -10z"/>
<path d="M3520 6051 c0 -5 9 -7 20 -4 11 3 20 1 20 -5 0 -6 -10 -12 -22 -14
-27 -4 -36 -33 -13 -41 28 -11 45 4 45 39 0 30 -3 34 -25 34 -14 0 -25 -4 -25
-9z m40 -41 c0 -5 -7 -10 -15 -10 -8 0 -15 5 -15 10 0 6 7 10 15 10 8 0 15 -4
15 -10z"/>
<path d="M3645 6050 c-8 -14 3 -30 21 -30 8 0 14 -5 14 -11 0 -6 -9 -9 -20 -6
-11 3 -20 2 -20 -3 0 -12 28 -20 45 -14 22 9 18 35 -5 41 -11 3 -20 10 -20 15
0 5 10 6 21 3 15 -5 19 -4 15 4 -9 14 -43 14 -51 1z"/>
<path d="M3349 5718 l-12 -43 -12 40 c-7 22 -13 31 -13 20 0 -11 5 -36 13 -55
13 -36 14 -36 33 25 l9 30 13 -45 13 -45 12 30 c17 42 28 92 18 82 -4 -5 -13
-25 -19 -45 l-11 -37 -8 38 c-10 53 -22 54 -36 5z"/>
<path d="M3673 5705 c0 -33 2 -45 4 -27 2 18 2 45 0 60 -2 15 -4 0 -4 -33z"/>
<path d="M3590 5705 c0 -25 5 -45 10 -45 6 0 10 7 10 17 0 14 2 14 21 -3 22
-19 22 -19 9 3 -11 18 -12 24 -1 37 16 19 1 22 -17 4 -9 -9 -12 -7 -12 10 0
12 -4 22 -10 22 -5 0 -10 -20 -10 -45z"/>
<path d="M3436 5715 c-11 -29 -7 -44 15 -56 16 -8 24 -8 33 2 8 9 7 11 -6 6
-9 -3 -22 1 -28 9 -10 12 -7 14 20 14 25 0 31 4 28 18 -4 23 -53 29 -62 7z
m49 -5 c4 -6 -5 -10 -20 -10 -15 0 -24 4 -20 10 3 6 12 10 20 10 8 0 17 -4 20
-10z"/>
<path d="M3516 5715 c-11 -29 -7 -44 15 -56 16 -8 24 -8 33 2 8 9 7 11 -6 6
-9 -3 -22 1 -28 9 -10 12 -7 14 20 14 25 0 31 4 28 18 -4 23 -53 29 -62 7z
m49 -5 c4 -6 -5 -10 -20 -10 -15 0 -24 4 -20 10 3 6 12 10 20 10 8 0 17 -4 20
-10z"/>
<path d="M3701 5726 c-1 -5 4 -25 11 -43 10 -29 10 -36 -2 -43 -13 -8 -13 -10
2 -10 10 0 22 16 32 47 20 58 20 66 -1 29 l-16 -30 -12 30 c-8 16 -14 25 -14
20z"/>
<path d="M3180 5140 c0 -27 5 -50 10 -50 6 0 10 7 10 15 0 8 5 15 10 15 6 0
13 -7 16 -15 11 -27 19 -16 21 27 3 45 -7 58 -44 58 -21 0 -23 -5 -23 -50z
m53 15 c1 -5 -6 -11 -15 -13 -11 -2 -18 3 -18 13 0 17 30 18 33 0z"/>
<path d="M3599 5168 c-4 -54 11 -102 25 -79 4 6 2 11 -3 11 -13 0 -15 47 -2
52 5 2 3 9 -5 16 -11 10 -14 10 -15 0z"/>
<path d="M3272 5144 c-19 -34 8 -71 43 -58 24 10 17 22 -10 16 -15 -2 -25 0
-25 7 0 6 12 11 26 11 19 0 25 5 22 18 -4 23 -44 28 -56 6z m43 -4 c3 -5 -3
-10 -15 -10 -12 0 -18 5 -15 10 3 6 10 10 15 10 5 0 12 -4 15 -10z"/>
<path d="M3351 5105 c1 -27 3 -42 6 -32 3 10 10 16 16 14 19 -7 47 12 47 32 0
24 -20 40 -48 38 -20 -1 -22 -6 -21 -52z m49 20 c0 -25 -23 -35 -35 -15 -10
16 2 40 20 40 9 0 15 -9 15 -25z"/>
<path d="M3436 5144 c-11 -28 -6 -43 15 -55 15 -8 24 -8 32 0 8 8 5 11 -11 11
-12 0 -22 5 -22 10 0 6 12 10 26 10 20 0 25 4 20 16 -3 9 -6 18 -6 20 0 12
-49 2 -54 -12z m44 -4 c0 -5 -7 -10 -15 -10 -8 0 -15 5 -15 10 0 6 7 10 15 10
8 0 15 -4 15 -10z"/>
<path d="M3520 5151 c0 -5 9 -7 20 -4 11 3 20 1 20 -5 0 -6 -10 -12 -22 -14
-27 -4 -36 -33 -13 -41 28 -11 45 4 45 39 0 30 -3 34 -25 34 -14 0 -25 -4 -25
-9z m40 -41 c0 -5 -7 -10 -15 -10 -8 0 -15 5 -15 10 0 6 7 10 15 10 8 0 15 -4
15 -10z"/>
<path d="M3645 5150 c-8 -14 3 -30 21 -30 8 0 14 -5 14 -11 0 -6 -9 -9 -20 -6
-11 3 -20 2 -20 -3 0 -12 28 -20 45 -14 22 9 18 35 -5 41 -11 3 -20 10 -20 15
0 5 10 6 21 3 15 -5 19 -4 15 4 -9 14 -43 14 -51 1z"/>
<path d="M3757 5153 c-12 -11 -8 -50 7 -62 7 -6 21 -9 30 -5 22 9 20 23 -3 17
-10 -3 -22 0 -25 6 -5 7 4 11 23 11 33 0 39 8 19 28 -13 13 -41 16 -51 5z m43
-13 c0 -5 -9 -10 -21 -10 -11 0 -17 5 -14 10 3 6 13 10 21 10 8 0 14 -4 14
-10z"/>
<path d="M3831 5153 c-2 -19 18 -63 28 -63 10 0 34 61 26 68 -2 3 -9 -8 -16
-24 l-11 -29 -13 30 c-7 17 -14 25 -14 18z"/>
<path d="M3912 5148 c-19 -19 -14 -46 9 -59 15 -8 24 -8 32 0 8 8 5 11 -11 11
-12 0 -22 5 -22 10 0 6 12 10 26 10 20 0 25 4 20 16 -3 9 -6 18 -6 20 0 9 -37
3 -48 -8z m38 -8 c0 -5 -7 -10 -15 -10 -8 0 -15 5 -15 10 0 6 7 10 15 10 8 0
15 -4 15 -10z"/>
<path d="M3991 5123 c1 -27 3 -31 6 -13 2 14 12 31 21 38 14 11 13 12 -6 12
-19 0 -22 -5 -21 -37z"/>
<path d="M4041 5154 c-1 -6 4 -26 10 -44 9 -26 9 -34 -2 -41 -11 -7 -11 -9 2
-9 17 0 57 86 45 97 -3 3 -10 -7 -17 -23 l-11 -29 -13 30 c-7 17 -14 25 -14
19z"/>
<path d="M3765 4885 c-100 -54 -141 -164 -96 -260 36 -77 95 -115 181 -115 86
0 145 38 181 115 38 82 12 179 -64 239 -32 26 -48 31 -105 34 -48 2 -76 -2
-97 -13z m115 -135 c0 -5 -7 -10 -15 -10 -11 0 -15 -13 -17 -47 l-2 -48 -3 48
c-3 33 -8 47 -19 47 -7 0 -14 5 -14 10 0 6 16 10 35 10 19 0 35 -4 35 -10z"/>
<path d="M4245 4885 c-100 -54 -141 -164 -96 -260 36 -77 95 -115 181 -115 86
0 145 38 181 115 38 82 12 179 -64 239 -32 26 -48 31 -105 34 -48 2 -76 -2
-97 -13z m57 -189 c3 5 8 22 12 38 8 32 16 28 33 -17 l11 -32 7 33 c10 41 30
57 22 16 -3 -16 -11 -42 -17 -59 -13 -32 -14 -32 -35 30 -7 18 -8 18 -15 -7
-15 -50 -23 -54 -36 -17 -7 18 -12 45 -12 59 0 19 3 16 12 -14 7 -22 15 -36
18 -30z"/>
<path d="M4725 4885 c-100 -54 -141 -164 -96 -260 36 -77 95 -115 181 -115 86
0 145 38 181 115 38 82 12 179 -64 239 -32 26 -48 31 -105 34 -48 2 -76 -2
-97 -13z m115 -135 c0 -5 -7 -10 -15 -10 -11 0 -15 -13 -17 -47 l-2 -48 -3 48
c-3 33 -8 47 -19 47 -7 0 -14 5 -14 10 0 6 16 10 35 10 19 0 35 -4 35 -10z"/>
<path d="M3322 4703 c1 -48 2 -51 5 -18 l5 40 13 -32 c17 -40 30 -42 43 -5
l10 27 1 -27 c1 -15 6 -30 11 -33 6 -4 10 15 10 49 0 31 -4 56 -9 56 -5 0 -16
-19 -26 -42 l-16 -42 -19 42 c-11 23 -21 42 -25 42 -3 0 -4 -26 -3 -57z"/>
<path d="M5261 4703 c1 -32 4 -46 6 -31 3 20 11 28 31 31 l27 4 -27 2 c-36 1
-39 31 -3 31 14 0 25 5 25 10 0 6 -13 10 -30 10 l-30 0 1 -57z"/>
<path d="M5743 4753 c-25 -9 -14 -41 18 -52 36 -12 30 -36 -7 -27 -28 7 -33
-10 -5 -19 48 -15 73 37 26 55 -14 5 -25 15 -25 21 0 7 9 9 25 5 27 -7 35 8 9
18 -18 7 -23 7 -41 -1z"/>
<path d="M6223 4753 c-25 -9 -14 -41 18 -52 36 -12 30 -36 -7 -27 -28 7 -33
-10 -5 -19 48 -15 73 37 26 55 -14 5 -25 15 -25 21 0 7 9 9 25 5 27 -7 35 8 9
18 -18 7 -23 7 -41 -1z"/>
<path d="M3180 4160 c0 -5 6 -10 14 -10 10 0 16 -14 19 -42 l4 -43 1 43 c1 30
6 42 17 42 8 0 15 5 15 10 0 6 -16 10 -35 10 -19 0 -35 -4 -35 -10z"/>
<path d="M3273 4105 c0 -22 2 -30 4 -17 2 12 2 30 0 40 -3 9 -5 -1 -4 -23z"/>
<path d="M3300 4105 c0 -19 5 -35 10 -35 6 0 10 14 10 31 0 39 23 34 31 -7 l6
-29 4 29 c6 41 29 46 29 7 0 -17 5 -31 11 -31 6 0 9 14 7 32 -3 32 -4 33 -55
35 l-53 3 0 -35z"/>
<path d="M3431 4126 c-24 -29 16 -83 43 -56 7 7 3 10 -12 10 -12 0 -22 5 -22
10 0 6 12 10 26 10 19 0 25 5 22 18 -4 22 -41 27 -57 8z m44 -6 c3 -5 -3 -10
-14 -10 -12 0 -21 5 -21 10 0 6 6 10 14 10 8 0 18 -4 21 -10z"/>
<path d="M3322 3828 c-24 -24 -9 -98 19 -98 4 0 15 7 23 16 29 28 15 94 -19
94 -6 0 -16 -5 -23 -12z m44 -53 c-5 -18 -12 -25 -24 -23 -21 4 -28 44 -11 64
19 23 44 -6 35 -41z"/>
<path d="M3413 3833 c32 -5 32 -4 6 -54 -11 -23 -18 -43 -15 -46 6 -7 46 72
46 92 0 11 -9 15 -32 14 -31 -2 -31 -2 -5 -6z"/>
<path d="M3517 3833 c-14 -13 -6 -25 8 -13 13 10 18 11 28 1 9 -10 8 -15 -7
-27 -17 -12 -18 -14 -3 -14 9 0 17 -7 17 -16 0 -12 -7 -15 -25 -12 -27 6 -34
-6 -10 -16 30 -11 44 4 42 47 -1 41 -10 57 -33 57 -6 0 -14 -3 -17 -7z"/>
<path d="M3602 3828 c-20 -20 -15 -76 9 -88 28 -16 49 3 49 44 0 32 -15 56
-35 56 -6 0 -16 -5 -23 -12z m46 -47 c-2 -18 -9 -26 -23 -26 -24 0 -33 38 -14
61 17 21 41 -2 37 -35z"/>
<path d="M322 3583 c-2 -56 -14 -72 -39 -51 -14 11 -16 11 -11 -2 6 -20 47
-25 54 -7 3 8 3 36 1 63 l-3 49 -2 -52z"/>
<path d="M360 3570 c0 -60 0 -60 29 -60 37 0 61 23 61 60 0 33 -31 60 -67 60
-21 0 -23 -4 -23 -60z m68 7 c4 -33 -13 -57 -39 -57 -16 0 -19 8 -19 46 0 44
1 45 28 42 21 -2 28 -9 30 -31z"/>
<path d="M3180 3220 c0 -27 5 -50 10 -50 6 0 10 7 10 15 0 8 5 15 10 15 6 0
13 -7 16 -15 11 -27 19 -16 21 27 3 45 -7 58 -44 58 -21 0 -23 -5 -23 -50z
m53 15 c1 -5 -6 -11 -15 -13 -11 -2 -18 3 -18 13 0 17 30 18 33 0z"/>
<path d="M3599 3248 c-4 -54 11 -102 25 -79 4 6 2 11 -3 11 -13 0 -15 47 -2
52 5 2 3 9 -5 16 -11 10 -14 10 -15 0z"/>
<path d="M3272 3224 c-19 -34 8 -71 43 -58 24 10 17 22 -10 16 -15 -2 -25 0
-25 7 0 6 12 11 26 11 19 0 25 5 22 18 -4 23 -44 28 -56 6z m43 -4 c3 -5 -3
-10 -15 -10 -12 0 -18 5 -15 10 3 6 10 10 15 10 5 0 12 -4 15 -10z"/>
<path d="M3351 3185 c1 -27 3 -42 6 -32 3 10 10 16 16 14 19 -7 47 12 47 32 0
24 -20 40 -48 38 -20 -1 -22 -6 -21 -52z m49 20 c0 -25 -23 -35 -35 -15 -10
16 2 40 20 40 9 0 15 -9 15 -25z"/>
<path d="M3436 3224 c-11 -28 -6 -43 15 -55 15 -8 24 -8 32 0 8 8 5 11 -11 11
-12 0 -22 5 -22 10 0 6 12 10 26 10 20 0 25 4 20 16 -3 9 -6 18 -6 20 0 12
-49 2 -54 -12z m44 -4 c0 -5 -7 -10 -15 -10 -8 0 -15 5 -15 10 0 6 7 10 15 10
8 0 15 -4 15 -10z"/>
<path d="M3520 3231 c0 -5 9 -7 20 -4 11 3 20 1 20 -5 0 -6 -10 -12 -22 -14
-27 -4 -36 -33 -13 -41 28 -11 45 4 45 39 0 30 -3 34 -25 34 -14 0 -25 -4 -25
-9z m40 -41 c0 -5 -7 -10 -15 -10 -8 0 -15 5 -15 10 0 6 7 10 15 10 8 0 15 -4
15 -10z"/>
<path d="M3645 3230 c-8 -14 3 -30 21 -30 8 0 14 -5 14 -11 0 -6 -9 -9 -20 -6
-11 3 -20 2 -20 -3 0 -12 28 -20 45 -14 22 9 18 35 -5 41 -11 3 -20 10 -20 15
0 5 10 6 21 3 15 -5 19 -4 15 4 -9 14 -43 14 -51 1z"/>
<path d="M3211 3017 c2 -1 13 -9 24 -17 19 -14 19 -14 6 3 -7 9 -18 17 -24 17
-6 0 -8 -1 -6 -3z"/>
<path d="M3184 2999 c-3 -6 -2 -15 3 -20 5 -5 9 -1 9 11 0 23 -2 24 -12 9z"/>
<path d="M3970 2996 c0 -9 -7 -12 -18 -9 -27 7 -47 -22 -34 -50 10 -21 10 -20
9 8 -2 24 2 30 18 30 15 0 20 -7 20 -27 -1 -16 3 -28 7 -28 4 0 8 20 8 45 0
25 -2 45 -5 45 -3 0 -5 -6 -5 -14z"/>
<path d="M4078 2997 c-3 -7 -1 -23 3 -37 6 -23 7 -23 8 -3 1 12 5 23 10 25 5
2 3 8 -4 15 -10 9 -14 9 -17 0z"/>
<path d="M4248 3000 c-5 -17 3 -80 11 -80 7 0 6 79 -2 86 -3 3 -7 0 -9 -6z"/>
<path d="M4488 3000 c-5 -17 3 -80 11 -80 7 0 6 79 -2 86 -3 3 -7 0 -9 -6z"/>
<path d="M4739 2998 c-2 -27 3 -63 11 -71 4 -5 5 4 2 18 -2 15 0 30 6 34 6 4
5 11 -4 19 -11 10 -14 10 -15 0z"/>
<path d="M4793 2965 c0 -27 2 -38 4 -22 2 15 2 37 0 50 -2 12 -4 0 -4 -28z"/>
<path d="M5350 2996 c0 -9 -7 -12 -19 -9 -10 3 -21 1 -24 -4 -3 -5 4 -9 16 -9
16 1 23 -7 28 -29 6 -25 7 -23 8 18 0 26 -1 47 -4 47 -3 0 -5 -6 -5 -14z"/>
<path d="M5463 2965 c0 -27 2 -38 4 -22 2 15 2 37 0 50 -2 12 -4 0 -4 -28z"/>
<path d="M5823 2965 c0 -27 2 -38 4 -22 2 15 2 37 0 50 -2 12 -4 0 -4 -28z"/>
<path d="M6488 2998 c-2 -7 -1 -29 2 -48 l6 -35 5 38 c5 38 -4 71 -13 45z"/>
<path d="M3277 2984 c-10 -11 -8 -52 3 -59 6 -3 7 1 4 9 -5 12 1 16 21 16 20
0 26 4 23 18 -3 17 -38 29 -51 16z m43 -14 c0 -5 -9 -10 -20 -10 -11 0 -20 5
-20 10 0 6 9 10 20 10 11 0 20 -4 20 -10z"/>
<path d="M3358 2983 c7 -3 16 -2 19 1 4 3 -2 6 -13 5 -11 0 -14 -3 -6 -6z"/>
<path d="M3440 2982 c0 -6 9 -8 20 -5 11 3 20 0 20 -6 0 -6 -6 -11 -14 -11
-20 0 -40 -26 -26 -35 6 -4 9 -1 8 6 -2 7 6 15 16 17 14 3 17 0 13 -12 -4 -9
-2 -16 4 -16 6 0 9 15 7 33 -2 24 -8 33 -25 35 -13 2 -23 -1 -23 -6z"/>
<path d="M3511 2951 c1 -36 1 -36 8 -6 8 40 38 46 44 8 4 -28 4 -28 3 2 -1 26
-5 30 -28 31 -26 1 -28 -2 -27 -35z"/>
<path d="M3658 2983 c30 -6 28 -26 -3 -21 -19 4 -25 1 -25 -13 0 -10 4 -21 10
-24 6 -3 7 1 4 9 -5 12 1 16 21 16 35 0 31 34 -5 37 -22 1 -22 1 -2 -4z"/>
<path d="M3711 2951 c1 -36 1 -36 8 -6 8 40 38 46 44 8 4 -28 4 -28 3 2 -1 26
-5 30 -28 31 -26 1 -28 -2 -27 -35z"/>
<path d="M3815 2983 c11 -3 24 -10 28 -17 6 -7 7 -6 4 4 -2 8 -14 16 -28 17
-19 1 -20 1 -4 -4z"/>
<path d="M4006 2981 c-3 -4 6 -6 19 -3 14 2 25 6 25 8 0 8 -39 4 -44 -5z"/>
<path d="M4135 2980 c-3 -5 0 -7 9 -4 8 3 21 2 28 -3 9 -5 2 -10 -22 -14 l-35
-6 38 -2 c38 -1 46 6 25 27 -15 15 -35 16 -43 2z"/>
<path d="M4294 2964 c-4 -14 -2 -30 3 -35 5 -5 9 2 8 19 0 21 4 27 22 26 12 0
20 3 17 8 -12 19 -44 7 -50 -18z"/>
<path d="M4417 2983 c-13 -12 -7 -24 19 -33 15 -6 22 -14 18 -22 -4 -7 -3 -8
5 -4 15 10 -4 36 -25 36 -23 0 -16 18 9 23 20 4 20 4 1 6 -11 0 -24 -2 -27 -6z"/>
<path d="M4542 2978 c-14 -14 -16 -44 -4 -52 4 -2 8 8 7 22 0 21 5 27 22 26
12 0 20 3 17 8 -7 12 -28 10 -42 -4z"/>
<path d="M4625 2980 c-4 -6 -4 -14 -1 -17 3 -4 6 -1 6 5 0 7 10 12 21 12 18 0
21 -5 17 -30 -3 -19 -1 -27 5 -21 16 16 3 56 -20 59 -11 2 -24 -2 -28 -8z"/>
<path d="M4822 2984 c10 -3 19 -19 21 -37 4 -31 5 -31 3 3 -1 27 -5 35 -21 37
-14 1 -15 0 -3 -3z"/>
<path d="M4877 2984 c-10 -11 -8 -52 3 -59 6 -3 7 1 4 9 -5 12 1 16 21 16 20
0 26 4 23 18 -3 17 -38 29 -51 16z m43 -14 c0 -5 -9 -10 -20 -10 -11 0 -20 5
-20 10 0 6 9 10 20 10 11 0 20 -4 20 -10z"/>
<path d="M4992 2973 c2 -9 9 -18 16 -19 7 -1 8 0 2 3 -16 7 -12 21 8 26 12 3
11 5 -6 6 -17 1 -23 -4 -20 -16z"/>
<path d="M5065 2979 c-4 -6 -4 -13 -1 -16 3 -4 6 -1 6 6 0 9 9 12 25 9 13 -3
22 -1 19 3 -7 13 -42 11 -49 -2z"/>
<path d="M5145 2979 c-4 -6 -4 -13 -1 -16 3 -4 6 -1 6 6 0 8 8 11 20 8 11 -3
20 -1 20 4 0 13 -37 11 -45 -2z"/>
<path d="M5225 2980 c-3 -5 0 -7 9 -4 8 3 21 2 28 -3 9 -5 2 -10 -22 -14 l-35
-6 38 -2 c38 -1 46 6 25 27 -15 15 -35 16 -43 2z"/>
<path d="M5380 2961 c0 -17 4 -32 8 -35 4 -2 6 11 4 30 -5 42 -12 45 -12 5z"/>
<path d="M5433 2955 c0 -22 2 -30 4 -17 2 12 2 30 0 40 -3 9 -5 -1 -4 -23z"/>
<path d="M5502 2978 c-15 -15 -16 -45 -2 -53 6 -3 7 1 4 9 -5 12 1 16 22 17
l29 1 -30 8 c-24 5 -27 8 -13 14 9 4 22 4 29 0 8 -4 9 -3 5 4 -9 15 -29 15
-44 0z"/>
<path d="M5657 2984 c-10 -10 -9 -52 1 -58 5 -3 6 8 4 25 -4 25 -1 29 18 29
19 0 22 -4 18 -30 -3 -19 -1 -27 5 -21 16 16 4 56 -18 59 -12 2 -24 0 -28 -4z"/>
<path d="M5733 2955 c0 -22 2 -30 4 -17 2 12 2 30 0 40 -3 9 -5 -1 -4 -23z"/>
<path d="M5878 2983 c30 -6 28 -26 -3 -21 -19 4 -25 1 -25 -13 0 -10 4 -21 10
-24 6 -3 7 1 4 9 -5 12 1 16 21 16 35 0 31 34 -5 37 -22 1 -22 1 -2 -4z"/>
<path d="M5958 2983 c26 -5 29 -20 5 -26 -16 -4 -16 -5 1 -6 12 -1 16 -6 12
-16 -3 -8 -1 -15 5 -15 6 0 9 15 7 33 -2 26 -8 32 -28 34 -22 1 -22 1 -2 -4z"/>
<path d="M6012 2960 c14 -41 26 -46 38 -15 14 37 11 46 -4 11 l-13 -29 -11 32
c-6 17 -13 31 -16 31 -3 0 0 -14 6 -30z"/>
<path d="M6087 2984 c-10 -11 -8 -52 3 -59 6 -3 7 1 4 9 -5 12 1 16 21 16 20
0 26 4 23 18 -3 17 -38 29 -51 16z m43 -14 c0 -5 -9 -10 -20 -10 -11 0 -20 5
-20 10 0 6 9 10 20 10 11 0 20 -4 20 -10z"/>
<path d="M6206 2982 c-3 -5 6 -7 19 -4 14 2 25 0 25 -6 0 -6 -12 -13 -27 -15
-26 -4 -25 -4 5 -6 27 -1 33 2 30 17 -3 18 -42 29 -52 14z"/>
<path d="M6283 2955 c0 -22 2 -30 4 -17 2 12 2 30 0 40 -3 9 -5 -1 -4 -23z"/>
<path d="M6307 2983 c6 -4 13 -22 16 -38 4 -27 5 -27 3 4 0 21 -7 36 -16 38
-10 3 -11 2 -3 -4z"/>
<path d="M6348 2983 c7 -3 16 -2 19 1 4 3 -2 6 -13 5 -11 0 -14 -3 -6 -6z"/>
<path d="M6400 2940 c0 -29 3 -50 7 -47 7 8 6 88 -2 95 -3 3 -5 -19 -5 -48z"/>
<path d="M6433 2984 c15 -5 18 -13 15 -35 -3 -18 -1 -26 5 -20 16 16 4 56 -18
58 -17 2 -18 1 -2 -3z"/>
<path d="M3790 2951 c0 -11 4 -22 9 -25 4 -3 6 6 3 19 -5 30 -12 33 -12 6z"/>
<path d="M4035 2960 c-18 -8 -19 -9 -1 -9 12 -1 16 -6 12 -16 -3 -8 -1 -15 4
-15 6 0 10 11 10 25 0 14 -1 25 -2 24 -2 0 -12 -4 -23 -9z"/>
<path d="M6372 2945 c0 -16 2 -22 5 -12 2 9 2 23 0 30 -3 6 -5 -1 -5 -18z"/>
<path d="M3237 2941 c-4 -17 -3 -21 5 -13 5 5 8 16 6 23 -3 8 -7 3 -11 -10z"/>
<path d="M4342 2940 c-7 -11 -8 -20 -3 -20 9 0 24 30 18 36 -1 2 -8 -6 -15
-16z"/>
<path d="M4582 2940 c-7 -11 -8 -20 -3 -20 9 0 24 30 18 36 -1 2 -8 -6 -15
-16z"/>
<path d="M6544 2924 c1 -40 2 -40 16 -14 8 16 8 24 -3 34 -11 12 -13 9 -13
-20z"/>
<path d="M4001 2934 c0 -11 3 -14 6 -6 3 7 2 16 -1 19 -3 4 -6 -2 -5 -13z"/>
<path d="M5026 2935 c-3 -8 -1 -15 4 -15 6 0 10 7 10 15 0 8 -2 15 -4 15 -2 0
-6 -7 -10 -15z"/>
<path d="M5060 2941 c0 -6 4 -13 10 -16 6 -3 7 1 4 9 -7 18 -14 21 -14 7z"/>
<path d="M5931 2934 c0 -11 3 -14 6 -6 3 7 2 16 -1 19 -3 4 -6 -2 -5 -13z"/>
<path d="M3835 2930 c-3 -5 -1 -10 4 -10 6 0 11 5 11 10 0 6 -2 10 -4 10 -3 0
-8 -4 -11 -10z"/>
<path d="M4130 2930 c0 -5 5 -10 11 -10 5 0 7 5 4 10 -3 6 -8 10 -11 10 -2 0
-4 -4 -4 -10z"/>
<path d="M4620 2930 c0 -5 5 -10 11 -10 5 0 7 5 4 10 -3 6 -8 10 -11 10 -2 0
-4 -4 -4 -10z"/>
<path d="M5220 2930 c0 -5 5 -10 11 -10 5 0 7 5 4 10 -3 6 -8 10 -11 10 -2 0
-4 -4 -4 -10z"/>
<path d="M5300 2930 c0 -5 5 -10 11 -10 5 0 7 5 4 10 -3 6 -8 10 -11 10 -2 0
-4 -4 -4 -10z"/>
<path d="M6200 2930 c0 -5 5 -10 11 -10 5 0 7 5 4 10 -3 6 -8 10 -11 10 -2 0
-4 -4 -4 -10z"/>
<path d="M4758 2803 c-2 -10 -1 -34 3 -53 l6 -35 3 35 c1 19 2 39 1 44 -1 5 4
13 11 17 10 7 9 9 -3 9 -9 0 -18 -8 -21 -17z"/>
<path d="M3188 2798 c-2 -7 -1 -29 2 -48 l6 -35 5 38 c5 38 -4 71 -13 45z"/>
<path d="M3353 2765 c-1 -27 1 -42 4 -32 2 9 7 17 10 17 3 0 12 -8 20 -17 13
-16 13 -16 3 5 -9 18 -8 27 2 40 10 14 8 13 -9 -1 -21 -19 -22 -18 -26 10 -2
15 -4 6 -4 -22z"/>
<path d="M3738 2798 c-2 -7 -1 -29 2 -48 l6 -35 5 38 c5 38 -4 71 -13 45z"/>
<path d="M4198 2798 c-2 -7 -1 -29 2 -48 l6 -35 5 38 c5 38 -4 71 -13 45z"/>
<path d="M4640 2796 c0 -9 -7 -12 -19 -9 -10 3 -21 1 -24 -4 -3 -5 4 -9 16 -9
16 1 23 -7 28 -29 6 -25 7 -23 8 18 0 26 -1 47 -4 47 -3 0 -5 -6 -5 -14z"/>
<path d="M4948 2800 c-5 -17 3 -80 11 -80 7 0 6 79 -2 86 -3 3 -7 0 -9 -6z"/>
<path d="M5073 2765 c0 -27 2 -38 4 -22 2 15 2 37 0 50 -2 12 -4 0 -4 -28z"/>
<path d="M3237 2784 c-10 -10 -9 -52 1 -58 5 -3 6 8 4 25 -4 25 -1 29 18 29
19 0 22 -4 18 -30 -3 -19 -1 -27 5 -21 16 16 4 56 -18 59 -12 2 -24 0 -28 -4z"/>
<path d="M3427 2784 c-10 -11 -8 -52 3 -59 6 -3 7 1 4 9 -5 12 1 16 21 16 20
0 26 4 23 18 -3 17 -38 29 -51 16z m43 -14 c0 -5 -9 -10 -20 -10 -11 0 -20 5
-20 10 0 6 9 10 20 10 11 0 20 -4 20 -10z"/>
<path d="M3507 2784 c-10 -11 -8 -52 3 -59 6 -3 7 1 4 9 -5 12 1 16 21 16 20
0 26 4 23 18 -3 17 -38 29 -51 16z m43 -14 c0 -5 -9 -10 -20 -10 -11 0 -20 5
-20 10 0 6 9 10 20 10 11 0 20 -4 20 -10z"/>
<path d="M3580 2736 c0 -57 11 -56 13 1 2 32 5 38 24 37 12 0 20 3 17 8 -3 4
-16 7 -29 6 -23 -2 -25 -7 -25 -52z"/>
<path d="M3703 2755 c0 -22 2 -30 4 -17 2 12 2 30 0 40 -3 9 -5 -1 -4 -23z"/>
<path d="M3823 2755 c0 -22 2 -30 4 -17 2 12 2 30 0 40 -3 9 -5 -1 -4 -23z"/>
<path d="M3877 2784 c-10 -11 -8 -52 3 -59 6 -3 7 1 4 9 -5 12 1 16 21 16 20
0 26 4 23 18 -3 17 -38 29 -51 16z m43 -14 c0 -5 -9 -10 -20 -10 -11 0 -20 5
-20 10 0 6 9 10 20 10 11 0 20 -4 20 -10z"/>
<path d="M3950 2740 c0 -29 3 -50 7 -47 7 8 6 88 -2 95 -3 3 -5 -19 -5 -48z"/>
<path d="M3970 2786 c0 -2 9 -6 20 -9 11 -3 18 -1 14 4 -5 9 -34 13 -34 5z"/>
<path d="M4042 2778 c-15 -15 -16 -45 -2 -53 6 -3 7 1 4 9 -5 12 1 16 22 17
l29 1 -30 8 c-24 5 -27 8 -13 14 9 4 22 4 29 0 8 -4 9 -3 5 4 -9 15 -29 15
-44 0z"/>
<path d="M4138 2783 c26 -5 29 -20 5 -26 -16 -4 -16 -5 1 -6 12 -1 16 -6 12
-16 -3 -8 -1 -15 5 -15 6 0 9 15 7 33 -2 26 -8 32 -28 34 -22 1 -22 1 -2 -4z"/>
<path d="M4243 2755 c0 -22 2 -30 4 -17 2 12 2 30 0 40 -3 9 -5 -1 -4 -23z"/>
<path d="M4271 2751 c1 -36 1 -36 8 -6 8 40 38 46 44 8 4 -28 4 -28 3 2 -1 26
-5 30 -28 31 -26 1 -28 -2 -27 -35z"/>
<path d="M4375 2783 c11 -3 24 -10 28 -17 6 -7 7 -6 4 4 -2 8 -14 16 -28 17
-19 1 -20 1 -4 -4z"/>
<path d="M4514 2776 c-3 -8 -4 -25 -1 -38 3 -17 5 -14 6 11 1 28 4 33 21 28
11 -3 20 -1 20 4 0 15 -40 10 -46 -5z"/>
<path d="M4698 2783 c30 -6 28 -26 -3 -21 -19 4 -25 1 -25 -13 0 -10 4 -21 10
-24 6 -3 7 1 4 9 -5 12 1 16 21 16 35 0 31 34 -5 37 -22 1 -22 1 -2 -4z"/>
<path d="M4803 2755 c0 -22 2 -30 4 -17 2 12 2 30 0 40 -3 9 -5 -1 -4 -23z"/>
<path d="M4831 2751 c1 -36 1 -36 8 -6 8 40 38 46 44 8 4 -28 4 -28 3 2 -1 26
-5 30 -28 31 -26 1 -28 -2 -27 -35z"/>
<path d="M4913 2755 c0 -22 2 -30 4 -17 2 12 2 30 0 40 -3 9 -5 -1 -4 -23z"/>
<path d="M4994 2764 c-4 -15 -2 -30 5 -37 9 -9 11 -8 6 6 -6 14 -1 17 21 18
l29 1 -30 8 c-24 5 -27 8 -13 14 9 4 22 4 29 0 8 -4 9 -3 5 4 -13 22 -45 13
-52 -14z"/>
<path d="M5111 2763 c5 -16 12 -34 15 -42 2 -8 7 -12 9 -9 6 5 -22 78 -30 78
-2 0 0 -12 6 -27z"/>
<path d="M4353 2751 c1 -14 9 -26 17 -28 10 -3 11 -2 4 4 -7 4 -14 17 -17 28
-5 16 -5 15 -4 -4z"/>
<path d="M3632 2740 c-7 -11 -8 -20 -3 -20 9 0 24 30 18 36 -1 2 -8 -6 -15
-16z"/>
<path d="M4110 2735 c0 -8 4 -15 10 -15 5 0 7 7 4 15 -4 8 -8 15 -10 15 -2 0
-4 -7 -4 -15z"/>
<path d="M3995 2730 c-3 -5 -1 -10 4 -10 6 0 11 5 11 10 0 6 -2 10 -4 10 -3 0
-8 -4 -11 -10z"/>
<path d="M4395 2730 c-3 -5 -1 -10 4 -10 6 0 11 5 11 10 0 6 -2 10 -4 10 -3 0
-8 -4 -11 -10z"/>
<path d="M4395 2700 c-3 -5 -1 -10 4 -10 6 0 11 5 11 10 0 6 -2 10 -4 10 -3 0
-8 -4 -11 -10z"/>
<path d="M6725 2461 c-3 -5 -1 -12 5 -16 5 -3 10 1 10 9 0 18 -6 21 -15 7z"/>
<path d="M6780 2454 c0 -8 5 -12 10 -9 6 4 8 11 5 16 -9 14 -15 11 -15 -7z"/>
<path d="M3309 2443 c-10 -12 -10 -14 -1 -9 9 5 12 -4 12 -33 0 -23 5 -41 10
-41 12 0 13 87 1 94 -5 3 -15 -2 -22 -11z"/>
<path d="M3370 2445 c-8 -9 -9 -15 -2 -15 6 0 14 5 17 10 10 16 25 11 25 -8 0
-11 -9 -27 -20 -37 -11 -10 -20 -24 -20 -32 0 -15 46 -18 55 -3 3 6 -3 10 -15
10 l-21 0 22 30 c18 24 20 32 9 45 -16 19 -34 19 -50 0z"/>
<path d="M3461 2418 c-23 -81 -24 -83 -13 -73 10 11 35 105 29 111 -2 2 -9
-15 -16 -38z"/>
<path d="M3504 2444 c-15 -13 -16 -15 -2 -10 14 4 18 -3 21 -42 3 -46 3 -46 5
11 1 31 1 57 -1 57 -2 0 -12 -7 -23 -16z"/>
<path d="M3566 2444 c-10 -26 -7 -32 16 -36 13 -2 24 -11 26 -22 3 -15 -1 -18
-22 -14 -21 4 -24 3 -15 -8 15 -18 24 -18 43 2 18 18 5 54 -19 54 -24 0 -17
28 8 33 20 4 19 4 -4 6 -16 0 -29 -5 -33 -15z"/>
<path d="M3665 2448 c-12 -38 -26 -101 -22 -104 2 -3 11 22 20 56 8 33 13 60
11 60 -3 0 -7 -6 -9 -12z"/>
<path d="M3699 2443 c-13 -16 -12 -17 3 -5 19 15 38 9 38 -12 0 -7 -11 -23
-25 -36 -13 -12 -22 -27 -19 -31 7 -12 54 -11 54 1 0 6 -7 10 -15 10 -12 0
-12 4 2 28 27 48 -6 86 -38 45z"/>
<path d="M3779 2436 c-22 -48 13 -103 47 -75 8 6 14 26 14 43 0 55 -41 76 -61
32z m47 -11 c8 -32 -1 -55 -21 -55 -10 0 -15 10 -15 33 0 51 25 66 36 22z"/>
<path d="M3869 2443 c-13 -16 -12 -17 3 -5 19 15 38 9 38 -12 0 -7 -11 -23
-25 -36 -13 -12 -22 -27 -19 -31 7 -12 54 -11 54 1 0 6 -7 10 -15 10 -12 0
-12 4 2 28 27 48 -6 86 -38 45z"/>
<path d="M3968 2429 c-33 -42 -34 -49 -10 -49 10 0 23 -5 29 -11 15 -15 20 7
13 56 l-5 40 -27 -36z m22 -19 c0 -11 -7 -20 -15 -20 -18 0 -19 12 -3 28 16
16 18 15 18 -8z"/>
<path d="M3211 1527 c2 -1 13 -9 24 -17 19 -14 19 -14 6 3 -7 9 -18 17 -24 17
-6 0 -8 -1 -6 -3z"/>
<path d="M3184 1509 c-3 -6 -2 -15 3 -20 5 -5 9 -1 9 11 0 23 -2 24 -12 9z"/>
<path d="M3478 1475 c-2 -25 0 -45 4 -45 5 0 8 20 8 45 0 25 -2 45 -4 45 -2 0
-6 -20 -8 -45z"/>
<path d="M3863 1475 c0 -27 2 -38 4 -22 2 15 2 37 0 50 -2 12 -4 0 -4 -28z"/>
<path d="M3938 1508 c-2 -7 -1 -29 2 -48 l6 -35 5 38 c5 38 -4 71 -13 45z"/>
<path d="M4188 1508 c-2 -7 -1 -29 2 -48 l6 -35 5 38 c5 38 -4 71 -13 45z"/>
<path d="M4232 1475 c0 -40 2 -44 7 -20 9 43 38 45 44 3 l5 -33 -2 35 c-1 28
-5 35 -21 35 -11 0 -23 7 -27 15 -4 8 -6 -7 -6 -35z"/>
<path d="M5383 1475 c0 -27 2 -38 4 -22 2 15 2 37 0 50 -2 12 -4 0 -4 -28z"/>
<path d="M5588 1475 c-2 -25 0 -45 4 -45 5 0 8 20 8 45 0 25 -2 45 -4 45 -2 0
-6 -20 -8 -45z"/>
<path d="M5713 1475 c0 -27 2 -38 4 -22 2 15 2 37 0 50 -2 12 -4 0 -4 -28z"/>
<path d="M5873 1475 c0 -27 2 -38 4 -22 2 15 2 37 0 50 -2 12 -4 0 -4 -28z"/>
<path d="M6388 1508 c-2 -7 -1 -29 2 -48 l6 -35 5 38 c5 38 -4 71 -13 45z"/>
<path d="M3277 1494 c-10 -11 -8 -52 3 -59 6 -3 7 1 4 9 -5 12 1 16 21 16 20
0 26 4 23 18 -3 17 -38 29 -51 16z m43 -14 c0 -5 -9 -10 -20 -10 -11 0 -20 5
-20 10 0 6 9 10 20 10 11 0 20 -4 20 -10z"/>
<path d="M3353 1465 c0 -22 2 -30 4 -17 2 12 2 30 0 40 -3 9 -5 -1 -4 -23z"/>
<path d="M3382 1494 c10 -3 19 -19 21 -37 4 -31 5 -31 3 3 -1 27 -5 35 -21 37
-14 1 -15 0 -3 -3z"/>
<path d="M3437 1493 c-10 -9 -9 -51 1 -57 5 -3 6 8 4 24 -3 21 1 29 15 33 13
3 14 5 2 6 -9 0 -19 -2 -22 -6z"/>
<path d="M3560 1496 c0 -2 11 -6 25 -8 13 -3 22 -1 19 3 -5 9 -44 13 -44 5z"/>
<path d="M3631 1461 c1 -36 1 -36 8 -6 9 43 39 45 44 3 l4 -33 1 33 c1 20 7
32 16 32 9 0 17 -13 19 -32 l5 -33 -2 35 c-1 35 -1 35 -48 36 l-48 1 1 -36z"/>
<path d="M3778 1493 c26 -5 29 -20 5 -26 -16 -4 -16 -5 1 -6 12 -1 16 -6 12
-16 -3 -8 -1 -15 5 -15 6 0 9 15 7 33 -2 26 -8 32 -28 34 -22 1 -22 1 -2 -4z"/>
<path d="M3833 1465 c0 -22 2 -30 4 -17 2 12 2 30 0 40 -3 9 -5 -1 -4 -23z"/>
<path d="M3987 1494 c-10 -10 -9 -52 1 -58 5 -3 6 8 4 25 -4 24 -1 29 16 29
11 0 23 -5 25 -10 3 -6 4 -5 3 2 -3 14 -38 23 -49 12z"/>
<path d="M4107 1494 c-10 -10 -9 -52 1 -58 5 -3 6 8 4 25 -4 24 -1 29 16 29
11 0 23 -5 25 -10 3 -6 4 -5 3 2 -3 14 -38 23 -49 12z"/>
<path d="M4322 1488 c-15 -15 -16 -45 -2 -53 6 -3 7 1 4 9 -5 12 1 16 27 17
l34 2 -35 7 c-27 5 -31 8 -18 14 9 4 22 4 29 0 8 -4 9 -3 5 4 -9 15 -29 15
-44 0z"/>
<path d="M4405 1490 c-3 -6 1 -7 9 -4 18 7 21 14 7 14 -6 0 -13 -4 -16 -10z"/>
<path d="M4482 1475 c0 -16 2 -22 5 -12 2 9 2 23 0 30 -3 6 -5 -1 -5 -18z"/>
<path d="M4528 1465 c-2 -19 0 -35 4 -35 4 0 8 16 8 35 0 19 -2 35 -4 35 -2 0
-6 -16 -8 -35z"/>
<path d="M4567 1493 c-13 -12 -7 -24 19 -33 15 -6 22 -14 18 -22 -4 -7 -3 -8
5 -4 15 10 -4 36 -25 36 -23 0 -16 18 9 23 20 4 20 4 1 6 -11 0 -24 -2 -27 -6z"/>
<path d="M4642 1488 c-15 -15 -16 -45 -2 -53 6 -3 7 1 4 9 -5 12 1 16 27 17
l34 2 -35 7 c-27 5 -31 8 -18 14 9 4 22 4 29 0 8 -4 9 -3 5 4 -9 15 -29 15
-44 0z"/>
<path d="M4725 1490 c-3 -6 1 -7 9 -4 18 7 21 14 7 14 -6 0 -13 -4 -16 -10z"/>
<path d="M4778 1493 c6 -2 18 -2 25 0 6 3 1 5 -13 5 -14 0 -19 -2 -12 -5z"/>
<path d="M4882 1488 c-14 -14 -16 -44 -4 -52 4 -2 8 7 7 22 0 35 31 42 44 10
6 -14 10 -17 10 -7 1 17 -18 39 -34 39 -6 0 -16 -5 -23 -12z"/>
<path d="M4962 1463 l1 -38 4 33 c4 28 8 33 24 29 10 -3 19 -1 19 4 0 5 -11 9
-25 9 -23 0 -25 -4 -23 -37z"/>
<path d="M5047 1493 c-3 -5 5 -8 18 -8 13 0 21 3 18 8 -2 4 -10 7 -18 7 -8 0
-16 -3 -18 -7z"/>
<path d="M5122 1488 c-15 -15 -16 -45 -2 -53 6 -3 7 1 4 9 -5 12 1 16 22 17
l29 1 -30 8 c-24 5 -27 8 -13 14 9 4 22 4 29 0 8 -4 9 -3 5 4 -9 15 -29 15
-44 0z"/>
<path d="M5235 1490 c-9 -14 1 -27 25 -33 11 -3 18 -1 14 4 -3 5 -12 9 -20 9
-23 0 -16 18 9 23 22 4 22 4 0 6 -12 0 -25 -3 -28 -9z"/>
<path d="M5304 1474 c-4 -14 -2 -30 3 -35 5 -5 9 2 8 19 0 21 4 27 22 26 12 0
20 3 17 8 -12 19 -44 7 -50 -18z"/>
<path d="M5412 1494 c10 -3 19 -19 21 -37 4 -31 5 -31 3 3 -1 27 -5 35 -21 37
-14 1 -15 0 -3 -3z"/>
<path d="M5467 1494 c-10 -11 -8 -52 3 -59 6 -3 7 1 4 9 -5 12 1 16 21 16 20
0 26 4 23 18 -3 17 -38 29 -51 16z m43 -14 c0 -5 -9 -10 -20 -10 -11 0 -20 5
-20 10 0 6 9 10 20 10 11 0 20 -4 20 -10z"/>
<path d="M5547 1493 c-10 -9 -9 -51 1 -57 5 -3 6 8 4 24 -3 21 1 29 15 33 13
3 14 5 2 6 -9 0 -19 -2 -22 -6z"/>
<path d="M5630 1465 c0 -19 4 -35 8 -35 4 0 6 16 4 35 -2 19 -6 35 -8 35 -2 0
-4 -16 -4 -35z"/>
<path d="M5746 1492 c-3 -5 6 -7 19 -4 14 2 25 0 25 -6 0 -6 -12 -13 -27 -15
-26 -4 -25 -4 5 -6 27 -1 33 2 30 17 -3 18 -42 29 -52 14z"/>
<path d="M5826 1491 c-4 -5 3 -7 14 -4 23 6 26 13 6 13 -8 0 -17 -4 -20 -9z"/>
<path d="M5943 1465 c0 -22 2 -30 4 -17 2 12 2 30 0 40 -3 9 -5 -1 -4 -23z"/>
<path d="M5997 1494 c-10 -11 -8 -52 3 -59 6 -3 7 1 4 9 -5 12 1 16 21 16 20
0 26 4 23 18 -3 17 -38 29 -51 16z m43 -14 c0 -5 -9 -10 -20 -10 -11 0 -20 5
-20 10 0 6 9 10 20 10 11 0 20 -4 20 -10z"/>
<path d="M6077 1493 c-10 -9 -9 -51 1 -57 5 -3 6 8 4 24 -3 21 1 29 15 33 13
3 14 5 2 6 -9 0 -19 -2 -22 -6z"/>
<path d="M6118 1466 c-2 -19 -1 -43 3 -53 5 -11 8 2 8 35 1 59 -5 69 -11 18z"/>
<path d="M6152 1475 c0 -16 2 -22 5 -12 2 9 2 23 0 30 -3 6 -5 -1 -5 -18z"/>
<path d="M6198 1465 c-2 -19 0 -35 4 -35 4 0 8 16 8 35 0 19 -2 35 -4 35 -2 0
-6 -16 -8 -35z"/>
<path d="M6240 1496 c0 -2 11 -6 25 -8 13 -3 22 -1 19 3 -5 9 -44 13 -44 5z"/>
<path d="M6317 1493 c-13 -12 -7 -24 19 -33 15 -6 22 -14 18 -22 -4 -7 -3 -8
5 -4 15 10 -4 36 -25 36 -23 0 -16 18 9 23 20 4 20 4 1 6 -11 0 -24 -2 -27 -6z"/>
<path d="M6437 1493 c-13 -12 -7 -24 19 -33 15 -6 22 -14 18 -22 -4 -7 -3 -8
5 -4 15 10 -4 36 -25 36 -23 0 -16 18 9 23 20 4 20 4 1 6 -11 0 -24 -2 -27 -6z"/>
<path d="M3550 1459 c0 -10 4 -21 10 -24 5 -3 7 0 4 9 -4 10 3 16 23 18 l28 3
-32 6 c-27 5 -33 2 -33 -12z"/>
<path d="M4770 1471 c0 -5 9 -11 21 -14 13 -4 18 -10 13 -18 -4 -8 -3 -10 4
-5 18 11 14 22 -13 34 -14 6 -25 8 -25 3z"/>
<path d="M6230 1459 c0 -10 4 -21 10 -24 5 -3 7 0 4 9 -4 10 3 16 23 18 l28 3
-32 6 c-27 5 -33 2 -33 -12z"/>
<path d="M3237 1451 c-4 -17 -3 -21 5 -13 5 5 8 16 6 23 -3 8 -7 3 -11 -10z"/>
<path d="M3751 1444 c0 -11 3 -14 6 -6 3 7 2 16 -1 19 -3 4 -6 -2 -5 -13z"/>
<path d="M4026 1443 c-6 -14 -5 -15 5 -6 7 7 10 15 7 18 -3 3 -9 -2 -12 -12z"/>
<path d="M4146 1443 c-6 -14 -5 -15 5 -6 7 7 10 15 7 18 -3 3 -9 -2 -12 -12z"/>
<path d="M5040 1440 c0 -5 5 -10 11 -10 5 0 7 5 4 10 -3 6 -8 10 -11 10 -2 0
-4 -4 -4 -10z"/>
<path d="M5665 1440 c-3 -5 -1 -10 4 -10 6 0 11 5 11 10 0 6 -2 10 -4 10 -3 0
-8 -4 -11 -10z"/>
<path d="M5740 1440 c0 -5 5 -10 11 -10 5 0 7 5 4 10 -3 6 -8 10 -11 10 -2 0
-4 -4 -4 -10z"/>
<path d="M5820 1440 c0 -5 5 -10 11 -10 5 0 7 5 4 10 -3 6 -8 10 -11 10 -2 0
-4 -4 -4 -10z"/>
<path d="M3709 1308 c-2 -27 3 -63 11 -71 4 -5 5 4 2 18 -2 15 0 30 6 34 6 4
5 11 -4 19 -11 10 -14 10 -15 0z"/>
<path d="M3890 1306 c0 -9 -7 -12 -18 -9 -27 7 -47 -22 -34 -50 10 -21 10 -20
9 8 -2 24 2 30 18 30 15 0 20 -7 20 -27 -1 -16 3 -28 7 -28 4 0 8 20 8 45 0
25 -2 45 -5 45 -3 0 -5 -6 -5 -14z"/>
<path d="M3198 1293 c6 -2 18 -2 25 0 6 3 1 5 -13 5 -14 0 -19 -2 -12 -5z"/>
<path d="M3263 1265 c0 -22 2 -30 4 -17 2 12 2 30 0 40 -3 9 -5 -1 -4 -23z"/>
<path d="M3315 1290 c-3 -5 0 -7 9 -4 8 3 21 2 28 -3 9 -5 2 -10 -22 -14 l-35
-6 38 -2 c38 -1 46 6 25 27 -15 15 -35 16 -43 2z"/>
<path d="M3432 1288 c-7 -7 -12 -19 -11 -27 0 -10 4 -6 10 8 7 17 15 22 29 18
11 -3 18 -1 14 4 -7 13 -28 11 -42 -3z"/>
<path d="M3503 1265 c0 -22 2 -30 4 -17 2 12 2 30 0 40 -3 9 -5 -1 -4 -23z"/>
<path d="M3557 1294 c-10 -11 -8 -52 3 -59 6 -3 7 1 4 9 -5 12 1 16 21 16 20
0 26 4 23 18 -3 17 -38 29 -51 16z m43 -14 c0 -5 -9 -10 -20 -10 -11 0 -20 5
-20 10 0 6 9 10 20 10 11 0 20 -4 20 -10z"/>
<path d="M3637 1293 c-3 -5 6 -8 19 -8 13 0 24 3 24 8 0 4 -9 7 -19 7 -11 0
-22 -3 -24 -7z"/>
<path d="M3760 1285 c-10 -12 -10 -20 -1 -38 6 -12 9 -14 7 -4 -4 13 1 17 24
17 32 0 37 9 18 28 -16 16 -33 15 -48 -3z m45 -5 c4 -6 -5 -10 -20 -10 -15 0
-24 4 -20 10 3 6 12 10 20 10 8 0 17 -4 20 -10z"/>
<path d="M3215 1270 c-18 -8 -19 -9 -1 -9 12 -1 16 -6 12 -16 -3 -8 -1 -15 4
-15 6 0 10 11 10 25 0 14 -1 25 -2 24 -2 0 -12 -4 -23 -9z"/>
<path d="M3633 1255 c-3 -9 -3 -19 1 -22 3 -4 6 1 6 10 0 8 10 18 23 20 l22 4
-23 2 c-12 0 -25 -6 -29 -14z"/>
<path d="M3181 1244 c0 -11 3 -14 6 -6 3 7 2 16 -1 19 -3 4 -6 -2 -5 -13z"/>
<path d="M3310 1240 c0 -5 5 -10 11 -10 5 0 7 5 4 10 -3 6 -8 10 -11 10 -2 0
-4 -4 -4 -10z"/>
<path d="M3418 863 c6 -2 18 -2 25 0 6 3 1 5 -13 5 -14 0 -19 -2 -12 -5z"/>
<path d="M3993 830 c0 -25 2 -35 4 -22 2 12 2 32 0 45 -2 12 -4 2 -4 -23z"/>
<path d="M4320 856 c0 -9 -7 -12 -19 -9 -21 5 -40 -32 -24 -48 6 -6 9 -1 9 13
-1 14 5 23 14 23 9 0 15 -9 14 -22 0 -13 3 -23 8 -23 4 0 8 18 8 40 0 22 -2
40 -5 40 -3 0 -5 -6 -5 -14z"/>
<path d="M4460 845 c-10 -12 -16 -13 -29 -3 -13 10 -14 10 -4 -2 10 -10 10
-17 1 -29 -10 -13 -10 -14 2 -4 11 10 18 9 34 -5 21 -17 21 -17 4 4 -17 19
-17 21 -1 37 10 9 15 17 11 17 -3 0 -11 -7 -18 -15z"/>
<path d="M3400 826 c0 -14 4 -27 8 -30 5 -3 6 8 4 25 -5 35 -12 38 -12 5z"/>
<path d="M3510 820 c0 -16 4 -30 8 -30 5 0 7 14 4 30 -2 17 -6 30 -8 30 -2 0
-4 -13 -4 -30z"/>
<path d="M3552 820 c0 -19 2 -27 5 -17 2 9 2 25 0 35 -3 9 -5 1 -5 -18z"/>
<path d="M3585 839 c-4 -6 -4 -13 -1 -16 3 -4 6 -1 6 5 0 6 8 13 18 15 15 4
15 5 0 6 -9 0 -20 -4 -23 -10z"/>
<path d="M3661 847 c2 -1 13 -9 24 -17 19 -14 19 -14 6 3 -7 9 -18 17 -24 17
-6 0 -8 -1 -6 -3z"/>
<path d="M3765 839 c-4 -6 -4 -13 -1 -16 3 -4 6 -1 6 5 0 6 8 13 18 15 15 4
15 5 0 6 -9 0 -20 -4 -23 -10z"/>
<path d="M3865 839 c-11 -16 -1 -19 13 -3 7 8 8 14 3 14 -5 0 -13 -5 -16 -11z"/>
<path d="M3927 844 c-10 -10 -9 -42 2 -48 4 -3 6 6 3 19 -3 18 0 25 11 25 8 0
18 -5 20 -10 3 -6 4 -5 3 2 -3 15 -28 22 -39 12z"/>
<path d="M4027 843 c-10 -9 -9 -41 2 -47 4 -3 6 6 3 21 -4 23 -2 25 17 20 11
-3 19 -1 15 4 -6 11 -28 12 -37 2z"/>
<path d="M4097 843 c-10 -9 -9 -41 2 -47 4 -3 6 6 3 21 -4 23 -2 25 17 20 11
-3 19 -1 15 4 -6 11 -28 12 -37 2z"/>
<path d="M4168 843 c7 -3 16 -2 19 1 4 3 -2 6 -13 5 -11 0 -14 -3 -6 -6z"/>
<path d="M4221 847 c2 -1 13 -9 24 -17 19 -14 19 -14 6 3 -7 9 -18 17 -24 17
-6 0 -8 -1 -6 -3z"/>
<path d="M3428 833 c7 -3 16 -2 19 1 4 3 -2 6 -13 5 -11 0 -14 -3 -6 -6z"/>
<path d="M3640 816 c0 -8 4 -17 9 -20 5 -4 7 3 4 14 -6 23 -13 26 -13 6z"/>
<path d="M4200 816 c0 -8 4 -17 9 -20 5 -4 7 3 4 14 -6 23 -13 26 -13 6z"/>
<path d="M5092 800 c0 -19 2 -27 5 -17 2 9 2 25 0 35 -3 9 -5 1 -5 -18z"/>
<path d="M3446 803 c-6 -14 -5 -15 5 -6 7 7 10 15 7 18 -3 3 -9 -2 -12 -12z"/>
<path d="M3608 813 c6 -2 9 -10 6 -15 -4 -7 -2 -8 5 -4 13 9 5 26 -12 25 -9 0
-8 -2 1 -6z"/>
<path d="M3788 813 c6 -2 9 -10 6 -15 -4 -7 -2 -8 5 -4 13 9 5 26 -12 25 -9 0
-8 -2 1 -6z"/>
<path d="M3886 805 c4 -8 8 -15 10 -15 2 0 4 7 4 15 0 8 -4 15 -10 15 -5 0 -7
-7 -4 -15z"/>
<path d="M4724 790 c0 -13 4 -16 10 -10 7 7 7 13 0 20 -6 6 -10 3 -10 -10z"/>
</g>
</svg>
