<?xml version="1.0" standalone="no"?>
<!DOCTYPE svg PUBLIC "-//W3C//DTD SVG 20010904//EN"
 "http://www.w3.org/TR/2001/REC-SVG-20010904/DTD/svg10.dtd">
<svg version="1.0" xmlns="http://www.w3.org/2000/svg"
 width="1440.000000pt" height="878.000000pt" viewBox="0 0 1440.000000 878.000000"
 preserveAspectRatio="xMidYMid meet">

<g transform="translate(0.000000,878.000000) scale(0.100000,-0.100000)"
fill="#000000" stroke="none">
<path d="M317 8302 c-29 -30 -36 -79 -15 -100 7 -7 33 -12 58 -12 54 0 70 13
70 54 0 33 -43 86 -70 86 -9 0 -28 -13 -43 -28z m70 -4 c15 -14 23 -33 23 -55
0 -40 -17 -44 -22 -5 -2 21 -8 27 -28 27 -20 0 -26 -6 -28 -27 -5 -39 -22 -35
-22 4 0 19 9 41 22 55 26 28 26 28 55 1z m-17 -68 c0 -11 -4 -20 -10 -20 -5 0
-10 9 -10 20 0 11 5 20 10 20 6 0 10 -9 10 -20z"/>
<path d="M3276 8166 c10 -8 21 -12 24 -10 5 6 -21 24 -34 24 -6 0 -1 -6 10
-14z"/>
<path d="M3654 8161 c17 -18 16 -20 -13 -54 -17 -19 -31 -37 -31 -41 0 -3 17
-5 38 -5 30 2 32 3 10 6 -34 5 -34 8 -3 44 25 31 25 53 -3 64 -14 5 -13 3 2
-14z"/>
<path d="M3842 8163 c-4 -10 -5 -38 -1 -63 l6 -45 1 43 c1 26 7 42 15 42 8 0
7 4 -3 10 -13 9 -13 11 0 20 9 6 11 10 3 10 -7 0 -16 -8 -21 -17z"/>
<path d="M3944 8164 c-18 -14 -18 -15 4 -4 23 11 42 6 42 -12 0 -5 -14 -28
-31 -49 l-31 -39 39 1 c30 2 32 3 10 6 l-28 4 26 30 c28 34 31 49 13 67 -16
16 -20 15 -44 -4z"/>
<path d="M3237 8163 c-16 -15 -5 -35 29 -49 19 -8 34 -20 31 -27 -5 -17 -48
-21 -59 -5 -8 10 -9 10 -5 -2 5 -21 51 -24 67 -6 16 20 1 41 -36 50 -20 5 -25
12 -21 26 5 21 4 24 -6 13z"/>
<path d="M3045 8140 c-17 -19 -17 -21 0 -40 10 -11 23 -20 28 -20 6 0 2 9 -8
20 -17 19 -17 21 0 40 10 11 14 20 8 20 -5 0 -18 -9 -28 -20z"/>
<path d="M3329 8152 c-5 -33 9 -92 23 -92 9 0 9 3 0 12 -16 16 -16 65 0 70 7
3 6 7 -5 11 -9 3 -18 3 -18 -1z"/>
<path d="M3423 8139 c25 -15 21 -29 -9 -29 -20 0 -25 4 -20 16 3 8 2 12 -4 9
-14 -9 -13 -48 2 -63 14 -14 44 -16 53 -3 3 6 -7 9 -21 8 -15 -1 -29 4 -31 11
-3 8 6 12 26 12 19 0 31 5 31 13 0 16 -20 37 -34 37 -6 0 -3 -5 7 -11z"/>
<path d="M3471 8085 c1 -33 4 -51 7 -40 5 13 16 20 31 20 13 0 25 6 27 13 1 7
0 8 -3 2 -9 -18 -41 -11 -48 11 -5 14 -1 27 9 38 16 15 18 14 36 -9 19 -24 19
-24 13 -2 -6 24 -6 24 -45 26 -28 2 -28 1 -27 -59z"/>
<path d="M3758 8139 c-22 -12 -23 -52 -3 -69 18 -15 47 -10 53 10 5 13 3 13
-11 1 -23 -18 -47 -7 -47 23 0 31 30 43 47 20 7 -10 13 -13 13 -8 0 11 -21 34
-29 34 -4 0 -14 -5 -23 -11z"/>
<path d="M330 7720 c0 -5 5 -10 10 -10 6 0 10 5 10 10 0 6 -4 10 -10 10 -5 0
-10 -4 -10 -10z"/>
<path d="M370 7720 c0 -5 5 -10 10 -10 6 0 10 5 10 10 0 6 -4 10 -10 10 -5 0
-10 -4 -10 -10z"/>
<path d="M330 7680 c0 -5 5 -10 10 -10 6 0 10 5 10 10 0 6 -4 10 -10 10 -5 0
-10 -4 -10 -10z"/>
<path d="M370 7680 c0 -5 5 -10 10 -10 6 0 10 5 10 10 0 6 -4 10 -10 10 -5 0
-10 -4 -10 -10z"/>
<path d="M10094 7488 c-35 -16 -44 -52 -44 -169 0 -114 12 -160 45 -173 9 -3
301 -6 649 -6 626 0 634 0 660 21 26 20 26 21 26 159 0 138 0 139 -26 159 -26
21 -34 21 -658 20 -413 0 -638 -4 -652 -11z m436 -133 c14 -17 0 -21 -17 -4
-19 19 -43 2 -43 -30 0 -31 26 -49 44 -31 16 16 30 12 16 -5 -20 -24 -59 -19
-72 10 -24 53 36 103 72 60z m213 -38 c-4 -19 -1 -32 8 -38 11 -7 11 -9 -2 -9
-9 0 -20 7 -23 16 -8 21 -8 69 1 77 12 13 22 -16 16 -46z m-133 19 c20 -26 8
-61 -22 -64 -22 -3 -29 2 -34 22 -11 44 29 74 56 42z m87 -31 c1 -35 1 -36 -5
-10 -10 43 -40 45 -45 3 -4 -31 -4 -30 -5 7 -2 38 0 41 26 40 25 0 27 -4 29
-40z m93 -1 c0 -19 -4 -34 -10 -34 -5 0 -10 18 -10 41 0 24 4 38 10 34 6 -3
10 -22 10 -41z m68 34 c14 -14 16 -68 2 -68 -5 0 -10 14 -10 30 0 20 -5 30
-15 30 -10 0 -15 -10 -15 -30 0 -16 -4 -30 -10 -30 -5 0 -10 15 -10 34 0 32 4
37 41 45 3 0 10 -4 17 -11z m57 -49 c6 0 12 11 13 23 7 43 22 43 22 0 0 -40
-1 -42 -30 -42 -29 0 -30 2 -29 43 2 40 2 41 8 9 3 -18 11 -33 16 -33z m99 55
c9 -3 16 -15 16 -25 0 -14 -7 -19 -26 -19 -15 0 -23 -4 -19 -10 4 -6 16 -8 27
-4 14 4 18 2 14 -5 -11 -18 -44 -13 -56 8 -13 25 -13 27 6 45 18 18 17 18 38
10z"/>
<path d="M10570 7305 c0 -20 4 -26 18 -23 9 2 17 12 17 23 0 11 -8 21 -17 23
-14 3 -18 -3 -18 -23z"/>
<path d="M10988 7323 c6 -2 18 -2 25 0 6 3 1 5 -13 5 -14 0 -19 -2 -12 -5z"/>
<path d="M3005 7466 c-21 -15 -25 -67 -5 -90 15 -19 51 -21 68 -4 21 21 13 29
-12 13 -22 -14 -25 -14 -40 1 -35 35 3 92 44 66 11 -7 20 -8 20 -2 0 10 -32
30 -47 30 -5 0 -18 -6 -28 -14z"/>
<path d="M3292 7463 c-11 -22 -3 -103 9 -103 5 0 9 15 9 34 0 19 6 37 13 40 9
5 9 7 -1 12 -10 5 -10 9 -1 20 9 11 8 14 -4 14 -9 0 -20 -8 -25 -17z"/>
<path d="M3340 7470 c0 -5 5 -10 10 -10 6 0 10 5 10 10 0 6 -4 10 -10 10 -5 0
-10 -4 -10 -10z"/>
<path d="M3770 7470 c0 -5 5 -10 10 -10 6 0 10 5 10 10 0 6 -4 10 -10 10 -5 0
-10 -4 -10 -10z"/>
<path d="M4048 7469 c-29 -16 -21 -39 18 -55 34 -14 35 -17 21 -31 -13 -14
-19 -14 -32 -3 -18 15 -34 5 -18 -11 6 -6 23 -9 39 -7 21 2 30 9 32 26 3 18
-3 26 -27 35 -42 16 -42 42 0 33 27 -5 30 -4 19 9 -14 17 -28 18 -52 4z"/>
<path d="M3717 7457 c-9 -23 8 -90 23 -95 12 -4 13 -2 3 9 -17 17 -17 56 -1
61 9 3 8 9 -4 21 -12 12 -17 13 -21 4z"/>
<path d="M4227 7457 c-9 -23 8 -90 23 -95 12 -4 13 -2 3 9 -17 17 -17 56 -1
61 9 3 8 9 -4 21 -12 12 -17 13 -21 4z"/>
<path d="M3110 7436 c-28 -35 11 -93 48 -70 23 15 27 48 7 68 -20 20 -39 20
-55 2z m48 -30 c2 -10 -1 -23 -7 -29 -16 -16 -44 14 -35 37 8 22 38 17 42 -8z"/>
<path d="M3195 7441 c-10 -9 -5 -81 5 -81 6 0 10 16 10 35 0 28 4 35 20 35 16
0 20 -7 20 -35 0 -19 5 -35 10 -35 15 0 12 66 -3 78 -12 11 -53 13 -62 3z"/>
<path d="M3340 7405 c0 -25 5 -45 10 -45 6 0 10 20 10 45 0 25 -4 45 -10 45
-5 0 -10 -20 -10 -45z"/>
<path d="M3392 7438 c-20 -20 -15 -66 8 -73 11 -3 25 -3 31 1 7 4 10 1 7 -7
-3 -8 -17 -13 -33 -12 -20 2 -25 -1 -18 -8 6 -6 21 -9 34 -7 22 3 24 9 27 58
3 52 1 56 -21 58 -13 1 -29 -4 -35 -10z m44 -23 c4 -8 0 -22 -7 -31 -11 -13
-14 -13 -27 0 -17 17 -9 46 13 46 9 0 18 -7 21 -15z"/>
<path d="M3484 7410 c1 -43 2 -45 34 -47 32 -1 32 -1 32 43 0 24 -4 44 -10 44
-5 0 -10 -16 -10 -35 0 -19 -4 -35 -10 -35 -5 0 -13 0 -17 0 -5 -1 -11 16 -14
37 -7 38 -7 37 -5 -7z"/>
<path d="M3572 7400 c1 -37 2 -39 5 -12 3 18 11 36 19 39 21 8 17 19 -6 19
-17 0 -20 -6 -18 -46z"/>
<path d="M3637 7444 c-14 -15 -6 -21 21 -16 18 3 24 1 17 -6 -5 -5 -19 -12
-30 -14 -12 -2 -20 -11 -20 -23 0 -16 7 -20 33 -21 33 -1 33 0 30 40 -2 32 -7
42 -23 44 -12 2 -24 0 -28 -4z m37 -59 c-4 -8 -12 -15 -20 -15 -8 0 -14 7 -14
15 0 8 9 15 20 15 13 0 18 -5 14 -15z"/>
<path d="M3770 7406 c0 -25 5 -46 10 -46 6 0 10 18 10 39 0 22 -4 43 -10 46
-6 4 -10 -12 -10 -39z"/>
<path d="M3816 7434 c-19 -18 -20 -28 -6 -55 20 -36 70 -17 70 26 0 41 -36 58
-64 29z m48 -21 c8 -19 -17 -48 -33 -39 -6 4 -11 18 -11 32 0 28 34 34 44 7z"/>
<path d="M3900 7403 c0 -24 5 -43 10 -43 6 0 10 16 10 36 0 28 3 35 18 32 10
-2 19 -16 24 -38 6 -32 6 -31 5 10 -2 44 -3 45 -34 45 -32 1 -33 0 -33 -42z"/>
<path d="M4141 7436 c-7 -8 -11 -27 -9 -43 2 -21 9 -29 27 -31 13 -2 28 2 35
8 8 9 6 11 -10 6 -13 -4 -26 -1 -34 9 -11 13 -8 15 19 15 24 0 31 4 31 19 0
30 -39 41 -59 17z m44 -16 c4 -6 -5 -10 -20 -10 -15 0 -24 4 -20 10 3 6 12 10
20 10 8 0 17 -4 20 -10z"/>
<path d="M4284 7410 c1 -43 2 -45 34 -47 32 -1 32 -1 32 43 0 24 -4 44 -10 44
-5 0 -10 -15 -10 -34 0 -60 -33 -53 -43 9 -3 19 -4 13 -3 -15z"/>
<path d="M4370 7388 c0 -32 4 -58 10 -58 6 0 10 9 10 20 0 13 5 18 15 14 21
-8 45 14 45 41 0 29 -18 44 -52 42 -27 -2 -28 -4 -28 -59z m58 15 c-2 -17 -9
-28 -18 -28 -9 0 -16 11 -18 28 -3 22 1 27 18 27 17 0 21 -5 18 -27z"/>
<path d="M320 7195 c-19 -23 -8 -50 20 -50 16 0 26 6 28 18 4 18 -14 47 -28
47 -4 0 -13 -7 -20 -15z m38 -22 c-2 -10 -10 -18 -18 -18 -8 0 -16 8 -18 18
-2 12 3 17 18 17 15 0 20 -5 18 -17z"/>
<path d="M390 7191 c13 -9 13 -14 2 -32 -11 -18 -11 -20 0 -17 18 6 17 50 -2
55 -13 4 -13 3 0 -6z"/>
<path d="M7815 7190 c-3 -6 1 -7 9 -4 18 7 21 14 7 14 -6 0 -13 -4 -16 -10z"/>
<path d="M2993 7175 c-3 -9 -3 -18 -1 -21 3 -3 8 4 11 16 6 23 -1 27 -10 5z"/>
<path d="M3183 7135 c0 -33 2 -45 4 -27 2 18 2 45 0 60 -2 15 -4 0 -4 -33z"/>
<path d="M6563 7135 c0 -33 2 -45 4 -27 2 18 2 45 0 60 -2 15 -4 0 -4 -33z"/>
<path d="M3493 7135 c0 -27 2 -38 4 -22 2 15 2 37 0 50 -2 12 -4 0 -4 -28z"/>
<path d="M3267 7144 c5 -14 1 -16 -25 -12 -27 4 -32 1 -31 -16 0 -12 3 -15 6
-8 2 6 18 12 34 12 29 0 41 22 19 35 -6 4 -7 -1 -3 -11z"/>
<path d="M3600 7117 c4 -41 5 -41 8 -8 2 18 0 37 -5 42 -5 5 -6 -11 -3 -34z"/>
<path d="M3816 7147 c3 -10 9 -15 12 -12 3 3 0 11 -7 18 -10 9 -11 8 -5 -6z"/>
<path d="M3983 7120 c0 -25 2 -35 4 -22 2 12 2 32 0 45 -2 12 -4 2 -4 -23z"/>
<path d="M4087 7144 c5 -14 1 -16 -25 -12 -25 3 -32 1 -32 -12 0 -21 20 -40
40 -39 9 0 6 4 -7 9 -33 13 -28 30 7 30 30 0 42 21 20 35 -6 4 -7 -1 -3 -11z"/>
<path d="M4742 7140 c0 -14 2 -19 5 -12 2 6 2 18 0 25 -3 6 -5 1 -5 -13z"/>
<path d="M5043 7120 c0 -25 2 -35 4 -22 2 12 2 32 0 45 -2 12 -4 2 -4 -23z"/>
<path d="M5217 7153 c-18 -17 -5 -33 28 -33 19 0 35 4 35 8 0 5 -14 6 -32 4
-26 -4 -30 -2 -25 12 7 17 5 20 -6 9z"/>
<path d="M5303 7120 c0 -25 2 -35 4 -22 2 12 2 32 0 45 -2 12 -4 2 -4 -23z"/>
<path d="M5541 7144 c0 -11 3 -14 6 -6 3 7 2 16 -1 19 -3 4 -6 -2 -5 -13z"/>
<path d="M5867 7144 c5 -14 1 -16 -25 -12 -25 3 -32 1 -32 -12 0 -21 20 -40
40 -39 9 0 6 4 -7 9 -33 13 -28 30 7 30 30 0 42 21 20 35 -6 4 -7 -1 -3 -11z"/>
<path d="M6353 7120 c0 -25 2 -35 4 -22 2 12 2 32 0 45 -2 12 -4 2 -4 -23z"/>
<path d="M6653 7120 c0 -25 2 -35 4 -22 2 12 2 32 0 45 -2 12 -4 2 -4 -23z"/>
<path d="M6837 7144 c5 -14 1 -16 -25 -12 -27 4 -32 1 -31 -16 0 -12 3 -15 6
-8 2 6 18 12 34 12 29 0 41 22 19 35 -6 4 -7 -1 -3 -11z"/>
<path d="M6953 7120 c0 -25 2 -35 4 -22 2 12 2 32 0 45 -2 12 -4 2 -4 -23z"/>
<path d="M7313 7120 c0 -25 2 -35 4 -22 2 12 2 32 0 45 -2 12 -4 2 -4 -23z"/>
<path d="M7496 7147 c3 -10 9 -15 12 -12 3 3 0 11 -7 18 -10 9 -11 8 -5 -6z"/>
<path d="M7663 7120 c0 -25 2 -35 4 -22 2 12 2 32 0 45 -2 12 -4 2 -4 -23z"/>
<path d="M7743 7141 c-28 -23 -28 -27 -4 -27 11 0 17 4 14 9 -2 4 1 14 7 22
17 20 10 18 -17 -4z"/>
<path d="M7895 7149 c-4 -6 -5 -12 -2 -15 2 -3 7 2 10 11 7 17 1 20 -8 4z"/>
<path d="M7949 7128 c4 -28 6 -29 9 -9 2 13 0 27 -5 32 -6 6 -7 -3 -4 -23z"/>
<path d="M8020 7149 c0 -5 5 -7 10 -4 6 3 10 8 10 11 0 2 -4 4 -10 4 -5 0 -10
-5 -10 -11z"/>
<path d="M4183 7115 c0 -22 2 -30 4 -17 2 12 2 30 0 40 -3 9 -5 -1 -4 -23z"/>
<path d="M6443 7115 c0 -22 2 -30 4 -17 2 12 2 30 0 40 -3 9 -5 -1 -4 -23z"/>
<path d="M3030 7136 c0 -2 7 -7 16 -10 8 -3 12 -2 9 4 -6 10 -25 14 -25 6z"/>
<path d="M3301 7125 c-1 -25 17 -45 39 -44 10 0 9 3 -5 8 -11 4 -23 19 -26 32
-6 21 -7 21 -8 4z"/>
<path d="M3630 7119 c0 -10 4 -21 10 -24 5 -3 7 0 4 9 -4 11 3 16 28 18 l33 3
-37 6 c-31 4 -38 2 -38 -12z"/>
<path d="M4211 7124 c0 -11 3 -14 6 -6 3 7 2 16 -1 19 -3 4 -6 -2 -5 -13z"/>
<path d="M4407 7129 c7 -7 15 -10 18 -7 3 3 -2 9 -12 12 -14 6 -15 5 -6 -5z"/>
<path d="M4577 7129 c7 -7 15 -10 18 -7 3 3 -2 9 -12 12 -14 6 -15 5 -6 -5z"/>
<path d="M5441 7124 c0 -11 3 -14 6 -6 3 7 2 16 -1 19 -3 4 -6 -2 -5 -13z"/>
<path d="M6471 7124 c0 -11 3 -14 6 -6 3 7 2 16 -1 19 -3 4 -6 -2 -5 -13z"/>
<path d="M7161 7124 c0 -11 3 -14 6 -6 3 7 2 16 -1 19 -3 4 -6 -2 -5 -13z"/>
<path d="M7631 7124 c0 -11 3 -14 6 -6 3 7 2 16 -1 19 -3 4 -6 -2 -5 -13z"/>
<path d="M300 7115 c-6 -8 -10 -22 -7 -32 4 -14 5 -13 6 5 1 19 7 22 41 22 31
0 40 -4 41 -17 0 -12 2 -13 6 -5 14 35 -61 58 -87 27z"/>
<path d="M3103 7123 c9 -2 25 -2 35 0 9 3 1 5 -18 5 -19 0 -27 -2 -17 -5z"/>
<path d="M3918 7123 c7 -3 16 -2 19 1 4 3 -2 6 -13 5 -11 0 -14 -3 -6 -6z"/>
<path d="M4493 7123 c9 -2 25 -2 35 0 9 3 1 5 -18 5 -19 0 -27 -2 -17 -5z"/>
<path d="M406 7113 c6 -4 14 -15 17 -23 5 -11 6 -9 4 4 -1 11 -9 21 -17 23
-10 3 -11 2 -4 -4z"/>
<path d="M3894 7100 c1 -8 10 -16 21 -17 15 -1 15 0 3 3 -9 3 -19 11 -21 17
-2 7 -3 5 -3 -3z"/>
<path d="M4361 7104 c0 -11 3 -14 6 -6 3 7 2 16 -1 19 -3 4 -6 -2 -5 -13z"/>
<path d="M5611 7115 c0 -5 4 -19 8 -29 7 -19 8 -19 13 2 4 12 2 20 -2 17 -5
-3 -11 1 -13 7 -3 7 -5 9 -6 3z"/>
<path d="M7990 7115 c0 -5 5 -17 10 -25 5 -8 10 -10 10 -5 0 6 -5 17 -10 25
-5 8 -10 11 -10 5z"/>
<path d="M3780 7100 c0 -5 5 -10 11 -10 5 0 7 5 4 10 -3 6 -8 10 -11 10 -2 0
-4 -4 -4 -10z"/>
<path d="M3836 7097 c3 -10 9 -15 12 -12 3 3 0 11 -7 18 -10 9 -11 8 -5 -6z"/>
<path d="M4313 7100 c2 -8 12 -16 23 -17 13 -2 15 -1 4 4 -8 3 -19 11 -23 17
-6 7 -7 6 -4 -4z"/>
<path d="M6600 7101 c0 -10 19 -25 25 -20 1 2 -3 10 -11 17 -8 7 -14 8 -14 3z"/>
<path d="M7100 7101 c0 -5 5 -13 10 -16 6 -3 10 -2 10 4 0 5 -4 13 -10 16 -5
3 -10 2 -10 -4z"/>
<path d="M7260 7101 c0 -10 19 -25 25 -20 1 2 -3 10 -11 17 -8 7 -14 8 -14 3z"/>
<path d="M7516 7097 c3 -10 9 -15 12 -12 3 3 0 11 -7 18 -10 9 -11 8 -5 -6z"/>
<path d="M8055 7099 c-4 -6 -5 -12 -2 -15 2 -3 7 2 10 11 7 17 1 20 -8 4z"/>
<path d="M3030 7090 c-23 -7 -23 -8 -3 -9 12 -1 25 4 28 9 3 6 5 10 3 9 -2 -1
-14 -5 -28 -9z"/>
<path d="M3125 7090 c-16 -7 -17 -9 -3 -9 9 -1 20 4 23 9 7 11 7 11 -20 0z"/>
<path d="M3675 7090 c-16 -7 -17 -9 -3 -9 9 -1 20 4 23 9 7 11 7 11 -20 0z"/>
<path d="M4515 7090 c-16 -7 -17 -9 -3 -9 9 -1 20 4 23 9 7 11 7 11 -20 0z"/>
<path d="M4698 7088 c5 -5 16 -8 23 -6 8 3 3 7 -10 11 -17 4 -21 3 -13 -5z"/>
<path d="M5150 7089 c0 -5 5 -7 10 -4 6 3 10 8 10 11 0 2 -4 4 -10 4 -5 0 -10
-5 -10 -11z"/>
<path d="M6048 7088 c5 -5 16 -8 23 -6 8 3 3 7 -10 11 -17 4 -21 3 -13 -5z"/>
<path d="M7605 7090 c-16 -7 -17 -9 -3 -9 9 -1 20 4 23 9 7 11 7 11 -20 0z"/>
<path d="M3238 7083 c7 -3 16 -2 19 1 4 3 -2 6 -13 5 -11 0 -14 -3 -6 -6z"/>
<path d="M4418 7083 c7 -3 16 -2 19 1 4 3 -2 6 -13 5 -11 0 -14 -3 -6 -6z"/>
<path d="M4588 7083 c7 -3 16 -2 19 1 4 3 -2 6 -13 5 -11 0 -14 -3 -6 -6z"/>
<path d="M5238 7083 c7 -3 16 -2 19 1 4 3 -2 6 -13 5 -11 0 -14 -3 -6 -6z"/>
<path d="M6808 7083 c7 -3 16 -2 19 1 4 3 -2 6 -13 5 -11 0 -14 -3 -6 -6z"/>
<path d="M7918 7083 c7 -3 16 -2 19 1 4 3 -2 6 -13 5 -11 0 -14 -3 -6 -6z"/>
<path d="M7090 7060 c-9 -6 -10 -10 -3 -10 6 0 15 5 18 10 8 12 4 12 -15 0z"/>
<path d="M3990 6760 c0 -5 5 -10 11 -10 5 0 7 5 4 10 -3 6 -8 10 -11 10 -2 0
-4 -4 -4 -10z"/>
<path d="M2990 6739 c-17 -31 -4 -68 25 -75 24 -6 62 12 50 24 -2 3 -11 -1
-20 -8 -12 -10 -18 -10 -31 0 -23 20 -14 64 14 68 12 2 22 -1 22 -7 0 -6 5
-11 11 -11 8 0 8 5 -1 15 -18 22 -57 19 -70 -6z"/>
<path d="M3092 6710 c1 -35 3 -43 5 -22 5 42 35 40 45 -3 6 -26 6 -25 5 10 -2
33 -6 40 -22 40 -11 0 -23 7 -27 15 -4 8 -6 -10 -6 -40z"/>
<path d="M4710 6710 c0 -27 5 -50 10 -50 6 0 10 14 10 30 0 20 5 30 15 30 10
0 15 -10 15 -30 0 -16 5 -30 10 -30 6 0 10 13 10 29 0 31 -22 57 -40 46 -5 -3
-10 1 -10 9 0 9 -4 16 -10 16 -5 0 -10 -22 -10 -50z"/>
<path d="M3182 6728 c-32 -32 0 -84 37 -61 22 14 25 38 6 57 -20 19 -27 20
-43 4z m36 -30 c-2 -13 -10 -23 -18 -23 -8 0 -16 10 -18 23 -3 17 2 22 18 22
16 0 21 -5 18 -22z"/>
<path d="M3260 6726 c-19 -24 -4 -68 22 -64 29 4 46 33 32 56 -15 23 -38 26
-54 8z m43 -42 c-3 -8 -11 -14 -18 -14 -19 0 -27 30 -13 47 10 13 14 13 24 -2
7 -9 10 -23 7 -31z"/>
<path d="M3342 6728 c-14 -14 2 -38 24 -38 8 0 14 -5 14 -11 0 -7 -10 -9 -27
-4 -21 5 -25 4 -17 -5 16 -16 48 -9 52 11 2 10 -6 19 -19 22 -11 3 -18 10 -15
16 4 6 14 7 23 4 11 -4 14 -3 9 5 -9 15 -29 15 -44 0z"/>
<path d="M3422 6731 c-20 -12 -11 -65 12 -69 10 -2 23 2 30 8 8 9 6 11 -11 6
-12 -4 -24 -2 -28 4 -4 6 4 10 19 10 19 0 26 5 26 19 0 10 -7 22 -16 25 -19 7
-16 7 -32 -3z m33 -21 c-3 -5 -13 -10 -21 -10 -8 0 -14 5 -14 10 0 6 9 10 21
10 11 0 17 -4 14 -10z"/>
<path d="M3520 6736 c0 -2 6 -22 14 -44 11 -30 12 -43 3 -52 -9 -10 -9 -12 2
-8 15 4 54 98 40 98 -5 0 -12 -12 -16 -27 l-6 -28 -14 33 c-11 27 -23 42 -23
28z"/>
<path d="M3610 6726 c-18 -22 -9 -60 16 -64 31 -4 50 23 36 53 -13 28 -34 32
-52 11z m38 -32 c-4 -23 -26 -30 -34 -10 -8 20 15 51 29 37 5 -5 7 -17 5 -27z"/>
<path d="M3728 6708 c-4 -42 -28 -50 -28 -9 0 17 -4 31 -10 31 -12 0 -13 -40
-2 -56 4 -7 19 -12 35 -12 24 0 27 4 27 34 0 43 -18 54 -22 12z"/>
<path d="M3772 6696 c1 -37 2 -38 5 -8 2 17 8 32 14 32 5 0 9 4 9 8 0 5 -7 9
-15 9 -11 0 -15 -11 -13 -41z"/>
<path d="M3868 6733 c-14 -3 -18 -15 -18 -54 0 -27 5 -49 10 -49 6 0 10 6 10
14 0 8 10 16 23 18 14 2 23 11 25 26 3 22 -13 53 -27 51 -3 -1 -14 -3 -23 -6z
m36 -22 c9 -14 -4 -41 -20 -41 -8 0 -14 10 -14 25 0 25 23 35 34 16z"/>
<path d="M3941 6695 c2 -33 3 -35 6 -10 3 16 12 35 21 41 15 12 15 13 -5 11
-20 -1 -23 -6 -22 -42z"/>
<path d="M3993 6700 c0 -25 2 -35 4 -22 2 12 2 32 0 45 -2 12 -4 2 -4 -23z"/>
<path d="M4038 6732 c-13 -2 -18 -13 -18 -38 0 -19 5 -34 10 -34 6 0 10 14 10
30 0 42 27 40 33 -2 l4 -33 1 33 c3 43 32 45 32 2 0 -16 5 -30 10 -30 14 0 12
57 -2 67 -14 9 -54 11 -80 5z"/>
<path d="M4154 6729 c-5 -9 -2 -10 9 -6 9 3 19 2 22 -3 4 -6 -6 -15 -20 -20
-33 -13 -28 -35 9 -36 25 -1 27 2 24 35 -3 37 -29 54 -44 30z m28 -51 c-6 -6
-15 -8 -19 -4 -4 4 -1 11 7 16 19 12 27 3 12 -12z"/>
<path d="M4238 6732 c-13 -2 -18 -13 -18 -38 0 -19 5 -34 10 -34 6 0 10 13 10
29 0 16 6 31 13 34 17 6 5 14 -15 9z"/>
<path d="M4320 6711 l-13 -34 -13 29 c-15 35 -18 17 -4 -22 7 -19 7 -30 -1
-40 -9 -11 -9 -14 0 -14 14 0 54 88 47 104 -2 6 -10 -4 -16 -23z"/>
<path d="M4395 6710 c7 -45 24 -62 31 -32 8 27 24 29 24 2 0 -11 4 -20 9 -20
11 0 35 69 27 77 -3 3 -8 0 -10 -8 -2 -8 -6 -21 -9 -29 -3 -10 -9 -5 -17 15
l-12 30 -11 -29 -10 -29 -13 29 -14 29 5 -35z"/>
<path d="M4514 6729 c-5 -9 -2 -10 9 -6 9 3 19 2 22 -3 4 -6 -6 -15 -20 -20
-33 -13 -28 -35 9 -36 25 -1 27 2 24 35 -3 37 -29 54 -44 30z m28 -51 c-6 -6
-15 -8 -19 -4 -4 4 -1 11 7 16 19 12 27 3 12 -12z"/>
<path d="M4598 6732 c-13 -2 -18 -13 -18 -38 0 -19 5 -34 10 -34 6 0 10 13 10
29 0 16 6 31 13 34 17 6 5 14 -15 9z"/>
<path d="M4640 6725 c-20 -24 -4 -65 25 -65 13 0 27 5 30 10 4 7 -2 9 -19 4
-16 -4 -26 -2 -26 5 0 6 11 11 25 11 27 0 33 18 13 38 -16 16 -33 15 -48 -3z
m40 -16 c0 -5 -7 -9 -15 -9 -15 0 -20 12 -9 23 8 8 24 -1 24 -14z"/>
<path d="M4805 6724 c-19 -19 -16 -43 6 -57 37 -23 69 29 37 61 -16 16 -23 15
-43 -4z m40 -29 c0 -28 -29 -25 -33 3 -3 19 0 23 15 20 10 -2 18 -12 18 -23z"/>
<path d="M4883 6705 c2 -36 5 -40 30 -41 25 -1 27 1 26 40 l-2 41 -6 -35 c-4
-22 -12 -35 -21 -35 -9 0 -18 13 -22 35 l-6 35 1 -40z"/>
<path d="M4973 6733 c-20 -7 -15 -31 7 -38 11 -3 20 -11 20 -16 0 -6 -10 -7
-22 -4 -18 6 -20 4 -12 -5 14 -14 46 -10 51 7 2 6 -8 19 -24 27 -27 14 -27 15
-5 16 13 0 20 4 17 10 -7 11 -13 11 -32 3z"/>
<path d="M5042 6728 c-25 -25 -6 -68 29 -68 10 0 21 5 24 10 4 7 -2 9 -19 4
-16 -4 -26 -2 -26 5 0 6 11 11 25 11 14 0 25 6 25 13 0 16 -20 37 -35 37 -6 0
-16 -5 -23 -12z m38 -19 c0 -5 -7 -9 -15 -9 -15 0 -20 12 -9 23 8 8 24 -1 24
-14z"/>
<path d="M340 6642 c0 -4 -10 -12 -22 -17 -31 -14 -31 -76 0 -90 12 -5 22 -13
22 -17 0 -5 9 -8 20 -8 11 0 20 3 20 8 0 4 10 12 22 17 17 8 22 19 22 45 0 26
-5 37 -22 45 -12 5 -22 13 -22 17 0 5 -9 8 -20 8 -11 0 -20 -3 -20 -8z m34
-17 c3 -8 12 -15 19 -15 9 0 14 -11 14 -30 0 -18 -6 -30 -13 -30 -7 0 -18 -8
-24 -17 -10 -17 -10 -17 -20 0 -6 9 -17 17 -24 17 -7 0 -13 12 -13 30 0 19 5
30 14 30 7 0 16 7 19 15 4 8 10 15 14 15 4 0 10 -7 14 -15z"/>
<path d="M340 6594 c-11 -12 -10 -18 3 -32 16 -15 18 -15 34 0 13 14 14 20 3
32 -7 9 -16 16 -20 16 -4 0 -13 -7 -20 -16z m30 -14 c0 -5 -4 -10 -10 -10 -5
0 -10 5 -10 10 0 6 5 10 10 10 6 0 10 -4 10 -10z"/>
<path d="M2998 6543 c12 -2 30 -2 40 0 9 3 -1 5 -23 4 -22 0 -30 -2 -17 -4z"/>
<path d="M4193 6500 c0 -30 2 -43 4 -27 2 15 2 39 0 55 -2 15 -4 2 -4 -28z"/>
<path d="M4223 6500 c0 -30 2 -43 4 -27 2 15 2 39 0 55 -2 15 -4 2 -4 -28z"/>
<path d="M4933 6500 c0 -30 2 -43 4 -27 2 15 2 39 0 55 -2 15 -4 2 -4 -28z"/>
<path d="M4882 6499 c2 -27 8 -44 18 -46 12 -4 13 -3 1 5 -9 6 -12 21 -9 41 3
18 1 34 -4 37 -5 3 -8 -13 -6 -37z"/>
<path d="M5670 6535 c-4 -20 2 -70 9 -77 4 -5 5 9 3 30 -4 42 -9 63 -12 47z"/>
<path d="M6520 6506 c0 -20 2 -36 4 -36 8 0 12 61 4 66 -4 3 -8 -11 -8 -30z"/>
<path d="M3971 6513 c7 -12 15 -20 18 -17 3 2 -3 12 -13 22 -17 16 -18 16 -5
-5z"/>
<path d="M4611 6513 c7 -12 15 -20 18 -17 3 2 -3 12 -13 22 -17 16 -18 16 -5
-5z"/>
<path d="M5960 6519 c0 -5 5 -7 10 -4 6 3 10 8 10 11 0 2 -4 4 -10 4 -5 0 -10
-5 -10 -11z"/>
<path d="M6070 6526 c0 -2 8 -10 18 -17 15 -13 16 -12 3 4 -13 16 -21 21 -21
13z"/>
<path d="M6158 6518 c5 -7 12 -26 15 -43 4 -28 4 -28 6 6 1 26 -4 39 -15 43
-13 5 -14 3 -6 -6z"/>
<path d="M3163 6485 c0 -22 2 -30 4 -17 2 12 2 30 0 40 -3 9 -5 -1 -4 -23z"/>
<path d="M3191 6504 c0 -11 3 -14 6 -6 3 7 2 16 -1 19 -3 4 -6 -2 -5 -13z"/>
<path d="M3335 6509 c-4 -6 -5 -12 -2 -15 2 -3 7 2 10 11 7 17 1 20 -8 4z"/>
<path d="M3490 6485 c0 -19 2 -35 4 -35 2 0 6 16 8 35 2 19 0 35 -4 35 -4 0
-8 -16 -8 -35z"/>
<path d="M3696 6505 c-9 -26 -7 -32 5 -12 6 10 9 21 6 23 -2 3 -7 -2 -11 -11z"/>
<path d="M3745 6492 c0 -22 -4 -27 -23 -26 -16 0 -20 -2 -12 -10 7 -7 16 -7
28 0 20 13 28 42 15 55 -5 5 -9 -3 -8 -19z"/>
<path d="M3783 6488 c2 -28 6 -33 30 -34 25 -1 27 2 26 35 -1 36 -1 36 -8 6
-9 -42 -38 -45 -45 -6 l-6 31 3 -32z"/>
<path d="M3861 6504 c0 -11 3 -14 6 -6 3 7 2 16 -1 19 -3 4 -6 -2 -5 -13z"/>
<path d="M3934 6506 c-14 -38 22 -74 48 -48 6 6 0 8 -18 4 -25 -5 -26 -3 -22
27 5 33 1 41 -8 17z"/>
<path d="M4085 6509 c-4 -6 -5 -12 -2 -15 2 -3 7 2 10 11 7 17 1 20 -8 4z"/>
<path d="M4163 6485 c0 -22 2 -30 4 -17 2 12 2 30 0 40 -3 9 -5 -1 -4 -23z"/>
<path d="M4295 6511 c-3 -5 -2 -12 3 -15 5 -3 9 1 9 9 0 17 -3 19 -12 6z"/>
<path d="M4501 6510 c0 -8 6 -26 13 -38 l13 -24 13 31 c7 18 10 34 8 37 -3 3
-9 -8 -13 -23 l-8 -28 -13 30 c-7 17 -13 23 -13 15z"/>
<path d="M4574 6506 c-14 -38 22 -74 48 -48 6 6 0 8 -18 4 -25 -5 -26 -3 -22
27 5 33 1 41 -8 17z"/>
<path d="M5012 6488 c3 -34 30 -50 50 -30 6 6 0 8 -18 4 -25 -5 -26 -3 -22 27
2 17 1 31 -4 31 -5 0 -8 -15 -6 -32z"/>
<path d="M5056 6507 c3 -10 9 -15 12 -12 3 3 0 11 -7 18 -10 9 -11 8 -5 -6z"/>
<path d="M5133 6485 c0 -22 2 -30 4 -17 2 12 2 30 0 40 -3 9 -5 -1 -4 -23z"/>
<path d="M5170 6485 c0 -19 2 -35 4 -35 2 0 6 16 8 35 2 19 0 35 -4 35 -4 0
-8 -16 -8 -35z"/>
<path d="M5293 6485 c0 -22 2 -30 4 -17 2 12 2 30 0 40 -3 9 -5 -1 -4 -23z"/>
<path d="M5323 6485 c0 -22 2 -30 4 -17 2 12 2 30 0 40 -3 9 -5 -1 -4 -23z"/>
<path d="M5474 6505 c-13 -32 25 -70 47 -48 6 6 2 9 -13 9 -19 -1 -23 4 -23
27 1 30 -3 34 -11 12z"/>
<path d="M5563 6485 c0 -22 2 -30 4 -17 2 12 2 30 0 40 -3 9 -5 -1 -4 -23z"/>
<path d="M5590 6505 c0 -8 4 -15 10 -15 5 0 7 7 4 15 -4 8 -8 15 -10 15 -2 0
-4 -7 -4 -15z"/>
<path d="M5710 6485 c0 -19 2 -35 4 -35 2 0 6 16 8 35 2 19 0 35 -4 35 -4 0
-8 -16 -8 -35z"/>
<path d="M5763 6485 c0 -22 2 -30 4 -17 2 12 2 30 0 40 -3 9 -5 -1 -4 -23z"/>
<path d="M5800 6509 c0 -5 5 -7 10 -4 6 3 10 8 10 11 0 2 -4 4 -10 4 -5 0 -10
-5 -10 -11z"/>
<path d="M5848 6493 c5 -21 7 -23 10 -9 2 10 0 22 -6 28 -6 6 -7 0 -4 -19z"/>
<path d="M5883 6488 c2 -28 6 -33 30 -34 25 -1 27 2 26 35 -1 36 -1 36 -8 6
-9 -42 -38 -45 -45 -6 l-6 31 3 -32z"/>
<path d="M6013 6485 c0 -22 2 -30 4 -17 2 12 2 30 0 40 -3 9 -5 -1 -4 -23z"/>
<path d="M6044 6506 c-11 -28 1 -51 25 -51 14 0 25 6 27 13 1 7 0 8 -3 2 -2
-5 -14 -10 -25 -10 -17 0 -20 5 -16 30 5 32 1 39 -8 16z"/>
<path d="M6120 6485 c0 -19 2 -35 4 -35 2 0 6 16 8 35 2 19 0 35 -4 35 -4 0
-8 -16 -8 -35z"/>
<path d="M6241 6468 c1 -29 4 -43 6 -32 3 15 10 20 22 17 10 -3 21 -1 24 4 3
5 -4 9 -16 9 -18 -1 -22 4 -22 27 1 15 -3 27 -7 27 -4 0 -7 -24 -7 -52z"/>
<path d="M6413 6485 c0 -22 2 -30 4 -17 2 12 2 30 0 40 -3 9 -5 -1 -4 -23z"/>
<path d="M6443 6485 c0 -22 2 -30 4 -17 2 12 2 30 0 40 -3 9 -5 -1 -4 -23z"/>
<path d="M3301 6500 c0 -8 4 -24 8 -34 6 -15 10 -16 16 -7 4 7 3 16 -2 20 -6
3 -13 13 -16 21 -5 13 -5 13 -6 0z"/>
<path d="M3351 6490 c0 -8 3 -21 8 -28 6 -11 10 -10 15 4 3 9 4 19 1 22 -3 3
-5 -1 -6 -9 0 -8 -4 -6 -9 6 -6 13 -9 15 -9 5z"/>
<path d="M3531 6490 c-1 -9 4 -21 11 -28 14 -14 48 -16 48 -3 0 5 -9 7 -20 4
-14 -4 -22 1 -29 18 -6 14 -10 18 -10 9z"/>
<path d="M4363 6486 c3 -26 33 -44 48 -29 9 9 7 11 -9 6 -16 -4 -24 1 -32 18
-7 17 -9 19 -7 5z"/>
<path d="M4982 6475 c0 -16 2 -22 5 -12 2 9 2 23 0 30 -3 6 -5 -1 -5 -18z"/>
<path d="M6323 6486 c3 -28 32 -43 51 -27 9 8 16 21 15 30 0 11 -3 9 -9 -6 -5
-13 -16 -23 -25 -23 -9 0 -20 10 -25 23 -8 17 -9 18 -7 3z"/>
<path d="M6492 6475 c0 -16 2 -22 5 -12 2 9 2 23 0 30 -3 6 -5 -1 -5 -18z"/>
<path d="M3220 6483 c19 -9 10 -25 -11 -20 -16 4 -19 3 -11 -5 13 -13 45 -2
40 14 -2 6 -10 13 -16 14 -7 1 -8 0 -2 -3z"/>
<path d="M3410 6475 c0 -20 28 -31 42 -17 8 8 4 9 -12 5 -19 -5 -22 -3 -17 10
4 10 2 17 -3 17 -6 0 -10 -7 -10 -15z"/>
<path d="M3890 6483 c19 -9 10 -25 -11 -20 -16 4 -19 3 -11 -5 13 -13 45 -2
40 14 -2 6 -10 13 -16 14 -7 1 -8 0 -2 -3z"/>
<path d="M4116 6475 c-9 -26 -7 -32 5 -12 6 10 9 21 6 23 -2 3 -7 -2 -11 -11z"/>
<path d="M4800 6483 c17 -8 11 -21 -12 -26 -20 -5 -20 -5 2 -4 26 2 35 28 12
33 -7 1 -8 0 -2 -3z"/>
<path d="M5245 6480 c-3 -6 1 -7 9 -4 18 7 21 14 7 14 -6 0 -13 -4 -16 -10z"/>
<path d="M5627 6473 c5 -13 2 -15 -17 -10 -16 4 -20 3 -12 -5 14 -14 42 -3 42
17 0 8 -4 15 -10 15 -5 0 -7 -7 -3 -17z"/>
<path d="M4060 6465 c0 -8 5 -15 10 -15 6 0 10 7 10 15 0 8 -4 15 -10 15 -5 0
-10 -7 -10 -15z"/>
<path d="M4298 6458 c6 -6 18 -8 28 -6 14 3 12 5 -9 10 -19 3 -25 2 -19 -4z"/>
<path d="M4697 6458 c2 -5 13 -8 24 -8 10 0 19 3 19 8 0 4 -11 7 -24 7 -13 0
-22 -3 -19 -7z"/>
<path d="M5970 6460 c0 -5 5 -10 11 -10 5 0 7 5 4 10 -3 6 -8 10 -11 10 -2 0
-4 -4 -4 -10z"/>
<path d="M5258 6453 c7 -3 16 -2 19 1 4 3 -2 6 -13 5 -11 0 -14 -3 -6 -6z"/>
<path d="M5828 6453 c7 -3 16 -2 19 1 4 3 -2 6 -13 5 -11 0 -14 -3 -6 -6z"/>
<path d="M3440 5990 c0 -46 2 -50 24 -50 28 0 56 24 56 46 0 32 -21 54 -50 54
-29 0 -30 -1 -30 -50z m58 6 c4 -28 -10 -46 -35 -46 -8 0 -13 15 -13 41 0 36
2 40 23 37 16 -2 23 -11 25 -32z"/>
<path d="M3781 5994 c-1 -49 0 -51 25 -50 34 1 53 29 38 54 -7 9 -21 16 -32
15 -12 -2 -22 4 -25 15 -3 9 -5 -6 -6 -34z m47 -20 c-4 -24 -24 -29 -32 -8 -8
20 13 49 27 35 5 -5 7 -17 5 -27z"/>
<path d="M4242 6028 c-16 -16 -15 -63 2 -78 18 -14 58 -10 64 8 3 11 1 11 -18
0 -18 -11 -23 -11 -36 6 -18 25 -18 40 2 57 13 10 19 10 36 0 16 -10 19 -10
16 1 -6 17 -50 22 -66 6z"/>
<path d="M4726 5993 c-9 -25 -14 -49 -11 -51 2 -3 7 3 11 12 8 21 40 21 54 -1
9 -15 10 -14 6 9 -10 44 -25 78 -35 78 -5 0 -16 -21 -25 -47z m32 -12 c-15 -5
-21 7 -13 26 7 17 8 17 15 -2 4 -11 3 -22 -2 -24z"/>
<path d="M4813 5990 c0 -30 2 -43 4 -27 2 15 2 39 0 55 -2 15 -4 2 -4 -28z"/>
<path d="M4933 5990 c0 -31 2 -41 4 -22 3 23 9 32 23 32 14 0 20 -9 23 -32 4
-27 4 -25 3 7 -1 35 -4 40 -23 38 -13 -2 -23 4 -26 15 -3 9 -4 -8 -4 -38z"/>
<path d="M3208 6019 c-39 -22 -8 -81 31 -59 23 12 27 40 9 58 -14 14 -18 14
-40 1z"/>
<path d="M3647 6023 c-2 -5 -2 -25 0 -45 4 -27 10 -38 22 -38 13 0 13 2 2 9
-9 6 -12 19 -8 40 6 28 -6 52 -16 34z"/>
<path d="M3948 6024 c-10 -9 8 -78 20 -82 11 -3 11 -1 0 17 -10 16 -10 25 -1
40 10 15 9 20 -1 24 -8 3 -16 4 -18 1z"/>
<path d="M4498 6024 c-10 -9 8 -78 20 -82 11 -3 11 -1 0 17 -10 16 -10 25 -1
40 10 15 9 20 -1 24 -8 3 -16 4 -18 1z"/>
<path d="M3543 5980 c0 -25 2 -35 4 -22 2 12 2 32 0 45 -2 12 -4 2 -4 -23z"/>
<path d="M3574 6005 c-7 -18 3 -35 22 -35 8 0 14 -5 14 -11 0 -6 -9 -9 -20 -6
-11 3 -20 1 -20 -5 0 -14 53 -5 58 9 2 7 -8 18 -22 24 -27 13 -26 32 1 22 11
-4 14 -3 9 5 -10 17 -36 15 -42 -3z"/>
<path d="M3708 6012 c-13 -2 -18 -13 -18 -38 0 -19 5 -34 10 -34 6 0 10 13 10
29 0 16 6 31 13 34 17 6 5 14 -15 9z"/>
<path d="M3747 6013 c-11 -10 -8 -73 3 -73 6 0 10 18 10 40 0 41 -2 45 -13 33z"/>
<path d="M3866 6007 c-5 -9 -5 -28 -2 -41 5 -20 12 -24 36 -24 27 1 30 4 30
35 0 39 -17 45 -22 8 -4 -36 -22 -32 -29 7 -4 26 -7 29 -13 15z"/>
<path d="M4003 5980 c0 -25 2 -35 4 -22 2 12 2 32 0 45 -2 12 -4 2 -4 -23z"/>
<path d="M4042 6008 c-32 -32 0 -84 37 -61 22 14 25 38 6 57 -20 19 -27 20
-43 4z m36 -30 c-2 -13 -10 -23 -18 -23 -8 0 -16 10 -18 23 -3 17 2 22 18 22
16 0 21 -5 18 -22z"/>
<path d="M4128 6013 c-13 -3 -18 -15 -18 -39 0 -19 5 -34 10 -34 6 0 10 14 10
30 0 20 5 30 15 30 10 0 15 -10 15 -30 0 -16 5 -30 10 -30 14 0 12 54 -2 68
-7 7 -14 11 -17 11 -4 -1 -14 -3 -23 -6z"/>
<path d="M4340 6006 c-20 -26 -8 -61 23 -64 15 -2 27 1 27 6 0 6 -8 8 -19 5
-10 -3 -22 0 -25 6 -5 7 2 11 17 11 31 0 38 9 26 31 -12 23 -32 24 -49 5z m40
-17 c0 -5 -7 -9 -15 -9 -15 0 -20 12 -9 23 8 8 24 -1 24 -14z"/>
<path d="M4428 6013 c-13 -3 -18 -15 -18 -39 0 -19 5 -34 10 -34 6 0 10 14 10
30 0 20 5 30 15 30 10 0 15 -10 15 -30 0 -16 5 -30 10 -30 14 0 12 54 -2 68
-7 7 -14 11 -17 11 -4 -1 -14 -3 -23 -6z"/>
<path d="M4552 6008 c-25 -25 -6 -68 29 -68 10 0 21 5 24 10 4 7 -2 9 -19 4
-16 -4 -26 -2 -26 5 0 6 11 11 25 11 14 0 25 6 25 13 0 16 -20 37 -35 37 -6 0
-16 -5 -23 -12z m38 -19 c0 -5 -7 -9 -15 -9 -15 0 -20 12 -9 23 8 8 24 -1 24
-14z"/>
<path d="M4632 5976 c1 -37 2 -38 5 -8 2 17 8 32 14 32 5 0 9 4 9 8 0 5 -7 9
-15 9 -11 0 -15 -11 -13 -41z"/>
<path d="M4858 6013 c-14 -3 -18 -15 -18 -54 0 -27 5 -49 10 -49 6 0 10 6 10
14 0 8 10 16 23 18 14 2 23 11 25 26 3 22 -13 53 -27 51 -3 -1 -14 -3 -23 -6z
m36 -22 c9 -14 -4 -41 -20 -41 -8 0 -14 10 -14 25 0 25 23 35 34 16z"/>
<path d="M5020 6009 c-12 -9 -11 -10 8 -6 27 6 30 -13 2 -20 -11 -3 -20 -14
-20 -24 0 -14 7 -19 30 -19 27 0 30 3 30 34 0 22 -6 36 -16 40 -19 7 -16 8
-34 -5z m35 -49 c-3 -5 -13 -10 -21 -10 -8 0 -14 5 -14 10 0 6 9 10 21 10 11
0 17 -4 14 -10z"/>
<path d="M3178 5027 c-9 -10 -12 -28 -9 -58 5 -38 6 -40 9 -14 2 17 8 36 14
43 8 8 7 12 -3 12 -11 0 -11 2 1 10 8 5 12 12 8 15 -3 3 -12 0 -20 -8z"/>
<path d="M3215 5030 c-3 -5 -1 -10 4 -10 6 0 11 5 11 10 0 6 -2 10 -4 10 -3 0
-8 -4 -11 -10z"/>
<path d="M2990 4980 c0 -46 2 -50 24 -50 28 0 56 24 56 46 0 32 -21 54 -50 54
-29 0 -30 -1 -30 -50z m58 6 c4 -28 -10 -46 -35 -46 -8 0 -13 15 -13 41 0 36
2 40 23 37 16 -2 23 -11 25 -32z"/>
<path d="M4003 4980 c0 -33 2 -42 4 -22 5 42 35 40 44 -3 l7 -30 1 31 c1 32
-20 60 -38 50 -5 -4 -12 2 -14 11 -3 10 -4 -7 -4 -37z"/>
<path d="M3092 4998 c-25 -25 -6 -68 29 -68 10 0 21 5 24 10 4 7 -2 9 -19 4
-16 -4 -26 -2 -26 5 0 6 11 11 25 11 14 0 25 6 25 13 0 16 -20 37 -35 37 -6 0
-16 -5 -23 -12z m38 -19 c0 -5 -7 -9 -15 -9 -15 0 -20 12 -9 23 8 8 24 -1 24
-14z"/>
<path d="M3223 4970 c0 -25 2 -35 4 -22 2 12 2 32 0 45 -2 12 -4 2 -4 -23z"/>
<path d="M3251 4965 c1 -37 2 -38 8 -10 9 43 38 45 44 3 4 -28 4 -27 3 7 -1
37 -3 40 -28 40 -26 1 -28 -2 -27 -40z"/>
<path d="M3340 4996 c-20 -26 -8 -61 23 -64 15 -2 27 1 27 6 0 6 -8 8 -19 5
-10 -3 -22 0 -25 6 -5 7 2 11 17 11 31 0 38 9 26 31 -12 23 -32 24 -49 5z m40
-17 c0 -5 -7 -9 -15 -9 -15 0 -20 12 -9 23 8 8 24 -1 24 -14z"/>
<path d="M3455 4994 c-18 -19 -19 -25 -1 -49 8 -12 19 -16 30 -12 12 5 16 3
13 -5 -2 -7 -15 -12 -28 -10 -17 2 -21 0 -12 -9 6 -6 19 -9 29 -7 15 2 20 14
22 53 3 45 1 51 -17 52 -12 1 -28 -5 -36 -13z m43 -26 c-2 -13 -10 -23 -18
-23 -8 0 -16 10 -18 23 -3 17 2 22 18 22 16 0 21 -5 18 -22z"/>
<path d="M3540 4996 c-20 -26 -8 -61 23 -64 15 -2 27 1 27 6 0 6 -8 8 -19 5
-10 -3 -22 0 -25 6 -5 7 2 11 17 11 31 0 38 9 26 31 -12 23 -32 24 -49 5z m40
-17 c0 -5 -7 -9 -15 -9 -15 0 -20 12 -9 23 8 8 24 -1 24 -14z"/>
<path d="M3620 4995 c-20 -24 -4 -65 25 -65 18 0 26 7 31 25 7 27 -9 55 -31
55 -7 0 -18 -7 -25 -15z m43 -41 c-3 -8 -11 -14 -18 -14 -19 0 -27 30 -13 47
10 13 14 13 24 -2 7 -9 10 -23 7 -31z"/>
<path d="M3701 4997 c-26 -26 2 -76 35 -63 10 4 14 2 11 -6 -2 -7 -14 -13 -26
-12 -13 0 -18 -3 -12 -9 5 -5 17 -7 27 -5 15 2 20 14 22 53 3 47 1 50 -22 51
-13 1 -29 -3 -35 -9z m46 -22 c5 -16 -14 -38 -26 -31 -18 12 -13 48 6 44 9 -2
18 -7 20 -13z"/>
<path d="M3781 4965 c2 -31 3 -34 6 -12 3 16 11 31 19 34 21 8 17 19 -6 19
-17 0 -20 -6 -19 -41z"/>
<path d="M3845 5000 c-4 -7 -1 -10 6 -8 8 1 16 -2 19 -7 3 -6 -5 -11 -18 -13
-33 -5 -24 -36 11 -40 27 -3 28 -2 25 35 -3 38 -28 57 -43 33z m27 -52 c-9 -9
-15 -9 -24 0 -9 9 -7 12 12 12 19 0 21 -3 12 -12z"/>
<path d="M3911 4950 c1 -30 3 -47 6 -37 3 10 14 17 29 17 17 0 25 7 30 26 8
31 -7 49 -41 49 -24 1 -25 -2 -24 -55z m48 3 c-6 -7 -15 -13 -19 -13 -15 0
-20 33 -8 47 10 13 14 13 25 -3 9 -13 10 -21 2 -31z"/>
<path d="M4083 4970 c0 -25 2 -35 4 -22 2 12 2 32 0 45 -2 12 -4 2 -4 -23z"/>
<path d="M4121 4996 c-29 -35 12 -88 43 -56 8 9 6 11 -12 5 -27 -8 -41 17 -22
40 10 12 16 13 28 3 13 -11 14 -10 10 2 -7 21 -32 24 -47 6z"/>
<path d="M4232 4998 c-25 -25 -6 -68 29 -68 10 0 21 5 24 10 4 7 -2 9 -19 4
-23 -5 -26 -3 -26 21 0 24 3 26 27 20 23 -5 25 -4 14 9 -16 19 -33 20 -49 4z"/>
<path d="M4310 4995 c-20 -24 -4 -65 25 -65 18 0 26 7 31 25 7 27 -9 55 -31
55 -7 0 -18 -7 -25 -15z m43 -41 c-3 -8 -11 -14 -18 -14 -19 0 -27 30 -13 47
10 13 14 13 24 -2 7 -9 10 -23 7 -31z"/>
<path d="M4384 4994 c3 -9 9 -27 12 -40 3 -13 10 -24 15 -24 11 0 29 44 28 68
0 9 -6 1 -13 -18 l-13 -34 -11 32 c-6 18 -14 32 -18 32 -3 0 -3 -7 0 -16z"/>
<path d="M4472 5001 c-20 -12 -11 -65 12 -69 10 -2 23 2 30 8 8 9 6 11 -11 6
-12 -4 -24 -2 -28 4 -4 6 4 10 19 10 19 0 26 5 26 19 0 10 -7 22 -16 25 -19 7
-16 7 -32 -3z m33 -21 c-3 -5 -13 -10 -21 -10 -8 0 -14 5 -14 10 0 6 9 10 21
10 11 0 17 -4 14 -10z"/>
<path d="M4541 4965 c2 -31 3 -34 6 -12 3 16 11 31 19 34 21 8 17 19 -6 19
-17 0 -20 -6 -19 -41z"/>
<path d="M4600 4999 c-12 -9 -11 -10 8 -6 27 6 30 -13 2 -20 -11 -3 -20 -14
-20 -24 0 -14 7 -19 30 -19 27 0 30 3 30 34 0 22 -6 36 -16 40 -19 7 -16 8
-34 -5z m35 -49 c-3 -5 -13 -10 -21 -10 -8 0 -14 5 -14 10 0 6 9 10 21 10 11
0 17 -4 14 -10z"/>
<path d="M4681 5001 c-7 -5 -11 -21 -9 -37 2 -23 8 -29 26 -28 12 0 21 -4 19
-10 -2 -6 -15 -10 -28 -8 -17 2 -21 0 -12 -9 6 -6 19 -9 29 -7 15 2 20 14 22
53 2 43 0 51 -16 52 -10 1 -24 -2 -31 -6z m37 -33 c-2 -13 -10 -23 -18 -23 -8
0 -16 10 -18 23 -3 17 2 22 18 22 16 0 21 -5 18 -22z"/>
<path d="M4762 4998 c-25 -25 -6 -68 29 -68 10 0 21 5 24 10 4 7 -2 9 -19 4
-16 -4 -26 -2 -26 5 0 6 11 11 25 11 14 0 25 6 25 13 0 16 -20 37 -35 37 -6 0
-16 -5 -23 -12z m38 -19 c0 -5 -7 -9 -15 -9 -15 0 -20 12 -9 23 8 8 24 -1 24
-14z"/>
<path d="M2991 4558 c1 -37 3 -46 8 -29 3 13 15 28 26 32 19 7 19 8 -2 8 -33
1 -29 29 5 34 25 4 25 4 -5 6 l-33 1 1 -52z"/>
<path d="M3263 4560 c0 -30 2 -43 4 -27 2 15 2 39 0 55 -2 15 -4 2 -4 -28z"/>
<path d="M3493 4603 c13 -3 17 -15 17 -49 0 -24 5 -44 10 -44 6 0 10 20 10 44
0 34 4 46 18 49 9 3 -3 5 -28 5 -25 0 -37 -2 -27 -5z"/>
<path d="M7343 4603 c13 -3 17 -15 17 -49 0 -24 5 -44 10 -44 6 0 10 20 10 44
0 34 4 46 18 49 9 3 -3 5 -28 5 -25 0 -37 -2 -27 -5z"/>
<path d="M3327 4593 c-2 -5 -2 -25 0 -45 4 -27 10 -38 22 -38 13 0 13 2 2 9
-9 6 -12 19 -8 40 6 28 -6 52 -16 34z"/>
<path d="M7637 4593 c-10 -18 6 -83 20 -83 13 0 13 3 3 15 -7 8 -10 25 -6 39
6 23 -7 45 -17 29z"/>
<path d="M3074 4579 c-5 -9 -2 -10 9 -6 9 3 19 2 22 -3 4 -6 -6 -15 -20 -20
-33 -13 -28 -35 9 -36 25 -1 27 2 24 35 -3 37 -29 54 -44 30z m28 -51 c-6 -6
-15 -8 -19 -4 -4 4 -1 11 7 16 19 12 27 3 12 -12z"/>
<path d="M3152 4578 c-25 -25 -6 -68 30 -68 10 0 18 4 18 10 0 5 -7 7 -16 3
-22 -8 -35 16 -22 40 7 14 13 16 21 8 17 -17 31 -13 17 4 -15 18 -32 19 -48 3z"/>
<path d="M3220 4551 c0 -23 5 -41 10 -41 6 0 10 15 10 34 0 19 -4 38 -10 41
-6 4 -10 -10 -10 -34z"/>
<path d="M3293 4550 c0 -25 2 -35 4 -22 2 12 2 32 0 45 -2 12 -4 2 -4 -23z"/>
<path d="M3370 4580 c0 -5 5 -21 12 -35 9 -21 9 -31 0 -46 -17 -27 4 -24 23 4
8 13 17 39 20 58 l5 34 -14 -30 -14 -30 -11 28 c-10 27 -21 36 -21 17z"/>
<path d="M3560 4586 c0 -2 7 -20 15 -41 13 -30 14 -39 3 -52 -11 -14 -11 -15
2 -11 16 5 55 97 45 106 -3 3 -10 -10 -16 -28 l-12 -32 -13 31 c-11 26 -24 41
-24 27z"/>
<path d="M3645 4582 c-9 -10 -5 -102 5 -102 6 0 10 8 10 18 0 13 7 18 23 18
18 -1 23 5 25 32 2 17 0 33 -5 33 -31 5 -53 5 -58 1z m53 -34 c-2 -13 -10 -23
-18 -23 -8 0 -16 10 -18 23 -3 17 2 22 18 22 16 0 21 -5 18 -22z"/>
<path d="M3740 4576 c-28 -35 13 -88 44 -56 8 9 6 11 -11 6 -12 -4 -24 -2 -28
4 -4 6 4 10 19 10 19 0 26 5 26 19 0 10 -7 22 -16 25 -21 8 -20 8 -34 -8z m40
-16 c0 -5 -6 -10 -14 -10 -8 0 -18 5 -21 10 -3 6 3 10 14 10 12 0 21 -4 21
-10z"/>
<path d="M7422 4578 c-25 -25 -6 -68 29 -68 10 0 21 5 24 10 4 7 -2 9 -19 4
-16 -4 -26 -2 -26 5 0 6 11 11 25 11 14 0 25 6 25 13 0 16 -20 37 -35 37 -6 0
-16 -5 -23 -12z m38 -19 c0 -5 -7 -9 -15 -9 -15 0 -20 12 -9 23 8 8 24 -1 24
-14z"/>
<path d="M7495 4582 c-9 -10 -5 -72 5 -72 6 0 10 14 10 30 0 17 5 30 10 30 6
0 10 4 10 8 0 9 -27 12 -35 4z"/>
<path d="M7551 4545 c2 -33 3 -35 6 -10 3 16 12 35 21 41 15 12 15 13 -5 11
-20 -1 -23 -6 -22 -42z"/>
<path d="M7603 4550 c0 -25 2 -35 4 -22 2 12 2 32 0 45 -2 12 -4 2 -4 -23z"/>
<path d="M7691 4576 c-21 -25 -10 -61 18 -61 31 0 50 28 35 53 -15 23 -38 26
-53 8z m37 -32 c-4 -24 -24 -29 -32 -8 -8 20 13 49 27 35 5 -5 7 -17 5 -27z"/>
<path d="M7772 4546 c1 -37 2 -38 5 -8 2 17 8 32 14 32 5 0 9 4 9 8 0 5 -7 9
-15 9 -11 0 -15 -11 -13 -41z"/>
<path d="M7821 4584 c-1 -6 4 -25 10 -43 8 -24 8 -35 -1 -46 -9 -11 -9 -15 -1
-15 7 0 21 19 31 43 22 46 25 72 10 62 -5 -3 -10 -15 -10 -26 0 -28 -14 -23
-27 9 -6 15 -11 22 -12 16z"/>
<path d="M8093 4215 c0 -22 2 -30 4 -17 2 12 2 30 0 40 -3 9 -5 -1 -4 -23z"/>
<path d="M8143 4215 c0 -22 2 -30 4 -17 2 12 2 30 0 40 -3 9 -5 -1 -4 -23z"/>
<path d="M3742 4220 c0 -14 2 -19 5 -12 2 6 2 18 0 25 -3 6 -5 1 -5 -13z"/>
<path d="M3127 4188 c2 -5 13 -8 23 -8 10 0 21 3 23 8 3 4 -8 7 -23 7 -15 0
-26 -3 -23 -7z"/>
<path d="M3631 4184 c0 -11 3 -14 6 -6 3 7 2 16 -1 19 -3 4 -6 -2 -5 -13z"/>
<path d="M7477 4188 c2 -5 13 -8 23 -8 10 0 21 3 23 8 3 4 -8 7 -23 7 -15 0
-26 -3 -23 -7z"/>
<path d="M8375 4190 c3 -5 8 -10 11 -10 2 0 4 5 4 10 0 6 -5 10 -11 10 -5 0
-7 -4 -4 -10z"/>
<path d="M3798 4183 c7 -3 16 -2 19 1 4 3 -2 6 -13 5 -11 0 -14 -3 -6 -6z"/>
<path d="M2991 3738 c1 -47 2 -49 8 -18 l6 35 14 -32 c7 -18 16 -33 20 -33 4
0 13 15 20 33 l14 32 7 -35 c7 -32 7 -31 9 18 1 61 -12 67 -35 15 l-17 -38
-15 38 c-21 52 -32 46 -31 -15z"/>
<path d="M3243 3740 c-1 -30 1 -47 4 -37 5 21 22 22 29 2 4 -8 10 -15 15 -15
5 0 4 11 -3 25 -8 19 -8 28 3 42 13 17 13 17 -7 1 -28 -24 -32 -23 -37 10 -2
15 -4 2 -4 -28z"/>
<path d="M7343 3774 c-6 -16 12 -37 41 -47 8 -3 7 -8 -1 -18 -10 -10 -16 -10
-25 -1 -17 17 -33 15 -18 -3 16 -20 44 -19 61 1 11 14 10 18 -6 30 -10 8 -25
14 -33 14 -7 0 -12 6 -9 13 2 6 14 12 26 11 11 0 21 3 21 8 0 15 -51 8 -57 -8z"/>
<path d="M3396 3772 c-8 -14 9 -75 23 -80 10 -3 10 0 -1 17 -10 16 -10 25 -1
40 10 15 9 20 -2 25 -8 3 -16 2 -19 -2z"/>
<path d="M7458 3775 c-8 -8 6 -78 17 -82 6 -2 10 15 9 39 -1 38 -12 57 -26 43z"/>
<path d="M3121 3761 c-11 -7 -9 -10 10 -14 l24 -4 -22 -8 c-13 -4 -23 -16 -23
-26 0 -14 7 -19 30 -19 26 0 30 4 30 28 0 25 -15 52 -29 52 -4 0 -12 -4 -20
-9z m29 -51 c0 -5 -7 -10 -15 -10 -8 0 -15 5 -15 10 0 6 7 10 15 10 8 0 15 -4
15 -10z"/>
<path d="M3192 3725 c1 -37 2 -37 5 -7 3 19 10 32 19 32 8 0 14 4 14 9 0 6 -9
9 -20 8 -17 -1 -20 -8 -18 -42z"/>
<path d="M3320 3755 c-20 -24 -4 -65 25 -65 13 0 27 5 30 10 4 7 -2 9 -19 4
-16 -4 -26 -2 -26 5 0 6 11 11 25 11 27 0 33 18 13 38 -16 16 -33 15 -48 -3z
m40 -16 c0 -5 -7 -9 -15 -9 -15 0 -20 12 -9 23 8 8 24 -1 24 -14z"/>
<path d="M7427 3763 c-11 -10 -8 -73 3 -73 6 0 10 18 10 40 0 41 -2 45 -13 33z"/>
<path d="M7516 3754 c-19 -18 -19 -20 -6 -45 12 -21 45 -26 56 -8 4 7 0 9 -14
5 -11 -4 -23 -2 -27 4 -4 6 4 10 19 10 28 0 34 18 14 38 -16 16 -23 15 -42 -4z
m39 -14 c-3 -5 -13 -10 -21 -10 -8 0 -14 5 -14 10 0 6 9 10 21 10 11 0 17 -4
14 -10z"/>
<path d="M7594 3755 c-7 -18 3 -35 22 -35 8 0 14 -5 14 -11 0 -6 -9 -9 -20 -6
-11 3 -20 1 -20 -4 0 -15 48 -10 54 6 4 11 -3 19 -20 25 -14 6 -23 14 -19 20
3 5 13 6 22 3 11 -4 14 -3 9 5 -10 17 -36 15 -42 -3z"/>
<path d="M3563 3395 c0 -22 2 -30 4 -17 2 12 2 30 0 40 -3 9 -5 -1 -4 -23z"/>
<path d="M8061 3394 c0 -11 3 -14 6 -6 3 7 2 16 -1 19 -3 4 -6 -2 -5 -13z"/>
<path d="M3127 3368 c2 -5 13 -8 23 -8 10 0 21 3 23 8 3 4 -8 7 -23 7 -15 0
-26 -3 -23 -7z"/>
<path d="M7477 3368 c2 -5 13 -8 23 -8 10 0 21 3 23 8 3 4 -8 7 -23 7 -15 0
-26 -3 -23 -7z"/>
<path d="M3908 3363 c7 -3 16 -2 19 1 4 3 -2 6 -13 5 -11 0 -14 -3 -6 -6z"/>
<path d="M2993 2504 c-6 -16 12 -37 41 -47 8 -3 7 -8 -1 -18 -10 -10 -16 -10
-25 -1 -17 17 -33 15 -18 -3 16 -20 44 -19 61 1 11 14 10 18 -6 30 -10 8 -25
14 -33 14 -7 0 -12 6 -9 13 2 6 14 12 26 11 11 0 21 3 21 8 0 15 -51 8 -57 -8z"/>
<path d="M3150 2470 c0 -27 5 -50 10 -50 6 0 10 23 10 50 0 28 -4 50 -10 50
-5 0 -10 -22 -10 -50z"/>
<path d="M3700 2505 c0 -8 -6 -12 -12 -10 -23 8 -40 -11 -36 -41 3 -25 8 -29
36 -31 32 -1 32 -1 32 48 0 27 -4 49 -10 49 -5 0 -10 -7 -10 -15z m-2 -47 c-2
-13 -10 -23 -18 -23 -8 0 -16 10 -18 23 -3 17 2 22 18 22 16 0 21 -5 18 -22z"/>
<path d="M3348 2505 c-8 -8 6 -78 17 -82 6 -2 10 15 9 39 -1 38 -12 57 -26 43z"/>
<path d="M3898 2504 c-10 -9 8 -78 20 -82 11 -3 11 -1 0 17 -10 16 -10 25 -1
40 10 15 9 20 -1 24 -8 3 -16 4 -18 1z"/>
<path d="M3082 2488 c-25 -25 -6 -68 29 -68 10 0 21 5 24 10 4 7 -2 9 -19 4
-16 -4 -26 -2 -26 5 0 6 11 11 25 11 14 0 25 6 25 13 0 16 -20 37 -35 37 -6 0
-16 -5 -23 -12z m38 -19 c0 -5 -7 -9 -15 -9 -15 0 -20 12 -9 23 8 8 24 -1 24
-14z"/>
<path d="M3204 2492 c-17 -11 -22 -35 -12 -54 10 -20 43 -24 54 -7 4 7 0 9
-14 5 -11 -4 -23 -2 -27 4 -4 6 4 10 19 10 19 0 26 5 26 19 0 10 -7 22 -16 25
-19 7 -17 7 -30 -2z m31 -22 c-3 -5 -13 -10 -21 -10 -8 0 -14 5 -14 10 0 6 9
10 21 10 11 0 17 -4 14 -10z"/>
<path d="M3282 2491 c-20 -12 -11 -65 12 -69 10 -2 23 1 29 7 9 9 5 11 -13 9
-20 -2 -26 2 -28 21 -3 21 0 23 22 19 28 -6 36 6 10 16 -19 7 -16 7 -32 -3z"/>
<path d="M3448 2493 c-14 -3 -18 -15 -18 -54 0 -27 5 -49 10 -49 6 0 10 6 10
14 0 8 10 16 23 18 14 2 23 11 25 26 3 22 -13 53 -27 51 -3 -1 -14 -3 -23 -6z
m36 -22 c9 -14 -4 -41 -20 -41 -8 0 -14 10 -14 25 0 25 23 35 34 16z"/>
<path d="M3521 2455 c2 -33 3 -35 6 -10 3 16 12 35 21 41 15 12 15 13 -5 11
-20 -1 -23 -6 -22 -42z"/>
<path d="M3576 2484 c-19 -19 -20 -25 -3 -48 18 -24 51 -17 55 12 3 23 -13 52
-29 52 -4 0 -15 -7 -23 -16z m42 -26 c-2 -13 -10 -23 -18 -23 -8 0 -16 10 -18
23 -3 17 2 22 18 22 16 0 21 -5 18 -22z"/>
<path d="M3743 2465 c2 -36 5 -40 30 -41 25 -1 27 2 27 39 0 43 -15 42 -22 -1
-5 -34 -22 -28 -30 10 -6 31 -6 31 -5 -7z"/>
<path d="M3826 2484 c-19 -18 -19 -20 -6 -45 11 -20 45 -26 55 -9 4 6 -4 9
-17 7 -17 -1 -24 4 -26 22 -3 21 0 23 22 19 28 -6 36 6 10 16 -21 8 -20 8 -38
-10z"/>
<path d="M3952 2488 c-14 -14 2 -38 24 -38 8 0 14 -5 14 -11 0 -7 -10 -9 -27
-4 -21 5 -25 4 -17 -5 16 -16 48 -9 52 11 2 10 -6 19 -19 22 -11 3 -18 10 -15
16 4 6 14 7 23 4 11 -4 14 -3 9 5 -9 15 -29 15 -44 0z"/>
<path d="M2990 2079 c-17 -31 -4 -68 25 -75 24 -6 62 12 50 24 -2 3 -11 -1
-20 -8 -12 -10 -18 -10 -31 0 -23 20 -14 64 14 68 12 2 22 -1 22 -7 0 -6 5
-11 11 -11 8 0 8 5 -1 15 -18 22 -57 19 -70 -6z"/>
<path d="M7343 2084 c-6 -16 12 -37 41 -47 8 -3 7 -8 -1 -18 -10 -10 -16 -10
-25 -1 -17 17 -33 15 -18 -3 16 -20 44 -19 61 1 11 14 10 18 -6 30 -10 8 -25
14 -33 14 -7 0 -12 6 -9 13 2 6 14 12 26 11 11 0 21 3 21 8 0 15 -51 8 -57 -8z"/>
<path d="M7511 2055 c-1 -47 1 -51 24 -53 32 -2 50 29 34 59 -7 13 -17 19 -29
16 -12 -3 -21 1 -23 12 -3 9 -5 -7 -6 -34z m47 -17 c-2 -13 -10 -23 -18 -23
-8 0 -16 10 -18 23 -3 17 2 22 18 22 16 0 21 -5 18 -22z"/>
<path d="M3168 2084 c-10 -9 8 -78 20 -82 11 -3 11 -1 0 17 -10 16 -10 25 -1
40 10 15 9 20 -1 24 -8 3 -16 4 -18 1z"/>
<path d="M7748 2085 c-8 -8 6 -78 17 -82 6 -2 10 15 9 39 -1 38 -12 57 -26 43z"/>
<path d="M3094 2068 c-5 -8 -2 -9 9 -5 9 3 19 2 22 -3 4 -6 -6 -15 -20 -20
-35 -13 -27 -34 13 -38 29 -3 32 -1 32 25 0 44 -38 71 -56 41z m36 -43 c0 -8
-7 -15 -15 -15 -26 0 -18 20 13 29 1 1 2 -6 2 -14z"/>
<path d="M3222 2068 c-25 -25 -6 -68 29 -68 10 0 21 5 24 10 4 7 -2 9 -19 4
-16 -4 -26 -2 -26 5 0 6 11 11 25 11 14 0 25 6 25 13 0 16 -20 37 -35 37 -6 0
-16 -5 -23 -12z m38 -19 c0 -5 -7 -9 -15 -9 -15 0 -20 12 -9 23 8 8 24 -1 24
-14z"/>
<path d="M3301 2067 c-26 -26 2 -76 35 -63 10 4 14 2 11 -6 -2 -7 -14 -13 -26
-12 -13 0 -18 -3 -12 -9 5 -5 17 -7 27 -5 15 2 20 14 22 53 3 47 1 50 -22 51
-13 1 -29 -3 -35 -9z m46 -22 c5 -16 -14 -38 -26 -31 -18 12 -13 48 6 44 9 -2
18 -7 20 -13z"/>
<path d="M3390 2066 c-18 -22 -9 -60 16 -64 31 -4 50 23 36 53 -13 28 -34 32
-52 11z m38 -32 c-4 -23 -26 -30 -34 -10 -8 20 15 51 29 37 5 -5 7 -17 5 -27z"/>
<path d="M3478 2072 c-13 -2 -18 -13 -18 -38 0 -19 5 -34 10 -34 6 0 10 13 10
29 0 16 6 31 13 34 17 6 5 14 -15 9z"/>
<path d="M3559 2050 l-12 -33 -13 29 c-15 35 -18 17 -4 -22 8 -19 7 -31 -2
-42 -11 -13 -10 -14 2 -10 16 5 55 97 45 106 -3 3 -10 -10 -16 -28z"/>
<path d="M7426 2067 c-4 -9 -5 -28 -2 -41 5 -20 12 -24 36 -24 27 1 30 4 30
35 0 39 -17 45 -22 6 -5 -42 -26 -40 -30 4 -3 29 -6 34 -12 20z"/>
<path d="M7601 2066 c-29 -35 12 -88 43 -56 8 9 6 11 -12 5 -27 -8 -41 17 -22
40 10 12 16 13 28 3 13 -11 14 -10 10 2 -7 21 -32 24 -47 6z"/>
<path d="M7681 2071 c-11 -7 -9 -10 10 -14 l24 -4 -22 -8 c-13 -4 -23 -16 -23
-26 0 -14 7 -19 30 -19 26 0 30 4 30 28 0 25 -15 52 -29 52 -4 0 -12 -4 -20
-9z m29 -51 c0 -5 -7 -10 -15 -10 -8 0 -15 5 -15 10 0 6 7 10 15 10 8 0 15 -4
15 -10z"/>
<path d="M7806 2064 c-19 -18 -19 -20 -6 -45 12 -21 45 -26 56 -8 4 7 0 9 -14
5 -11 -4 -23 -2 -27 4 -4 6 4 10 19 10 28 0 34 18 14 38 -16 16 -23 15 -42 -4z
m39 -14 c-3 -5 -13 -10 -21 -10 -8 0 -14 5 -14 10 0 6 9 10 21 10 11 0 17 -4
14 -10z"/>
<path d="M7891 2071 c-7 -5 -11 -21 -9 -37 2 -23 8 -29 26 -28 12 0 21 -4 19
-10 -2 -6 -15 -10 -28 -8 -17 2 -21 0 -12 -9 6 -6 19 -9 29 -7 15 2 20 14 22
53 2 43 0 51 -16 52 -10 1 -24 -2 -31 -6z m37 -33 c-2 -13 -10 -23 -18 -23 -8
0 -16 10 -18 23 -3 17 2 22 18 22 16 0 21 -5 18 -22z"/>
<path d="M7972 2068 c-25 -25 -6 -68 30 -68 22 0 35 45 18 65 -15 18 -32 19
-48 3z m42 -41 c-3 -9 -12 -17 -19 -17 -19 0 -27 30 -14 47 10 12 14 12 26 0
8 -7 11 -21 7 -30z"/>
<path d="M8052 2036 c1 -37 2 -38 5 -8 2 17 8 32 14 32 5 0 9 4 9 8 0 5 -7 9
-15 9 -11 0 -15 -11 -13 -41z"/>
<path d="M8101 2074 c-1 -6 4 -25 10 -43 9 -24 8 -35 -2 -48 -12 -14 -12 -16
1 -11 18 5 36 41 44 83 l6 30 -12 -27 c-7 -16 -15 -28 -18 -28 -3 0 -11 12
-17 28 -6 15 -11 22 -12 16z"/>
<path d="M3721 1723 c-1 -23 3 -44 7 -47 4 -2 6 12 4 32 -5 56 -10 62 -11 15z"/>
<path d="M8033 1705 c0 -22 2 -30 4 -17 2 12 2 30 0 40 -3 9 -5 -1 -4 -23z"/>
<path d="M8482 1710 c0 -19 2 -27 5 -17 2 9 2 25 0 35 -3 9 -5 1 -5 -18z"/>
<path d="M8272 1700 c0 -19 2 -27 5 -17 2 9 2 25 0 35 -3 9 -5 1 -5 -18z"/>
<path d="M3761 1704 c0 -11 3 -14 6 -6 3 7 2 16 -1 19 -3 4 -6 -2 -5 -13z"/>
<path d="M3841 1704 c0 -11 3 -14 6 -6 3 7 2 16 -1 19 -3 4 -6 -2 -5 -13z"/>
<path d="M3981 1704 c0 -11 3 -14 6 -6 3 7 2 16 -1 19 -3 4 -6 -2 -5 -13z"/>
<path d="M8511 1704 c0 -11 3 -14 6 -6 3 7 2 16 -1 19 -3 4 -6 -2 -5 -13z"/>
<path d="M8224 1699 c-3 -6 -2 -15 3 -20 5 -5 9 -1 9 11 0 23 -2 24 -12 9z"/>
<path d="M3127 1678 c2 -5 13 -8 23 -8 10 0 21 3 23 8 3 4 -8 7 -23 7 -15 0
-26 -3 -23 -7z"/>
<path d="M4080 1679 c0 -5 5 -7 10 -4 6 3 10 8 10 11 0 2 -4 4 -10 4 -5 0 -10
-5 -10 -11z"/>
<path d="M7477 1678 c2 -5 13 -8 23 -8 10 0 21 3 23 8 3 4 -8 7 -23 7 -15 0
-26 -3 -23 -7z"/>
<path d="M8378 1673 c7 -3 16 -2 19 1 4 3 -2 6 -13 5 -11 0 -14 -3 -6 -6z"/>
<path d="M3445 1280 c-3 -5 -1 -10 4 -10 6 0 11 5 11 10 0 6 -2 10 -4 10 -3 0
-8 -4 -11 -10z"/>
<path d="M2990 1259 c-17 -31 -4 -68 25 -75 24 -6 62 12 50 24 -2 3 -11 -1
-20 -8 -12 -10 -18 -10 -31 0 -23 20 -14 64 14 68 12 2 22 -1 22 -7 0 -6 5
-11 11 -11 8 0 8 5 -1 15 -18 22 -57 19 -70 -6z"/>
<path d="M3173 1230 c0 -30 2 -43 4 -27 2 15 2 39 0 55 -2 15 -4 2 -4 -28z"/>
<path d="M3200 1230 c0 -27 5 -50 10 -50 6 0 10 23 10 50 0 28 -4 50 -10 50
-5 0 -10 -22 -10 -50z"/>
<path d="M7343 1230 c0 -30 2 -43 4 -27 2 15 2 39 0 55 -2 15 -4 2 -4 -28z"/>
<path d="M3398 1264 c-10 -9 8 -78 20 -82 11 -3 11 -1 0 17 -10 16 -10 25 -1
40 10 15 9 20 -1 24 -8 3 -16 4 -18 1z"/>
<path d="M7377 1263 c-2 -5 -2 -25 0 -45 4 -27 10 -38 22 -38 13 0 13 2 2 9
-9 6 -12 19 -8 40 6 28 -6 52 -16 34z"/>
<path d="M3095 1244 c-19 -19 -16 -43 6 -57 37 -23 69 29 37 61 -16 16 -23 15
-43 -4z m43 -26 c-2 -13 -10 -23 -18 -23 -8 0 -16 10 -18 23 -3 17 2 22 18 22
16 0 21 -5 18 -22z"/>
<path d="M3246 1244 c-9 -8 -16 -21 -16 -28 0 -29 51 -49 65 -26 4 7 -2 9 -19
4 -16 -4 -26 -2 -26 5 0 6 11 11 25 11 27 0 33 18 13 38 -16 16 -23 15 -42 -4z
m34 -14 c0 -5 -7 -10 -15 -10 -8 0 -15 5 -15 10 0 6 7 10 15 10 8 0 15 -4 15
-10z"/>
<path d="M3326 1244 c-19 -18 -19 -20 -6 -45 11 -20 45 -26 55 -9 4 6 -4 9
-17 7 -17 -1 -24 4 -26 22 -3 21 0 23 22 19 21 -4 24 -3 15 8 -15 18 -24 18
-43 -2z"/>
<path d="M3453 1220 c0 -25 2 -35 4 -22 2 12 2 32 0 45 -2 12 -4 2 -4 -23z"/>
<path d="M3492 1251 c-8 -5 -12 -21 -10 -37 4 -35 35 -45 55 -18 17 23 16 29
-3 48 -18 18 -24 19 -42 7z m36 -33 c-2 -13 -10 -23 -18 -23 -8 0 -16 10 -18
23 -3 17 2 22 18 22 16 0 21 -5 18 -22z"/>
<path d="M3560 1218 c0 -21 5 -38 10 -38 6 0 10 14 10 30 0 42 27 40 33 -2 4
-27 4 -25 3 7 -1 37 -3 40 -28 40 -26 1 -28 -2 -28 -37z"/>
<path d="M7430 1246 c-20 -26 -8 -61 23 -64 15 -2 27 1 27 6 0 6 -8 8 -19 5
-10 -3 -22 0 -25 6 -5 7 2 11 17 11 31 0 38 9 26 31 -12 23 -32 24 -49 5z m40
-17 c0 -5 -7 -9 -15 -9 -15 0 -20 12 -9 23 8 8 24 -1 24 -14z"/>
<path d="M7500 1218 c0 -21 5 -38 10 -38 6 0 10 14 10 30 0 42 27 40 33 -2 l4
-33 1 33 c1 20 7 32 16 32 9 0 16 -13 19 -32 4 -27 4 -25 3 7 l-1 40 -47 0
-48 0 0 -37z"/>
<path d="M7630 1246 c-9 -12 -7 -17 9 -28 28 -17 27 -31 -1 -23 -18 6 -20 4
-12 -5 16 -16 48 -9 52 11 2 10 -6 19 -19 22 -11 3 -18 10 -15 16 4 6 14 7 23
4 11 -4 14 -3 9 5 -10 16 -31 15 -46 -2z"/>
<path d="M3723 900 c0 -30 2 -43 4 -27 2 15 2 39 0 55 -2 15 -4 2 -4 -28z"/>
<path d="M3753 900 c0 -30 2 -43 4 -27 2 15 2 39 0 55 -2 15 -4 2 -4 -28z"/>
<path d="M7913 885 c0 -22 2 -30 4 -17 2 12 2 30 0 40 -3 9 -5 -1 -4 -23z"/>
<path d="M8073 885 c0 -22 2 -30 4 -17 2 12 2 30 0 40 -3 9 -5 -1 -4 -23z"/>
<path d="M4152 880 c0 -19 2 -27 5 -17 2 9 2 25 0 35 -3 9 -5 1 -5 -18z"/>
<path d="M8162 880 c0 -19 2 -27 5 -17 2 9 2 25 0 35 -3 9 -5 1 -5 -18z"/>
<path d="M3691 884 c0 -11 3 -14 6 -6 3 7 2 16 -1 19 -3 4 -6 -2 -5 -13z"/>
<path d="M3781 884 c0 -11 3 -14 6 -6 3 7 2 16 -1 19 -3 4 -6 -2 -5 -13z"/>
<path d="M3861 884 c0 -11 3 -14 6 -6 3 7 2 16 -1 19 -3 4 -6 -2 -5 -13z"/>
<path d="M3127 858 c2 -5 13 -8 23 -8 10 0 21 3 23 8 3 4 -8 7 -23 7 -15 0
-26 -3 -23 -7z"/>
<path d="M7477 858 c2 -5 13 -8 23 -8 10 0 21 3 23 8 3 4 -8 7 -23 7 -15 0
-26 -3 -23 -7z"/>
<path d="M8025 860 c-16 -7 -17 -9 -3 -9 9 -1 20 4 23 9 7 11 7 11 -20 0z"/>
<path d="M3888 853 c7 -3 16 -2 19 1 4 3 -2 6 -13 5 -11 0 -14 -3 -6 -6z"/>
<path d="M322 533 c-2 -56 -14 -72 -39 -51 -14 11 -16 11 -11 -2 6 -20 47 -25
54 -7 3 8 3 36 1 63 l-3 49 -2 -52z"/>
<path d="M360 520 c0 -60 0 -60 29 -60 37 0 61 23 61 60 0 33 -31 60 -67 60
-21 0 -23 -4 -23 -60z m68 7 c4 -33 -13 -57 -39 -57 -16 0 -19 8 -19 46 0 44
1 45 28 42 21 -2 28 -9 30 -31z"/>
</g>
</svg>
